NotoSansAdlam-Bold.ufo
<glyph name="seven" format="2">
  <advance width="572"/>
  <unicode hex="0037"/>
  <outline>
    <contour>
      <point x="111" y="0" type="line"/>
      <point x="269" y="0" type="line"/>
      <point x="539" y="619" type="line"/>
      <point x="539" y="714" type="line"/>
      <point x="27" y="714" type="line"/>
      <point x="27" y="587" type="line"/>
      <point x="379" y="587" type="line"/>
    </contour>
  </outline>
</glyph>
<glyph name="asciicircum" format="2">
  <advance width="572"/>
  <unicode hex="005E"/>
  <outline>
    <contour>
      <point x="23" y="254" type="line"/>
      <point x="138" y="254" type="line"/>
      <point x="275" y="568" type="line"/>
      <point x="432" y="254" type="line"/>
      <point x="549" y="254" type="line"/>
      <point x="307" y="718" type="line"/>
      <point x="237" y="718" type="line"/>
    </contour>
  </outline>
</glyph>
<glyph name="c" format="2">
  <advance width="514"/>
  <unicode hex="0063"/>
  <anchor x="271" y="0" name="bottom"/>
  <anchor x="274" y="536" name="top"/>
  <anchor x="450" y="536" name="topright"/>
  <outline>
    <contour>
      <point x="300" y="-10" type="curve" smooth="yes"/>
      <point x="376" y="-10"/>
      <point x="420.667" y="1.667"/>
      <point x="466" y="31" type="curve"/>
      <point x="466" y="158" type="line"/>
      <point x="420.667" y="128.667"/>
      <point x="375.667" y="111"/>
      <point x="313" y="111" type="curve" smooth="yes"/>
      <point x="239.667" y="111"/>
      <point x="197" y="161.667"/>
      <point x="197" y="271" type="curve" smooth="yes"/>
      <point x="197" y="381"/>
      <point x="235.667" y="436"/>
      <point x="313" y="436" type="curve" smooth="yes"/>
      <point x="353" y="436"/>
      <point x="392.333" y="422.667"/>
      <point x="439" y="404" type="curve"/>
      <point x="483" y="519" type="line"/>
      <point x="441.667" y="539"/>
      <point x="387.667" y="556"/>
      <point x="313" y="556" type="curve" smooth="yes"/>
      <point x="140" y="556"/>
      <point x="45" y="454"/>
      <point x="45" y="270" type="curve" smooth="yes"/>
      <point x="45" y="75.333"/>
      <point x="137.333" y="-10"/>
    </contour>
  </outline>
</glyph>
<glyph name="d" format="2">
  <advance width="633"/>
  <unicode hex="0064"/>
  <anchor x="282" y="0" name="bottom"/>
  <anchor x="298" y="268" name="center"/>
  <anchor x="265" y="760" name="top"/>
  <anchor x="543" y="760" name="topright"/>
  <outline>
    <contour>
      <point x="251" y="-10" type="curve" smooth="yes"/>
      <point x="329.667" y="-10"/>
      <point x="376.667" y="25.667"/>
      <point x="406" y="71" type="curve"/>
      <point x="412" y="71" type="line"/>
      <point x="441" y="0" type="line"/>
      <point x="555" y="0" type="line"/>
      <point x="555" y="760" type="line"/>
      <point x="406" y="760" type="line"/>
      <point x="406" y="585" type="line" smooth="yes"/>
      <point x="406" y="542.333"/>
      <point x="413" y="497.333"/>
      <point x="417" y="476" type="curve"/>
      <point x="412" y="476" type="line"/>
      <point x="382.667" y="521.333"/>
      <point x="333.667" y="556"/>
      <point x="255" y="556" type="curve" smooth="yes"/>
      <point x="129.667" y="556"/>
      <point x="45" y="458.667"/>
      <point x="45" y="272" type="curve" smooth="yes"/>
      <point x="45" y="86.667"/>
      <point x="129.667" y="-10"/>
    </contour>
    <contour>
      <point x="303" y="109" type="curve" smooth="yes"/>
      <point x="235" y="109"/>
      <point x="196" y="163.333"/>
      <point x="196" y="270" type="curve" smooth="yes"/>
      <point x="196" y="376.667"/>
      <point x="235.667" y="435"/>
      <point x="301" y="435" type="curve" smooth="yes"/>
      <point x="389" y="435"/>
      <point x="416" y="376.333"/>
      <point x="416" y="271" type="curve" smooth="yes"/>
      <point x="416" y="255" type="line" smooth="yes"/>
      <point x="413.333" y="157.667"/>
      <point x="384.333" y="109"/>
    </contour>
  </outline>
</glyph>
<glyph name="v" format="2">
  <advance width="569"/>
  <unicode hex="0076"/>
  <anchor x="282" y="0" name="bottom"/>
  <anchor x="282" y="536" name="top"/>
  <anchor x="518" y="536" name="topright"/>
  <outline>
    <contour>
      <point x="208" y="0" type="line"/>
      <point x="361" y="0" type="line"/>
      <point x="569" y="546" type="line"/>
      <point x="413" y="546" type="line"/>
      <point x="308" y="235" type="line" smooth="yes"/>
      <point x="295.333" y="196.333"/>
      <point x="288" y="159"/>
      <point x="286" y="123" type="curve"/>
      <point x="282" y="123" type="line"/>
      <point x="279.333" y="155"/>
      <point x="273" y="197.667"/>
      <point x="261" y="235" type="curve" smooth="yes"/>
      <point x="156" y="546" type="line"/>
      <point x="0" y="546" type="line"/>
    </contour>
  </outline>
</glyph>
<glyph name="gravecomb" format="2">
  <unicode hex="0300"/>
  <outline>
    <contour>
      <point x="223" y="606" type="curve"/>
      <point x="322" y="606" type="line"/>
      <point x="322" y="619" type="line"/>
      <point x="283.38" y="664.861"/>
      <point x="237.103" y="721.849"/>
      <point x="207" y="766" type="curve"/>
      <point x="40" y="766" type="line"/>
      <point x="40" y="756" type="line"/>
      <point x="77.477" y="718.523"/>
      <point x="174.536" y="639.159"/>
    </contour>
  </outline>
</glyph>
<glyph name="acutecomb" format="2">
  <unicode hex="0301"/>
  <note>
acute
</note>
  <outline>
    <contour>
      <point x="40" y="606" type="line"/>
      <point x="139" y="606" type="line"/>
      <point x="187.464" y="639.159"/>
      <point x="284.523" y="718.523"/>
      <point x="322" y="756" type="curve"/>
      <point x="322" y="766" type="line"/>
      <point x="155" y="766" type="line"/>
      <point x="124.897" y="721.849"/>
      <point x="78.62" y="664.861"/>
      <point x="40" y="619" type="curve"/>
    </contour>
  </outline>
</glyph>
<glyph name="endash" format="2">
  <advance width="500"/>
  <unicode hex="2013"/>
  <outline>
    <contour>
      <point x="40" y="213" type="line"/>
      <point x="460" y="213" type="line"/>
      <point x="460" y="325" type="line"/>
      <point x="40" y="325" type="line"/>
    </contour>
  </outline>
</glyph>
<glyph name="Ra-adlam" format="2">
  <advance width="731"/>
  <unicode hex="1E908"/>
  <anchor x="380" y="663" name="top"/>
  <outline>
    <contour>
      <point x="202" y="0" type="curve" smooth="yes"/>
      <point x="656" y="0" type="line"/>
      <point x="656" y="125" type="line"/>
      <point x="290" y="125" type="line" smooth="yes"/>
      <point x="250" y="125"/>
      <point x="241" y="141"/>
      <point x="241" y="183" type="curve" smooth="yes"/>
      <point x="241" y="263" type="line"/>
      <point x="246" y="266" type="line"/>
      <point x="260" y="253"/>
      <point x="303" y="223"/>
      <point x="405" y="223" type="curve" smooth="yes"/>
      <point x="547" y="223"/>
      <point x="656" y="276"/>
      <point x="656" y="458" type="curve" smooth="yes"/>
      <point x="656" y="714" type="line"/>
      <point x="505" y="714" type="line"/>
      <point x="505" y="458" type="line" smooth="yes"/>
      <point x="505" y="381"/>
      <point x="471" y="348"/>
      <point x="382" y="348" type="curve" smooth="yes"/>
      <point x="296" y="348"/>
      <point x="257" y="390"/>
      <point x="241" y="413" type="curve"/>
      <point x="241" y="714" type="line"/>
      <point x="90" y="714" type="line"/>
      <point x="90" y="118" type="line" smooth="yes"/>
      <point x="90" y="32"/>
      <point x="108" y="0"/>
    </contour>
  </outline>
</glyph>
<glyph name="O-adlam" format="2">
  <advance width="766"/>
  <unicode hex="1E90C"/>
  <anchor x="384" y="0" name="bottom"/>
  <anchor x="399" y="663" name="top"/>
  <anchor x="434" y="587" name="vowellengthencomb-adlam.case"/>
  <outline>
    <contour>
      <point x="443" y="0" type="curve" smooth="yes"/>
      <point x="691" y="0" type="line"/>
      <point x="691" y="125" type="line"/>
      <point x="443" y="125" type="line" smooth="yes"/>
      <point x="341" y="125"/>
      <point x="226" y="159"/>
      <point x="226" y="362" type="curve" smooth="yes"/>
      <point x="226" y="532"/>
      <point x="298" y="599"/>
      <point x="394" y="599" type="curve" smooth="yes"/>
      <point x="499" y="599"/>
      <point x="541" y="511"/>
      <point x="560" y="471" type="curve"/>
      <point x="696" y="549" type="line"/>
      <point x="675" y="594"/>
      <point x="616" y="724"/>
      <point x="396" y="724" type="curve" smooth="yes"/>
      <point x="195" y="724"/>
      <point x="70" y="608"/>
      <point x="70" y="348" type="curve" smooth="yes"/>
      <point x="70" y="65"/>
      <point x="237" y="0"/>
    </contour>
  </outline>
</glyph>
<glyph name="U-adlam" format="2">
  <advance width="878"/>
  <unicode hex="1E913"/>
  <anchor x="479" y="578" name="vowellengthencomb-adlam.case"/>
  <outline>
    <contour>
      <point x="439" y="-10" type="curve" smooth="yes"/>
      <point x="714" y="-10"/>
      <point x="788" y="84"/>
      <point x="788" y="218" type="curve" smooth="yes"/>
      <point x="788" y="610" type="line" smooth="yes"/>
      <point x="788" y="700"/>
      <point x="743" y="719"/>
      <point x="680" y="719" type="curve" smooth="yes"/>
      <point x="605" y="719"/>
      <point x="584" y="723"/>
      <point x="566" y="728" type="curve"/>
      <point x="555" y="603" type="line"/>
      <point x="565" y="599"/>
      <point x="584" y="595"/>
      <point x="608" y="594" type="curve" smooth="yes"/>
      <point x="630" y="593"/>
      <point x="637" y="589"/>
      <point x="637" y="567" type="curve" smooth="yes"/>
      <point x="637" y="546" type="line" smooth="yes"/>
      <point x="637" y="510"/>
      <point x="621" y="502"/>
      <point x="583" y="476" type="curve" smooth="yes"/>
      <point x="555" y="457"/>
      <point x="545" y="450"/>
      <point x="532" y="438" type="curve"/>
      <point x="527" y="439" type="line"/>
      <point x="528" y="447"/>
      <point x="529" y="458"/>
      <point x="529" y="473" type="curve" smooth="yes"/>
      <point x="529" y="642"/>
      <point x="446" y="724"/>
      <point x="296" y="724" type="curve" smooth="yes"/>
      <point x="157" y="724"/>
      <point x="104" y="658"/>
      <point x="90" y="625" type="curve"/>
      <point x="90" y="218" type="line" smooth="yes"/>
      <point x="90" y="84"/>
      <point x="159" y="-10"/>
    </contour>
    <contour>
      <point x="439" y="115" type="curve" smooth="yes"/>
      <point x="276" y="115"/>
      <point x="241" y="171"/>
      <point x="241" y="282" type="curve" smooth="yes"/>
      <point x="241" y="578" type="line"/>
      <point x="249" y="588"/>
      <point x="265" y="599"/>
      <point x="292" y="599" type="curve" smooth="yes"/>
      <point x="330" y="599"/>
      <point x="378" y="571"/>
      <point x="378" y="458" type="curve" smooth="yes"/>
      <point x="378" y="345"/>
      <point x="333" y="276"/>
      <point x="302" y="243" type="curve"/>
      <point x="419" y="151" type="line"/>
      <point x="442" y="172"/>
      <point x="483" y="229"/>
      <point x="501" y="278" type="curve" smooth="yes"/>
      <point x="517" y="321"/>
      <point x="530" y="331"/>
      <point x="571" y="359" type="curve" smooth="yes"/>
      <point x="604" y="382"/>
      <point x="618" y="392"/>
      <point x="632" y="404" type="curve"/>
      <point x="637" y="403" type="line"/>
      <point x="637" y="282" type="line" smooth="yes"/>
      <point x="637" y="171"/>
      <point x="613" y="115"/>
    </contour>
  </outline>
</glyph>
<glyph name="Va-adlam" format="2">
  <advance width="709"/>
  <unicode hex="1E91C"/>
  <anchor x="355" y="663" name="top"/>
  <outline>
    <contour>
      <point x="90" y="0" type="line"/>
      <point x="241" y="0" type="line"/>
      <point x="241" y="531" type="line" smooth="yes"/>
      <point x="241" y="573"/>
      <point x="250" y="589"/>
      <point x="290" y="589" type="curve" smooth="yes"/>
      <point x="468" y="589" type="line"/>
      <point x="468" y="400" type="line"/>
      <point x="316" y="400" type="line"/>
      <point x="316" y="275" type="line"/>
      <point x="468" y="275" type="line"/>
      <point x="468" y="0" type="line"/>
      <point x="619" y="0" type="line"/>
      <point x="619" y="714" type="line"/>
      <point x="202" y="714" type="line" smooth="yes"/>
      <point x="108" y="714"/>
      <point x="90" y="682"/>
      <point x="90" y="596" type="curve" smooth="yes"/>
    </contour>
  </outline>
</glyph>
<glyph name="Kha-adlam" format="2">
  <advance width="773"/>
  <unicode hex="1E91D"/>
  <anchor x="431" y="663" name="top"/>
  <outline>
    <contour>
      <point x="90" y="0" type="line"/>
      <point x="241" y="0" type="line"/>
      <point x="241" y="288" type="line"/>
      <point x="366" y="288" type="line"/>
      <point x="366" y="118" type="line" smooth="yes"/>
      <point x="366" y="32"/>
      <point x="384" y="0"/>
      <point x="478" y="0" type="curve" smooth="yes"/>
      <point x="743" y="0" type="line"/>
      <point x="743" y="125" type="line"/>
      <point x="567" y="125" type="line" smooth="yes"/>
      <point x="526" y="125"/>
      <point x="517" y="141"/>
      <point x="517" y="183" type="curve" smooth="yes"/>
      <point x="517" y="288" type="line"/>
      <point x="668" y="288" type="line"/>
      <point x="668" y="413" type="line"/>
      <point x="517" y="413" type="line"/>
      <point x="517" y="522" type="line"/>
      <point x="366" y="522" type="line"/>
      <point x="366" y="413" type="line"/>
      <point x="241" y="413" type="line"/>
      <point x="241" y="530" type="line" smooth="yes"/>
      <point x="241" y="573"/>
      <point x="250" y="589"/>
      <point x="291" y="589" type="curve" smooth="yes"/>
      <point x="743" y="589" type="line"/>
      <point x="743" y="714" type="line"/>
      <point x="202" y="714" type="line" smooth="yes"/>
      <point x="108" y="714"/>
      <point x="90" y="683"/>
      <point x="90" y="597" type="curve" smooth="yes"/>
    </contour>
  </outline>
</glyph>
<glyph name="Gbe-adlam" format="2">
  <advance width="714"/>
  <unicode hex="1E91E"/>
  <anchor x="377" y="663" name="top"/>
  <outline>
    <contour>
      <point x="90" y="0" type="line"/>
      <point x="241" y="0" type="line"/>
      <point x="241" y="135" type="line"/>
      <point x="297" y="135" type="line"/>
      <point x="305" y="49"/>
      <point x="377" y="0"/>
      <point x="496" y="0" type="curve" smooth="yes"/>
      <point x="653" y="0" type="line"/>
      <point x="653" y="125" type="line"/>
      <point x="544" y="125" type="line" smooth="yes"/>
      <point x="476" y="125"/>
      <point x="451" y="148"/>
      <point x="451" y="189" type="curve" smooth="yes"/>
      <point x="451" y="233"/>
      <point x="476" y="268"/>
      <point x="543" y="335" type="curve" smooth="yes"/>
      <point x="617" y="411"/>
      <point x="659" y="457"/>
      <point x="659" y="546" type="curve" smooth="yes"/>
      <point x="659" y="683"/>
      <point x="557" y="714"/>
      <point x="418" y="714" type="curve" smooth="yes"/>
      <point x="90" y="714" type="line"/>
      <point x="90" y="589" type="line"/>
      <point x="388" y="589" type="line" smooth="yes"/>
      <point x="476" y="589"/>
      <point x="503" y="568"/>
      <point x="503" y="524" type="curve" smooth="yes"/>
      <point x="503" y="485"/>
      <point x="479" y="457"/>
      <point x="420" y="399" type="curve" smooth="yes"/>
      <point x="347" y="328"/>
      <point x="313" y="279"/>
      <point x="303" y="236" type="curve"/>
      <point x="241" y="236" type="line"/>
      <point x="241" y="510" type="line"/>
      <point x="90" y="510" type="line"/>
    </contour>
  </outline>
</glyph>
<glyph name="sinnyiiyhe-adlam" format="2">
  <advance width="907"/>
  <unicode hex="1E927"/>
  <anchor x="455" y="2" name="bottom"/>
  <anchor x="457" y="575" name="gemconsonanttop"/>
  <anchor x="453" y="575" name="top"/>
  <outline>
    <contour>
      <point x="285" y="-10" type="curve" smooth="yes"/>
      <point x="390" y="-10"/>
      <point x="431" y="27"/>
      <point x="450" y="73" type="curve"/>
      <point x="456" y="73" type="line"/>
      <point x="478" y="27"/>
      <point x="514" y="-10"/>
      <point x="613" y="-10" type="curve" smooth="yes"/>
      <point x="736" y="-10"/>
      <point x="817" y="41"/>
      <point x="817" y="196" type="curve" smooth="yes"/>
      <point x="817" y="585" type="line"/>
      <point x="668" y="585" type="line"/>
      <point x="668" y="196" type="line" smooth="yes"/>
      <point x="668" y="141"/>
      <point x="645" y="110"/>
      <point x="598" y="110" type="curve" smooth="yes"/>
      <point x="551" y="110"/>
      <point x="528" y="141"/>
      <point x="528" y="196" type="curve" smooth="yes"/>
      <point x="528" y="585" type="line"/>
      <point x="379" y="585" type="line"/>
      <point x="379" y="196" type="line" smooth="yes"/>
      <point x="379" y="141"/>
      <point x="356" y="110"/>
      <point x="309" y="110" type="curve" smooth="yes"/>
      <point x="262" y="110"/>
      <point x="239" y="141"/>
      <point x="239" y="196" type="curve" smooth="yes"/>
      <point x="239" y="676" type="line"/>
      <point x="90" y="676" type="line"/>
      <point x="90" y="196" type="line" smooth="yes"/>
      <point x="90" y="38"/>
      <point x="164" y="-10"/>
    </contour>
  </outline>
</glyph>
<glyph name="bhe-adlam" format="2">
  <advance width="602"/>
  <unicode hex="1E929"/>
  <anchor x="298" y="591" name="top"/>
  <outline>
    <contour>
      <point x="59" y="0" type="line"/>
      <point x="396" y="0" type="line" smooth="yes"/>
      <point x="500" y="0"/>
      <point x="512" y="27"/>
      <point x="512" y="119" type="curve" smooth="yes"/>
      <point x="512" y="433" type="line"/>
      <point x="363" y="433" type="line"/>
      <point x="363" y="332" type="line"/>
      <point x="346" y="318"/>
      <point x="307" y="305"/>
      <point x="271" y="305" type="curve" smooth="yes"/>
      <point x="235" y="305"/>
      <point x="207" y="318"/>
      <point x="207" y="355" type="curve" smooth="yes"/>
      <point x="207" y="396"/>
      <point x="239" y="419"/>
      <point x="324" y="459" type="curve" smooth="yes"/>
      <point x="417" y="503"/>
      <point x="472" y="532"/>
      <point x="510" y="574" type="curve"/>
      <point x="428" y="667" type="line"/>
      <point x="395" y="631"/>
      <point x="349" y="601"/>
      <point x="246" y="552" type="curve" smooth="yes"/>
      <point x="140" y="500"/>
      <point x="55" y="460"/>
      <point x="55" y="342" type="curve" smooth="yes"/>
      <point x="55" y="228"/>
      <point x="122" y="185"/>
      <point x="226" y="185" type="curve" smooth="yes"/>
      <point x="291" y="185"/>
      <point x="336" y="202"/>
      <point x="357" y="222" type="curve"/>
      <point x="363" y="221" type="line"/>
      <point x="363" y="186" type="line" smooth="yes"/>
      <point x="363" y="132"/>
      <point x="355" y="120"/>
      <point x="300" y="120" type="curve" smooth="yes"/>
      <point x="59" y="120" type="line"/>
    </contour>
  </outline>
</glyph>
<glyph name="u-adlam" format="2">
  <advance width="767"/>
  <unicode hex="1E935"/>
  <anchor x="390" y="575" name="top"/>
  <outline>
    <contour>
      <point x="373" y="-10" type="curve" smooth="yes"/>
      <point x="593" y="-10"/>
      <point x="677" y="63"/>
      <point x="677" y="236" type="curve" smooth="yes"/>
      <point x="677" y="585" type="line"/>
      <point x="538" y="585" type="line"/>
      <point x="538" y="458" type="line" smooth="yes"/>
      <point x="538" y="432"/>
      <point x="528" y="426"/>
      <point x="504" y="412" type="curve" smooth="yes"/>
      <point x="485" y="401"/>
      <point x="477" y="396"/>
      <point x="467" y="388" type="curve"/>
      <point x="464" y="390" type="line"/>
      <point x="451" y="533"/>
      <point x="389" y="595"/>
      <point x="267" y="595" type="curve" smooth="yes"/>
      <point x="178" y="595"/>
      <point x="112" y="556"/>
      <point x="80" y="506" type="curve"/>
      <point x="80" y="243" type="line" smooth="yes"/>
      <point x="80" y="69"/>
      <point x="164" y="-10"/>
    </contour>
    <contour>
      <point x="253" y="133" type="curve"/>
      <point x="238" y="145"/>
      <point x="219" y="164"/>
      <point x="219" y="238" type="curve" smooth="yes"/>
      <point x="219" y="459" type="line"/>
      <point x="225" y="466"/>
      <point x="240" y="475"/>
      <point x="265" y="475" type="curve" smooth="yes"/>
      <point x="313" y="475"/>
      <point x="331" y="441"/>
      <point x="331" y="342" type="curve" smooth="yes"/>
      <point x="331" y="202"/>
      <point x="274" y="145"/>
    </contour>
    <contour>
      <point x="369" y="105" type="curve" smooth="yes"/>
      <point x="361" y="105"/>
      <point x="353" y="105"/>
      <point x="345" y="106" type="curve"/>
      <point x="344" y="114" type="line"/>
      <point x="383" y="137"/>
      <point x="425" y="183"/>
      <point x="446" y="242" type="curve" smooth="yes"/>
      <point x="461" y="285"/>
      <point x="471" y="298"/>
      <point x="505" y="320" type="curve" smooth="yes"/>
      <point x="516" y="327"/>
      <point x="526" y="333"/>
      <point x="535" y="339" type="curve"/>
      <point x="538" y="338" type="line"/>
      <point x="538" y="238" type="line" smooth="yes"/>
      <point x="538" y="157"/>
      <point x="512" y="105"/>
    </contour>
  </outline>
</glyph>
<glyph name="kpo-adlam" format="2">
  <advance width="658"/>
  <unicode hex="1E942"/>
  <anchor x="363" y="572" name="top"/>
  <outline>
    <contour>
      <point x="206" y="0" type="curve" smooth="yes"/>
      <point x="580" y="0" type="line"/>
      <point x="580" y="120" type="line"/>
      <point x="302" y="120" type="line" smooth="yes"/>
      <point x="246" y="120"/>
      <point x="239" y="132"/>
      <point x="239" y="186" type="curve" smooth="yes"/>
      <point x="239" y="400" type="line"/>
      <point x="251" y="435"/>
      <point x="289" y="475"/>
      <point x="354" y="475" type="curve" smooth="yes"/>
      <point x="406" y="475"/>
      <point x="441" y="445"/>
      <point x="441" y="383" type="curve" smooth="yes"/>
      <point x="441" y="320"/>
      <point x="400" y="302"/>
      <point x="363" y="302" type="curve" smooth="yes"/>
      <point x="338" y="302"/>
      <point x="323" y="307"/>
      <point x="316" y="311" type="curve"/>
      <point x="280" y="201" type="line"/>
      <point x="295" y="192"/>
      <point x="323" y="182"/>
      <point x="379" y="182" type="curve" smooth="yes"/>
      <point x="483" y="182"/>
      <point x="593" y="234"/>
      <point x="593" y="399" type="curve" smooth="yes"/>
      <point x="593" y="538"/>
      <point x="509" y="595"/>
      <point x="405" y="595" type="curve" smooth="yes"/>
      <point x="293" y="595"/>
      <point x="261" y="543"/>
      <point x="248" y="519" type="curve"/>
      <point x="239" y="522" type="line"/>
      <point x="239" y="585" type="line"/>
      <point x="90" y="585" type="line"/>
      <point x="90" y="119" type="line" smooth="yes"/>
      <point x="90" y="27"/>
      <point x="102" y="0"/>
    </contour>
  </outline>
</glyph>
<glyph name="aliflengthencomb-adlam" format="2">
  <unicode hex="1E944"/>
  <anchor x="50" y="610" name="_topAlif"/>
  <outline>
    <contour>
      <point x="267" y="590" type="line"/>
      <point x="400" y="590" type="line"/>
      <point x="400" y="624" type="line"/>
      <point x="544" y="768" type="line"/>
      <point x="469" y="840" type="line"/>
      <point x="458" y="828" type="line" smooth="yes"/>
      <point x="437" y="805"/>
      <point x="415" y="779"/>
      <point x="400" y="758" type="curve"/>
      <point x="395" y="758" type="line"/>
      <point x="391" y="801"/>
      <point x="370" y="825"/>
      <point x="320" y="825" type="curve" smooth="yes"/>
      <point x="20" y="825" type="line"/>
      <point x="20" y="709" type="line"/>
      <point x="210" y="709" type="line" smooth="yes"/>
      <point x="251" y="709"/>
      <point x="267" y="698"/>
      <point x="267" y="657" type="curve" smooth="yes"/>
    </contour>
  </outline>
</glyph>
<glyph name="apostrophe-adlam" format="2">
  <advance width="192"/>
  <unicode hex="1E94B"/>
  <outline>
    <contour>
      <point x="30" y="431" type="line"/>
      <point x="162" y="431" type="line"/>
      <point x="172" y="714" type="line"/>
      <point x="20" y="714" type="line"/>
    </contour>
  </outline>
</glyph>
<glyph name="Alif-adlam.init" format="2">
  <advance width="765"/>
  <anchor x="405" y="663" name="gemconsonanttop"/>
  <anchor x="391" y="663" name="top"/>
  <anchor x="345" y="739" name="topAlif"/>
  <outline>
    <contour>
      <point x="384" y="-10" type="curve" smooth="yes"/>
      <point x="602" y="-10"/>
      <point x="676" y="102"/>
      <point x="676" y="225" type="curve" smooth="yes"/>
      <point x="676" y="297"/>
      <point x="647" y="331"/>
      <point x="625" y="346" type="curve"/>
      <point x="625" y="351" type="line"/>
      <point x="650" y="355"/>
      <point x="695" y="371"/>
      <point x="710" y="382" type="curve"/>
      <point x="673" y="491" type="line"/>
      <point x="647" y="475"/>
      <point x="555" y="453"/>
      <point x="462" y="453" type="curve" smooth="yes"/>
      <point x="384" y="453"/>
      <point x="335" y="464"/>
      <point x="318" y="471" type="curve"/>
      <point x="299" y="348" type="line"/>
      <point x="311" y="343"/>
      <point x="363" y="333"/>
      <point x="416" y="328" type="curve" smooth="yes"/>
      <point x="474" y="323"/>
      <point x="520" y="302"/>
      <point x="520" y="225" type="curve" smooth="yes"/>
      <point x="520" y="154"/>
      <point x="474" y="115"/>
      <point x="384" y="115" type="curve" smooth="yes"/>
      <point x="292" y="115"/>
      <point x="241" y="154"/>
      <point x="241" y="277" type="curve" smooth="yes"/>
      <point x="241" y="531" type="line" smooth="yes"/>
      <point x="241" y="573"/>
      <point x="250" y="589"/>
      <point x="290" y="589" type="curve" smooth="yes"/>
      <point x="568" y="589" type="line"/>
      <point x="572" y="594" type="line"/>
      <point x="500" y="714" type="line"/>
      <point x="202" y="714" type="line" smooth="yes"/>
      <point x="108" y="714"/>
      <point x="90" y="682"/>
      <point x="90" y="596" type="curve" smooth="yes"/>
      <point x="90" y="178" type="line" smooth="yes"/>
      <point x="90" y="136"/>
      <point x="81" y="120"/>
      <point x="40" y="120" type="curve" smooth="yes"/>
      <point x="-40" y="120" type="line"/>
      <point x="-40" y="38" type="line" smooth="yes"/>
      <point x="-40" y="7"/>
      <point x="-25" y="0"/>
      <point x="0" y="0" type="curve" smooth="yes"/>
      <point x="92" y="0" type="line" smooth="yes"/>
      <point x="140" y="0"/>
      <point x="162" y="12"/>
      <point x="169" y="40" type="curve"/>
      <point x="175" y="40" type="line"/>
      <point x="218" y="9"/>
      <point x="284" y="-10"/>
    </contour>
  </outline>
</glyph>
<glyph name="Ba-adlam.medi" format="2">
  <advance width="840"/>
  <anchor x="416" y="663" name="top"/>
  <outline>
    <contour>
      <point x="0" y="0" type="curve" smooth="yes"/>
      <point x="127" y="0" type="line" smooth="yes"/>
      <point x="222" y="0"/>
      <point x="241" y="32"/>
      <point x="241" y="118" type="curve" smooth="yes"/>
      <point x="241" y="259" type="line"/>
      <point x="264" y="251"/>
      <point x="318" y="242"/>
      <point x="357" y="240" type="curve"/>
      <point x="357" y="118" type="line" smooth="yes"/>
      <point x="357" y="32"/>
      <point x="375" y="0"/>
      <point x="470" y="0" type="curve" smooth="yes"/>
      <point x="840" y="0" type="line" smooth="yes"/>
      <point x="865" y="0"/>
      <point x="880" y="7"/>
      <point x="880" y="38" type="curve" smooth="yes"/>
      <point x="880" y="120" type="line"/>
      <point x="557" y="120" type="line" smooth="yes"/>
      <point x="517" y="120"/>
      <point x="508" y="136"/>
      <point x="508" y="178" type="curve" smooth="yes"/>
      <point x="508" y="240" type="line"/>
      <point x="707" y="253"/>
      <point x="795" y="349"/>
      <point x="795" y="501" type="curve" smooth="yes"/>
      <point x="795" y="654"/>
      <point x="702" y="724"/>
      <point x="542" y="724" type="curve" smooth="yes"/>
      <point x="444" y="724"/>
      <point x="377" y="707"/>
      <point x="357" y="694" type="curve"/>
      <point x="357" y="365" type="line"/>
      <point x="321" y="368"/>
      <point x="265" y="379"/>
      <point x="241" y="389" type="curve"/>
      <point x="241" y="714" type="line"/>
      <point x="90" y="714" type="line"/>
      <point x="90" y="178" type="line" smooth="yes"/>
      <point x="90" y="136"/>
      <point x="81" y="120"/>
      <point x="40" y="120" type="curve" smooth="yes"/>
      <point x="-40" y="120" type="line"/>
      <point x="-40" y="38" type="line" smooth="yes"/>
      <point x="-40" y="7"/>
      <point x="-25" y="0"/>
    </contour>
    <contour>
      <point x="508" y="365" type="curve"/>
      <point x="508" y="594" type="line"/>
      <point x="515" y="597"/>
      <point x="526" y="599"/>
      <point x="542" y="599" type="curve" smooth="yes"/>
      <point x="591" y="599"/>
      <point x="639" y="571"/>
      <point x="639" y="490" type="curve" smooth="yes"/>
      <point x="639" y="411"/>
      <point x="603" y="372"/>
    </contour>
  </outline>
</glyph>
<glyph name="Bhe-adlam.medi" format="2">
  <advance width="718"/>
  <anchor x="365" y="663" name="top"/>
  <outline>
    <contour>
      <point x="0" y="0" type="curve" smooth="yes"/>
      <point x="245" y="0" type="line" smooth="yes"/>
      <point x="276" y="0"/>
      <point x="303" y="0"/>
      <point x="340" y="14" type="curve" smooth="yes"/>
      <point x="385" y="31"/>
      <point x="421" y="81"/>
      <point x="421" y="178" type="curve"/>
      <point x="429" y="198"/>
      <point x="456" y="226"/>
      <point x="472" y="233" type="curve"/>
      <point x="477" y="231" type="line"/>
      <point x="477" y="118" type="line" smooth="yes"/>
      <point x="477" y="32"/>
      <point x="496" y="0"/>
      <point x="591" y="0" type="curve" smooth="yes"/>
      <point x="718" y="0" type="line" smooth="yes"/>
      <point x="743" y="0"/>
      <point x="758" y="7"/>
      <point x="758" y="38" type="curve" smooth="yes"/>
      <point x="758" y="120" type="line"/>
      <point x="678" y="120" type="line" smooth="yes"/>
      <point x="637" y="120"/>
      <point x="628" y="136"/>
      <point x="628" y="178" type="curve" smooth="yes"/>
      <point x="628" y="516" type="line"/>
      <point x="477" y="516" type="line"/>
      <point x="477" y="341" type="line"/>
      <point x="456" y="333"/>
      <point x="418" y="306"/>
      <point x="404" y="281" type="curve"/>
      <point x="399" y="281" type="line"/>
      <point x="390" y="310"/>
      <point x="358" y="350"/>
      <point x="300" y="402" type="curve" smooth="yes"/>
      <point x="246" y="450"/>
      <point x="216" y="477"/>
      <point x="216" y="529" type="curve" smooth="yes"/>
      <point x="216" y="570"/>
      <point x="247" y="589"/>
      <point x="309" y="589" type="curve" smooth="yes"/>
      <point x="628" y="589" type="line"/>
      <point x="628" y="714" type="line"/>
      <point x="309" y="714" type="line" smooth="yes"/>
      <point x="136" y="714"/>
      <point x="60" y="656"/>
      <point x="60" y="527" type="curve" smooth="yes"/>
      <point x="60" y="419"/>
      <point x="109" y="379"/>
      <point x="173" y="321" type="curve" smooth="yes"/>
      <point x="250" y="252"/>
      <point x="268" y="229"/>
      <point x="268" y="181" type="curve" smooth="yes"/>
      <point x="268" y="129"/>
      <point x="244" y="120"/>
      <point x="199" y="120" type="curve" smooth="yes"/>
      <point x="-40" y="120" type="line"/>
      <point x="-40" y="38" type="line" smooth="yes"/>
      <point x="-40" y="7"/>
      <point x="-25" y="0"/>
    </contour>
  </outline>
</glyph>
<glyph name="Chi-adlam.isol" format="2">
  <advance width="770"/>
  <anchor x="392" y="663" name="top"/>
  <outline>
    <contour>
      <point x="369" y="0" type="curve" smooth="yes"/>
      <point x="458" y="0" type="line"/>
      <point x="458" y="125" type="line"/>
      <point x="369" y="125" type="line" smooth="yes"/>
      <point x="273" y="125"/>
      <point x="235" y="156"/>
      <point x="235" y="231" type="curve" smooth="yes"/>
      <point x="235" y="300"/>
      <point x="280" y="354"/>
      <point x="386" y="354" type="curve" smooth="yes"/>
      <point x="473" y="354"/>
      <point x="511" y="314"/>
      <point x="529" y="291" type="curve"/>
      <point x="529" y="0" type="line"/>
      <point x="680" y="0" type="line"/>
      <point x="680" y="597" type="line" smooth="yes"/>
      <point x="680" y="683"/>
      <point x="662" y="714"/>
      <point x="568" y="714" type="curve" smooth="yes"/>
      <point x="346" y="714" type="line"/>
      <point x="346" y="589" type="line"/>
      <point x="480" y="589" type="line" smooth="yes"/>
      <point x="520" y="589"/>
      <point x="529" y="573"/>
      <point x="529" y="533" type="curve" smooth="yes"/>
      <point x="529" y="438" type="line"/>
      <point x="525" y="436" type="line"/>
      <point x="504" y="454"/>
      <point x="481" y="471"/>
      <point x="377" y="483" type="curve" smooth="yes"/>
      <point x="274" y="495"/>
      <point x="249" y="517"/>
      <point x="249" y="638" type="curve" smooth="yes"/>
      <point x="249" y="743" type="line"/>
      <point x="98" y="743" type="line"/>
      <point x="98" y="616" type="line" smooth="yes"/>
      <point x="98" y="469"/>
      <point x="155" y="428"/>
      <point x="239" y="417" type="curve"/>
      <point x="239" y="411" type="line"/>
      <point x="158" y="392"/>
      <point x="80" y="330"/>
      <point x="80" y="213" type="curve" smooth="yes"/>
      <point x="80" y="52"/>
      <point x="170" y="0"/>
    </contour>
  </outline>
</glyph>
<glyph name="Daali-adlam.fina" format="2">
  <advance width="658"/>
  <anchor x="319" y="663" name="gemconsonanttop"/>
  <anchor x="315" y="663" name="top"/>
  <outline>
    <contour>
      <point x="55" y="0" type="line"/>
      <point x="455" y="0" type="line" smooth="yes"/>
      <point x="513" y="0"/>
      <point x="543" y="12"/>
      <point x="557" y="40" type="curve"/>
      <point x="563" y="40" type="line"/>
      <point x="572" y="12"/>
      <point x="595" y="0"/>
      <point x="618" y="0" type="curve" smooth="yes"/>
      <point x="658" y="0" type="line" smooth="yes"/>
      <point x="683" y="0"/>
      <point x="698" y="7"/>
      <point x="698" y="38" type="curve" smooth="yes"/>
      <point x="698" y="120" type="line"/>
      <point x="618" y="120" type="line" smooth="yes"/>
      <point x="577" y="120"/>
      <point x="568" y="136"/>
      <point x="568" y="178" type="curve" smooth="yes"/>
      <point x="568" y="714" type="line"/>
      <point x="417" y="714" type="line"/>
      <point x="417" y="333" type="line"/>
      <point x="412" y="331" type="line"/>
      <point x="400" y="342"/>
      <point x="380" y="349"/>
      <point x="309" y="366" type="curve" smooth="yes"/>
      <point x="231" y="385"/>
      <point x="212" y="398"/>
      <point x="212" y="483" type="curve" smooth="yes"/>
      <point x="212" y="714" type="line"/>
      <point x="61" y="714" type="line"/>
      <point x="61" y="453" type="line" smooth="yes"/>
      <point x="61" y="321"/>
      <point x="98" y="294"/>
      <point x="244" y="258" type="curve" smooth="yes"/>
      <point x="406" y="219"/>
      <point x="417" y="204"/>
      <point x="417" y="168" type="curve" smooth="yes"/>
      <point x="417" y="157" type="line" smooth="yes"/>
      <point x="417" y="121"/>
      <point x="408" y="120"/>
      <point x="367" y="120" type="curve" smooth="yes"/>
      <point x="55" y="120" type="line"/>
    </contour>
  </outline>
</glyph>
<glyph name="Daali-adlam.init" format="2">
  <advance width="658"/>
  <anchor x="319" y="663" name="gemconsonanttop"/>
  <anchor x="315" y="663" name="top"/>
  <outline>
    <contour>
      <point x="0" y="0" type="curve" smooth="yes"/>
      <point x="456" y="0" type="line" smooth="yes"/>
      <point x="550" y="0"/>
      <point x="568" y="32"/>
      <point x="568" y="118" type="curve" smooth="yes"/>
      <point x="568" y="714" type="line"/>
      <point x="417" y="714" type="line"/>
      <point x="417" y="333" type="line"/>
      <point x="412" y="331" type="line"/>
      <point x="400" y="342"/>
      <point x="380" y="349"/>
      <point x="309" y="366" type="curve" smooth="yes"/>
      <point x="231" y="385"/>
      <point x="212" y="398"/>
      <point x="212" y="483" type="curve" smooth="yes"/>
      <point x="212" y="714" type="line"/>
      <point x="61" y="714" type="line"/>
      <point x="61" y="453" type="line" smooth="yes"/>
      <point x="61" y="321"/>
      <point x="98" y="294"/>
      <point x="244" y="258" type="curve" smooth="yes"/>
      <point x="406" y="219"/>
      <point x="417" y="204"/>
      <point x="417" y="168" type="curve" smooth="yes"/>
      <point x="417" y="157" type="line" smooth="yes"/>
      <point x="417" y="121"/>
      <point x="408" y="120"/>
      <point x="368" y="120" type="curve" smooth="yes"/>
      <point x="-40" y="120" type="line"/>
      <point x="-40" y="38" type="line" smooth="yes"/>
      <point x="-40" y="7"/>
      <point x="-25" y="0"/>
    </contour>
  </outline>
</glyph>
<glyph name="Daali-adlam.isol" format="2">
  <advance width="658"/>
  <anchor x="319" y="663" name="gemconsonanttop"/>
  <anchor x="315" y="663" name="top"/>
  <outline>
    <contour>
      <point x="55" y="0" type="line"/>
      <point x="456" y="0" type="line" smooth="yes"/>
      <point x="550" y="0"/>
      <point x="568" y="32"/>
      <point x="568" y="118" type="curve" smooth="yes"/>
      <point x="568" y="714" type="line"/>
      <point x="417" y="714" type="line"/>
      <point x="417" y="333" type="line"/>
      <point x="412" y="331" type="line"/>
      <point x="400" y="342"/>
      <point x="380" y="349"/>
      <point x="309" y="366" type="curve" smooth="yes"/>
      <point x="231" y="385"/>
      <point x="212" y="398"/>
      <point x="212" y="483" type="curve" smooth="yes"/>
      <point x="212" y="714" type="line"/>
      <point x="61" y="714" type="line"/>
      <point x="61" y="453" type="line" smooth="yes"/>
      <point x="61" y="321"/>
      <point x="98" y="294"/>
      <point x="244" y="258" type="curve" smooth="yes"/>
      <point x="406" y="219"/>
      <point x="417" y="204"/>
      <point x="417" y="168" type="curve" smooth="yes"/>
      <point x="417" y="162" type="line" smooth="yes"/>
      <point x="417" y="126"/>
      <point x="408" y="125"/>
      <point x="368" y="125" type="curve" smooth="yes"/>
      <point x="55" y="125" type="line"/>
    </contour>
  </outline>
</glyph>
<glyph name="Dha-adlam.medi" format="2">
  <advance width="764"/>
  <anchor x="382" y="663" name="top"/>
  <outline>
    <contour>
      <point x="323" y="-15" type="curve" smooth="yes"/>
      <point x="451" y="-15"/>
      <point x="502" y="36"/>
      <point x="520" y="62" type="curve"/>
      <point x="528" y="61" type="line"/>
      <point x="538" y="17"/>
      <point x="567" y="0"/>
      <point x="637" y="0" type="curve" smooth="yes"/>
      <point x="764" y="0" type="line" smooth="yes"/>
      <point x="789" y="0"/>
      <point x="804" y="7"/>
      <point x="804" y="38" type="curve" smooth="yes"/>
      <point x="804" y="120" type="line"/>
      <point x="724" y="120" type="line" smooth="yes"/>
      <point x="683" y="120"/>
      <point x="674" y="136"/>
      <point x="674" y="178" type="curve" smooth="yes"/>
      <point x="674" y="605" type="line" smooth="yes"/>
      <point x="674" y="683"/>
      <point x="656" y="714"/>
      <point x="572" y="714" type="curve" smooth="yes"/>
      <point x="334" y="714" type="line"/>
      <point x="334" y="589" type="line"/>
      <point x="474" y="589" type="line" smooth="yes"/>
      <point x="514" y="589"/>
      <point x="523" y="573"/>
      <point x="523" y="530" type="curve" smooth="yes"/>
      <point x="523" y="431" type="line"/>
      <point x="518" y="429" type="line"/>
      <point x="505" y="450"/>
      <point x="468" y="491"/>
      <point x="382" y="491" type="curve" smooth="yes"/>
      <point x="299" y="491"/>
      <point x="264" y="457"/>
      <point x="246" y="436" type="curve"/>
      <point x="241" y="437" type="line"/>
      <point x="241" y="714" type="line"/>
      <point x="90" y="714" type="line"/>
      <point x="90" y="178" type="line" smooth="yes"/>
      <point x="90" y="136"/>
      <point x="81" y="120"/>
      <point x="40" y="120" type="curve" smooth="yes"/>
      <point x="-40" y="120" type="line"/>
      <point x="-40" y="38" type="line" smooth="yes"/>
      <point x="-40" y="7"/>
      <point x="-25" y="0"/>
      <point x="0" y="0" type="curve" smooth="yes"/>
      <point x="77" y="0" type="line" smooth="yes"/>
      <point x="129" y="0"/>
      <point x="149" y="17"/>
      <point x="157" y="40" type="curve"/>
      <point x="163" y="40" type="line"/>
      <point x="173" y="26"/>
      <point x="224" y="-15"/>
    </contour>
    <contour>
      <point x="382" y="110" type="curve" smooth="yes"/>
      <point x="296" y="110"/>
      <point x="241" y="158"/>
      <point x="241" y="255" type="curve" smooth="yes"/>
      <point x="241" y="288" type="line"/>
      <point x="261" y="322"/>
      <point x="302" y="366"/>
      <point x="387" y="366" type="curve" smooth="yes"/>
      <point x="478" y="366"/>
      <point x="515" y="321"/>
      <point x="523" y="272" type="curve"/>
      <point x="523" y="190" type="line"/>
      <point x="509" y="161"/>
      <point x="466" y="110"/>
    </contour>
  </outline>
</glyph>
<glyph name="E-adlam.fina" format="2">
  <advance width="779"/>
  <anchor x="398" y="0" name="bottom"/>
  <anchor x="398" y="666" name="top"/>
  <anchor x="419" y="602" name="vowellengthencomb-adlam.case"/>
  <outline>
    <contour>
      <point x="90" y="0" type="line"/>
      <point x="241" y="0" type="line"/>
      <point x="241" y="45" type="line"/>
      <point x="246" y="77"/>
      <point x="261" y="104"/>
      <point x="281" y="122" type="curve"/>
      <point x="286" y="122" type="line"/>
      <point x="290" y="42"/>
      <point x="339" y="0"/>
      <point x="447" y="0" type="curve" smooth="yes"/>
      <point x="523" y="0" type="line" smooth="yes"/>
      <point x="590" y="0"/>
      <point x="642" y="12"/>
      <point x="669" y="40" type="curve"/>
      <point x="675" y="40" type="line"/>
      <point x="682" y="14"/>
      <point x="700" y="0"/>
      <point x="739" y="0" type="curve" smooth="yes"/>
      <point x="779" y="0" type="line" smooth="yes"/>
      <point x="804" y="0"/>
      <point x="819" y="7"/>
      <point x="819" y="38" type="curve" smooth="yes"/>
      <point x="819" y="120" type="line"/>
      <point x="774" y="120" type="line" smooth="yes"/>
      <point x="733" y="120"/>
      <point x="724" y="136"/>
      <point x="724" y="155" type="curve" smooth="yes"/>
      <point x="724" y="269"/>
      <point x="642" y="314"/>
      <point x="553" y="324" type="curve"/>
      <point x="553" y="329" type="line"/>
      <point x="609" y="364"/>
      <point x="682" y="421"/>
      <point x="682" y="527" type="curve" smooth="yes"/>
      <point x="682" y="657"/>
      <point x="605" y="724"/>
      <point x="398" y="724" type="curve" smooth="yes"/>
      <point x="126" y="724"/>
      <point x="90" y="589"/>
      <point x="90" y="449" type="curve" smooth="yes"/>
    </contour>
    <contour>
      <point x="461" y="107" type="line" smooth="yes"/>
      <point x="421" y="107"/>
      <point x="402" y="131"/>
      <point x="402" y="169" type="curve" smooth="yes"/>
      <point x="402" y="213"/>
      <point x="429" y="242"/>
      <point x="451" y="257" type="curve"/>
      <point x="454" y="258"/>
      <point x="460" y="259"/>
      <point x="470" y="259" type="curve" smooth="yes"/>
      <point x="531" y="259"/>
      <point x="568" y="215"/>
      <point x="568" y="167" type="curve" smooth="yes"/>
      <point x="568" y="115"/>
      <point x="535" y="107"/>
      <point x="502" y="107" type="curve" smooth="yes"/>
    </contour>
    <contour>
      <point x="241" y="184" type="line"/>
      <point x="241" y="449" type="line" smooth="yes"/>
      <point x="241" y="541"/>
      <point x="256" y="599"/>
      <point x="400" y="599" type="curve" smooth="yes"/>
      <point x="496" y="599"/>
      <point x="526" y="560"/>
      <point x="526" y="508" type="curve" smooth="yes"/>
      <point x="526" y="455"/>
      <point x="509" y="431"/>
      <point x="427" y="376" type="curve" smooth="yes"/>
      <point x="338" y="318"/>
      <point x="312" y="277"/>
      <point x="298" y="242" type="curve"/>
      <point x="283" y="233"/>
      <point x="256" y="205"/>
      <point x="246" y="184" type="curve"/>
    </contour>
  </outline>
</glyph>
<glyph name="E-adlam.init" format="2">
  <advance width="779"/>
  <anchor x="398" y="0" name="bottom"/>
  <anchor x="398" y="666" name="top"/>
  <anchor x="419" y="602" name="vowellengthencomb-adlam.case"/>
  <outline>
    <contour>
      <point x="0" y="0" type="curve" smooth="yes"/>
      <point x="127" y="0" type="line" smooth="yes"/>
      <point x="213" y="0"/>
      <point x="237" y="26"/>
      <point x="240" y="85" type="curve"/>
      <point x="247" y="98"/>
      <point x="269" y="117"/>
      <point x="281" y="122" type="curve"/>
      <point x="286" y="122" type="line"/>
      <point x="290" y="42"/>
      <point x="339" y="0"/>
      <point x="447" y="0" type="curve" smooth="yes"/>
      <point x="523" y="0" type="line" smooth="yes"/>
      <point x="612" y="0"/>
      <point x="724" y="26"/>
      <point x="724" y="155" type="curve" smooth="yes"/>
      <point x="724" y="269"/>
      <point x="642" y="314"/>
      <point x="553" y="324" type="curve"/>
      <point x="553" y="329" type="line"/>
      <point x="609" y="364"/>
      <point x="682" y="421"/>
      <point x="682" y="527" type="curve" smooth="yes"/>
      <point x="682" y="657"/>
      <point x="605" y="724"/>
      <point x="398" y="724" type="curve" smooth="yes"/>
      <point x="126" y="724"/>
      <point x="90" y="589"/>
      <point x="90" y="449" type="curve" smooth="yes"/>
      <point x="90" y="178" type="line" smooth="yes"/>
      <point x="90" y="136"/>
      <point x="81" y="120"/>
      <point x="40" y="120" type="curve" smooth="yes"/>
      <point x="-40" y="120" type="line"/>
      <point x="-40" y="38" type="line" smooth="yes"/>
      <point x="-40" y="7"/>
      <point x="-25" y="0"/>
    </contour>
    <contour>
      <point x="461" y="107" type="line" smooth="yes"/>
      <point x="421" y="107"/>
      <point x="402" y="131"/>
      <point x="402" y="169" type="curve" smooth="yes"/>
      <point x="402" y="213"/>
      <point x="429" y="242"/>
      <point x="451" y="257" type="curve"/>
      <point x="454" y="258"/>
      <point x="460" y="259"/>
      <point x="470" y="259" type="curve" smooth="yes"/>
      <point x="531" y="259"/>
      <point x="568" y="215"/>
      <point x="568" y="167" type="curve" smooth="yes"/>
      <point x="568" y="115"/>
      <point x="535" y="107"/>
      <point x="502" y="107" type="curve" smooth="yes"/>
    </contour>
    <contour>
      <point x="241" y="202" type="line"/>
      <point x="241" y="449" type="line" smooth="yes"/>
      <point x="241" y="541"/>
      <point x="256" y="599"/>
      <point x="400" y="599" type="curve" smooth="yes"/>
      <point x="496" y="599"/>
      <point x="526" y="560"/>
      <point x="526" y="508" type="curve" smooth="yes"/>
      <point x="526" y="455"/>
      <point x="510" y="430"/>
      <point x="427" y="376" type="curve" smooth="yes"/>
      <point x="338" y="318"/>
      <point x="312" y="277"/>
      <point x="295" y="235" type="curve"/>
      <point x="281" y="230"/>
      <point x="256" y="215"/>
      <point x="246" y="202" type="curve"/>
    </contour>
  </outline>
</glyph>
<glyph name="Fa-adlam.fina" format="2">
  <advance width="699"/>
  <anchor x="354" y="663" name="top"/>
  <outline>
    <contour>
      <point x="90" y="0" type="line"/>
      <point x="241" y="0" type="line"/>
      <point x="241" y="265" type="line" smooth="yes"/>
      <point x="241" y="304"/>
      <point x="299" y="366"/>
      <point x="374" y="366" type="curve" smooth="yes"/>
      <point x="445" y="366"/>
      <point x="473" y="326"/>
      <point x="473" y="242" type="curve" smooth="yes"/>
      <point x="473" y="118" type="line" smooth="yes"/>
      <point x="473" y="32"/>
      <point x="492" y="0"/>
      <point x="587" y="0" type="curve" smooth="yes"/>
      <point x="699" y="0" type="line" smooth="yes"/>
      <point x="724" y="0"/>
      <point x="739" y="7"/>
      <point x="739" y="38" type="curve" smooth="yes"/>
      <point x="739" y="120" type="line"/>
      <point x="674" y="120" type="line" smooth="yes"/>
      <point x="633" y="120"/>
      <point x="624" y="136"/>
      <point x="624" y="178" type="curve" smooth="yes"/>
      <point x="624" y="281" type="line" smooth="yes"/>
      <point x="624" y="426"/>
      <point x="554" y="491"/>
      <point x="423" y="491" type="curve" smooth="yes"/>
      <point x="314" y="491"/>
      <point x="268" y="450"/>
      <point x="246" y="425" type="curve"/>
      <point x="241" y="426" type="line"/>
      <point x="241" y="531" type="line" smooth="yes"/>
      <point x="241" y="573"/>
      <point x="250" y="589"/>
      <point x="290" y="589" type="curve" smooth="yes"/>
      <point x="602" y="589" type="line"/>
      <point x="602" y="714" type="line"/>
      <point x="202" y="714" type="line" smooth="yes"/>
      <point x="108" y="714"/>
      <point x="90" y="682"/>
      <point x="90" y="596" type="curve" smooth="yes"/>
    </contour>
  </outline>
</glyph>
<glyph name="Fa-adlam.init" format="2">
  <advance width="699"/>
  <anchor x="354" y="663" name="top"/>
  <outline>
    <contour>
      <point x="473" y="-104" type="line"/>
      <point x="624" y="-104" type="line"/>
      <point x="624" y="281" type="line" smooth="yes"/>
      <point x="624" y="426"/>
      <point x="554" y="491"/>
      <point x="423" y="491" type="curve" smooth="yes"/>
      <point x="314" y="491"/>
      <point x="268" y="450"/>
      <point x="246" y="425" type="curve"/>
      <point x="241" y="426" type="line"/>
      <point x="241" y="531" type="line" smooth="yes"/>
      <point x="241" y="573"/>
      <point x="250" y="589"/>
      <point x="290" y="589" type="curve" smooth="yes"/>
      <point x="602" y="589" type="line"/>
      <point x="602" y="714" type="line"/>
      <point x="202" y="714" type="line" smooth="yes"/>
      <point x="108" y="714"/>
      <point x="90" y="682"/>
      <point x="90" y="596" type="curve" smooth="yes"/>
      <point x="90" y="178" type="line" smooth="yes"/>
      <point x="90" y="136"/>
      <point x="81" y="120"/>
      <point x="40" y="120" type="curve" smooth="yes"/>
      <point x="-40" y="120" type="line"/>
      <point x="-40" y="38" type="line" smooth="yes"/>
      <point x="-40" y="7"/>
      <point x="-25" y="0"/>
      <point x="0" y="0" type="curve" smooth="yes"/>
      <point x="127" y="0" type="line" smooth="yes"/>
      <point x="222" y="0"/>
      <point x="241" y="32"/>
      <point x="241" y="118" type="curve" smooth="yes"/>
      <point x="241" y="265" type="line" smooth="yes"/>
      <point x="241" y="304"/>
      <point x="299" y="366"/>
      <point x="374" y="366" type="curve" smooth="yes"/>
      <point x="445" y="366"/>
      <point x="473" y="326"/>
      <point x="473" y="242" type="curve" smooth="yes"/>
    </contour>
  </outline>
</glyph>
<glyph name="Ga-adlam.fina" format="2">
  <advance width="680"/>
  <anchor x="350" y="663" name="gemconsonanttop"/>
  <anchor x="337" y="663" name="top"/>
  <outline>
    <contour>
      <point x="65" y="0" type="line"/>
      <point x="372" y="0" type="line" smooth="yes"/>
      <point x="494" y="0"/>
      <point x="537" y="26"/>
      <point x="553" y="40" type="curve"/>
      <point x="559" y="40" type="line"/>
      <point x="562" y="24"/>
      <point x="575" y="0"/>
      <point x="621" y="0" type="curve" smooth="yes"/>
      <point x="680" y="0" type="line" smooth="yes"/>
      <point x="705" y="0"/>
      <point x="720" y="7"/>
      <point x="720" y="38" type="curve" smooth="yes"/>
      <point x="720" y="120" type="line"/>
      <point x="664" y="120" type="line" smooth="yes"/>
      <point x="623" y="120"/>
      <point x="614" y="136"/>
      <point x="614" y="178" type="curve" smooth="yes"/>
      <point x="614" y="202" type="line" smooth="yes"/>
      <point x="614" y="323"/>
      <point x="540" y="376"/>
      <point x="485" y="391" type="curve"/>
      <point x="485" y="396" type="line"/>
      <point x="535" y="409"/>
      <point x="605" y="457"/>
      <point x="605" y="556" type="curve" smooth="yes"/>
      <point x="605" y="675"/>
      <point x="540" y="714"/>
      <point x="388" y="714" type="curve" smooth="yes"/>
      <point x="328" y="714" type="line"/>
      <point x="328" y="589" type="line"/>
      <point x="372" y="589" type="line" smooth="yes"/>
      <point x="432" y="589"/>
      <point x="449" y="563"/>
      <point x="449" y="521" type="curve" smooth="yes"/>
      <point x="449" y="477"/>
      <point x="422" y="434"/>
      <point x="299" y="434" type="curve" smooth="yes"/>
      <point x="228" y="434"/>
      <point x="226" y="450"/>
      <point x="226" y="498" type="curve"/>
      <point x="225" y="714" type="line"/>
      <point x="74" y="714" type="line"/>
      <point x="74" y="448" type="line" smooth="yes"/>
      <point x="74" y="323"/>
      <point x="80" y="309"/>
      <point x="261" y="309" type="curve" smooth="yes"/>
      <point x="428" y="309"/>
      <point x="458" y="277"/>
      <point x="458" y="211" type="curve" smooth="yes"/>
      <point x="458" y="150"/>
      <point x="435" y="120"/>
      <point x="367" y="120" type="curve" smooth="yes"/>
      <point x="65" y="120" type="line"/>
    </contour>
  </outline>
</glyph>
<glyph name="Ga-adlam.isol" format="2">
  <advance width="680"/>
  <anchor x="350" y="663" name="gemconsonanttop"/>
  <anchor x="337" y="663" name="top"/>
  <outline>
    <contour>
      <point x="65" y="0" type="line"/>
      <point x="372" y="0" type="line" smooth="yes"/>
      <point x="553" y="0"/>
      <point x="614" y="52"/>
      <point x="614" y="202" type="curve" smooth="yes"/>
      <point x="614" y="323"/>
      <point x="540" y="376"/>
      <point x="485" y="391" type="curve"/>
      <point x="485" y="396" type="line"/>
      <point x="535" y="409"/>
      <point x="605" y="457"/>
      <point x="605" y="556" type="curve" smooth="yes"/>
      <point x="605" y="675"/>
      <point x="540" y="714"/>
      <point x="388" y="714" type="curve" smooth="yes"/>
      <point x="328" y="714" type="line"/>
      <point x="328" y="589" type="line"/>
      <point x="372" y="589" type="line" smooth="yes"/>
      <point x="432" y="589"/>
      <point x="449" y="563"/>
      <point x="449" y="521" type="curve" smooth="yes"/>
      <point x="449" y="477"/>
      <point x="422" y="434"/>
      <point x="299" y="434" type="curve" smooth="yes"/>
      <point x="228" y="434"/>
      <point x="226" y="450"/>
      <point x="226" y="498" type="curve" smooth="yes"/>
      <point x="225" y="714" type="line"/>
      <point x="74" y="714" type="line"/>
      <point x="74" y="448" type="line" smooth="yes"/>
      <point x="74" y="323"/>
      <point x="80" y="309"/>
      <point x="261" y="309" type="curve" smooth="yes"/>
      <point x="428" y="309"/>
      <point x="458" y="277"/>
      <point x="458" y="211" type="curve" smooth="yes"/>
      <point x="458" y="155"/>
      <point x="435" y="125"/>
      <point x="367" y="125" type="curve" smooth="yes"/>
      <point x="65" y="125" type="line"/>
    </contour>
  </outline>
</glyph>
<glyph name="Gbe-adlam.fina" format="2">
  <advance width="714"/>
  <anchor x="377" y="663" name="top"/>
  <outline>
    <contour>
      <point x="90" y="0" type="line"/>
      <point x="241" y="0" type="line"/>
      <point x="241" y="135" type="line"/>
      <point x="297" y="135" type="line"/>
      <point x="305" y="49"/>
      <point x="377" y="0"/>
      <point x="496" y="0" type="curve" smooth="yes"/>
      <point x="714" y="0" type="line" smooth="yes"/>
      <point x="739" y="0"/>
      <point x="754" y="7"/>
      <point x="754" y="38" type="curve" smooth="yes"/>
      <point x="754" y="120" type="line"/>
      <point x="544" y="120" type="line" smooth="yes"/>
      <point x="476" y="120"/>
      <point x="451" y="143"/>
      <point x="451" y="189" type="curve" smooth="yes"/>
      <point x="451" y="233"/>
      <point x="476" y="268"/>
      <point x="543" y="335" type="curve" smooth="yes"/>
      <point x="617" y="411"/>
      <point x="659" y="457"/>
      <point x="659" y="546" type="curve" smooth="yes"/>
      <point x="659" y="683"/>
      <point x="557" y="714"/>
      <point x="418" y="714" type="curve" smooth="yes"/>
      <point x="90" y="714" type="line"/>
      <point x="90" y="589" type="line"/>
      <point x="388" y="589" type="line" smooth="yes"/>
      <point x="476" y="589"/>
      <point x="503" y="568"/>
      <point x="503" y="524" type="curve" smooth="yes"/>
      <point x="503" y="485"/>
      <point x="479" y="457"/>
      <point x="420" y="399" type="curve" smooth="yes"/>
      <point x="347" y="328"/>
      <point x="313" y="279"/>
      <point x="303" y="236" type="curve"/>
      <point x="241" y="236" type="line"/>
      <point x="241" y="510" type="line"/>
      <point x="90" y="510" type="line"/>
    </contour>
  </outline>
</glyph>
<glyph name="Gbe-adlam.init" format="2">
  <advance width="714"/>
  <anchor x="377" y="663" name="top"/>
  <outline>
    <contour>
      <point x="0" y="0" type="curve" smooth="yes"/>
      <point x="127" y="0" type="line" smooth="yes"/>
      <point x="222" y="0"/>
      <point x="241" y="32"/>
      <point x="241" y="118" type="curve" smooth="yes"/>
      <point x="241" y="135" type="line"/>
      <point x="297" y="135" type="line"/>
      <point x="305" y="49"/>
      <point x="377" y="0"/>
      <point x="496" y="0" type="curve" smooth="yes"/>
      <point x="653" y="0" type="line"/>
      <point x="653" y="120" type="line"/>
      <point x="544" y="120" type="line" smooth="yes"/>
      <point x="476" y="120"/>
      <point x="451" y="143"/>
      <point x="451" y="189" type="curve" smooth="yes"/>
      <point x="451" y="233"/>
      <point x="476" y="268"/>
      <point x="543" y="335" type="curve" smooth="yes"/>
      <point x="617" y="411"/>
      <point x="659" y="457"/>
      <point x="659" y="546" type="curve" smooth="yes"/>
      <point x="659" y="683"/>
      <point x="557" y="714"/>
      <point x="418" y="714" type="curve" smooth="yes"/>
      <point x="90" y="714" type="line"/>
      <point x="90" y="589" type="line"/>
      <point x="388" y="589" type="line" smooth="yes"/>
      <point x="476" y="589"/>
      <point x="503" y="568"/>
      <point x="503" y="524" type="curve" smooth="yes"/>
      <point x="503" y="485"/>
      <point x="479" y="457"/>
      <point x="420" y="399" type="curve" smooth="yes"/>
      <point x="347" y="328"/>
      <point x="313" y="279"/>
      <point x="303" y="236" type="curve"/>
      <point x="241" y="236" type="line"/>
      <point x="241" y="510" type="line"/>
      <point x="90" y="510" type="line"/>
      <point x="90" y="178" type="line" smooth="yes"/>
      <point x="90" y="136"/>
      <point x="81" y="120"/>
      <point x="40" y="120" type="curve" smooth="yes"/>
      <point x="-40" y="120" type="line"/>
      <point x="-40" y="38" type="line" smooth="yes"/>
      <point x="-40" y="7"/>
      <point x="-25" y="0"/>
    </contour>
  </outline>
</glyph>
<glyph name="Ha-adlam.fina" format="2">
  <advance width="680"/>
  <anchor x="342" y="663" name="gemconsonanttop"/>
  <anchor x="346" y="663" name="top"/>
  <outline>
    <contour>
      <point x="75" y="0" type="line"/>
      <point x="317" y="0" type="line" smooth="yes"/>
      <point x="448" y="0"/>
      <point x="508" y="36"/>
      <point x="525" y="48" type="curve"/>
      <point x="531" y="48" type="line"/>
      <point x="535" y="26"/>
      <point x="548" y="0"/>
      <point x="601" y="0" type="curve" smooth="yes"/>
      <point x="680" y="0" type="line" smooth="yes"/>
      <point x="705" y="0"/>
      <point x="720" y="7"/>
      <point x="720" y="38" type="curve" smooth="yes"/>
      <point x="720" y="120" type="line"/>
      <point x="653" y="120" type="line" smooth="yes"/>
      <point x="621" y="120"/>
      <point x="612" y="131"/>
      <point x="612" y="155" type="curve" smooth="yes"/>
      <point x="612" y="179"/>
      <point x="620" y="214"/>
      <point x="620" y="260" type="curve" smooth="yes"/>
      <point x="620" y="463"/>
      <point x="518" y="531"/>
      <point x="323" y="531" type="curve" smooth="yes"/>
      <point x="277" y="531" type="line" smooth="yes"/>
      <point x="236" y="531"/>
      <point x="227" y="547"/>
      <point x="227" y="589" type="curve" smooth="yes"/>
      <point x="227" y="714" type="line"/>
      <point x="76" y="714" type="line"/>
      <point x="76" y="524" type="line" smooth="yes"/>
      <point x="76" y="438"/>
      <point x="94" y="406"/>
      <point x="189" y="406" type="curve" smooth="yes"/>
      <point x="277" y="406" type="line" smooth="yes"/>
      <point x="388" y="406"/>
      <point x="464" y="368"/>
      <point x="464" y="260" type="curve" smooth="yes"/>
      <point x="464" y="167"/>
      <point x="419" y="120"/>
      <point x="287" y="120" type="curve" smooth="yes"/>
      <point x="75" y="120" type="line"/>
    </contour>
  </outline>
</glyph>
<glyph name="Ha-adlam.isol" format="2">
  <advance width="680"/>
  <anchor x="342" y="663" name="gemconsonanttop"/>
  <anchor x="346" y="663" name="top"/>
  <outline>
    <contour>
      <point x="75" y="0" type="line"/>
      <point x="303" y="0" type="line" smooth="yes"/>
      <point x="518" y="0"/>
      <point x="620" y="72"/>
      <point x="620" y="265" type="curve" smooth="yes"/>
      <point x="620" y="463"/>
      <point x="518" y="531"/>
      <point x="323" y="531" type="curve" smooth="yes"/>
      <point x="277" y="531" type="line" smooth="yes"/>
      <point x="236" y="531"/>
      <point x="227" y="547"/>
      <point x="227" y="589" type="curve" smooth="yes"/>
      <point x="227" y="714" type="line"/>
      <point x="76" y="714" type="line"/>
      <point x="76" y="524" type="line" smooth="yes"/>
      <point x="76" y="438"/>
      <point x="94" y="406"/>
      <point x="189" y="406" type="curve" smooth="yes"/>
      <point x="277" y="406" type="line" smooth="yes"/>
      <point x="388" y="406"/>
      <point x="464" y="368"/>
      <point x="464" y="260" type="curve" smooth="yes"/>
      <point x="464" y="172"/>
      <point x="419" y="125"/>
      <point x="287" y="125" type="curve" smooth="yes"/>
      <point x="75" y="125" type="line"/>
    </contour>
  </outline>
</glyph>
<glyph name="I-adlam.fina" format="2">
  <advance width="835"/>
  <anchor x="470" y="557" name="vowellengthencomb-adlam.case"/>
  <outline>
    <contour>
      <point x="417" y="-10" type="curve" smooth="yes"/>
      <point x="548" y="-10"/>
      <point x="626" y="16"/>
      <point x="648" y="40" type="curve"/>
      <point x="654" y="40" type="line"/>
      <point x="664" y="14"/>
      <point x="690" y="0"/>
      <point x="742" y="0" type="curve" smooth="yes"/>
      <point x="835" y="0" type="line" smooth="yes"/>
      <point x="860" y="0"/>
      <point x="875" y="7"/>
      <point x="875" y="38" type="curve" smooth="yes"/>
      <point x="875" y="120" type="line"/>
      <point x="795" y="120" type="line" smooth="yes"/>
      <point x="754" y="120"/>
      <point x="745" y="136"/>
      <point x="745" y="178" type="curve" smooth="yes"/>
      <point x="745" y="714" type="line"/>
      <point x="594" y="714" type="line"/>
      <point x="594" y="282" type="line" smooth="yes"/>
      <point x="594" y="160"/>
      <point x="552" y="115"/>
      <point x="423" y="115" type="curve" smooth="yes"/>
      <point x="294" y="115"/>
      <point x="241" y="160"/>
      <point x="241" y="282" type="curve" smooth="yes"/>
      <point x="241" y="714" type="line"/>
      <point x="90" y="714" type="line"/>
      <point x="90" y="253" type="line" smooth="yes"/>
      <point x="90" y="57"/>
      <point x="193" y="-10"/>
    </contour>
  </outline>
</glyph>
<glyph name="I-adlam.init" format="2">
  <advance width="835"/>
  <anchor x="470" y="557" name="vowellengthencomb-adlam.case"/>
  <outline>
    <contour>
      <point x="417" y="-10" type="curve" smooth="yes"/>
      <point x="642" y="-10"/>
      <point x="745" y="57"/>
      <point x="745" y="253" type="curve" smooth="yes"/>
      <point x="745" y="714" type="line"/>
      <point x="594" y="714" type="line"/>
      <point x="594" y="282" type="line" smooth="yes"/>
      <point x="594" y="160"/>
      <point x="552" y="115"/>
      <point x="423" y="115" type="curve" smooth="yes"/>
      <point x="294" y="115"/>
      <point x="241" y="160"/>
      <point x="241" y="282" type="curve" smooth="yes"/>
      <point x="241" y="714" type="line"/>
      <point x="90" y="714" type="line"/>
      <point x="90" y="178" type="line" smooth="yes"/>
      <point x="90" y="136"/>
      <point x="81" y="120"/>
      <point x="40" y="120" type="curve" smooth="yes"/>
      <point x="-40" y="120" type="line"/>
      <point x="-40" y="38" type="line" smooth="yes"/>
      <point x="-40" y="7"/>
      <point x="-25" y="0"/>
      <point x="0" y="0" type="curve" smooth="yes"/>
      <point x="95" y="0" type="line" smooth="yes"/>
      <point x="148" y="0"/>
      <point x="170" y="16"/>
      <point x="177" y="40" type="curve"/>
      <point x="183" y="40" type="line"/>
      <point x="207" y="21"/>
      <point x="269" y="-10"/>
    </contour>
  </outline>
</glyph>
<glyph name="I-adlam.isol" format="2">
  <advance width="835"/>
  <anchor x="470" y="557" name="vowellengthencomb-adlam.case"/>
  <outline>
    <contour>
      <point x="417" y="-10" type="curve" smooth="yes"/>
      <point x="642" y="-10"/>
      <point x="745" y="57"/>
      <point x="745" y="253" type="curve" smooth="yes"/>
      <point x="745" y="714" type="line"/>
      <point x="594" y="714" type="line"/>
      <point x="594" y="282" type="line" smooth="yes"/>
      <point x="594" y="160"/>
      <point x="552" y="115"/>
      <point x="423" y="115" type="curve" smooth="yes"/>
      <point x="294" y="115"/>
      <point x="241" y="160"/>
      <point x="241" y="282" type="curve" smooth="yes"/>
      <point x="241" y="714" type="line"/>
      <point x="90" y="714" type="line"/>
      <point x="90" y="253" type="line" smooth="yes"/>
      <point x="90" y="57"/>
      <point x="193" y="-10"/>
    </contour>
  </outline>
</glyph>
<glyph name="Jiim-adlam.init" format="2">
  <advance width="942"/>
  <anchor x="448" y="0" name="bottom"/>
  <anchor x="494" y="665" name="gemconsonanttop"/>
  <anchor x="503" y="665" name="top"/>
  <outline>
    <contour>
      <point x="791" y="-52" type="line"/>
      <point x="843" y="-6"/>
      <point x="852" y="51"/>
      <point x="852" y="138" type="curve" smooth="yes"/>
      <point x="852" y="477" type="line" smooth="yes"/>
      <point x="852" y="615"/>
      <point x="795" y="688"/>
      <point x="664" y="688" type="curve" smooth="yes"/>
      <point x="572" y="688"/>
      <point x="526" y="649"/>
      <point x="517" y="637" type="curve"/>
      <point x="512" y="637" type="line"/>
      <point x="502" y="658"/>
      <point x="450" y="724"/>
      <point x="315" y="724" type="curve" smooth="yes"/>
      <point x="129" y="724"/>
      <point x="75" y="630"/>
      <point x="75" y="494" type="curve" smooth="yes"/>
      <point x="75" y="270" type="line"/>
      <point x="226" y="270" type="line"/>
      <point x="226" y="484" type="line" smooth="yes"/>
      <point x="226" y="578"/>
      <point x="258" y="599"/>
      <point x="305" y="599" type="curve" smooth="yes"/>
      <point x="352" y="599"/>
      <point x="383" y="578"/>
      <point x="383" y="484" type="curve" smooth="yes"/>
      <point x="383" y="188" type="line" smooth="yes"/>
      <point x="383" y="141"/>
      <point x="362" y="120"/>
      <point x="297" y="120" type="curve" smooth="yes"/>
      <point x="-40" y="120" type="line"/>
      <point x="-40" y="38" type="line" smooth="yes"/>
      <point x="-40" y="7"/>
      <point x="-25" y="0"/>
      <point x="0" y="0" type="curve" smooth="yes"/>
      <point x="358" y="0" type="line" smooth="yes"/>
      <point x="498" y="0"/>
      <point x="534" y="42"/>
      <point x="534" y="146" type="curve" smooth="yes"/>
      <point x="534" y="445" type="line" smooth="yes"/>
      <point x="534" y="532"/>
      <point x="565" y="563"/>
      <point x="618" y="563" type="curve" smooth="yes"/>
      <point x="671" y="563"/>
      <point x="701" y="532"/>
      <point x="701" y="445" type="curve" smooth="yes"/>
      <point x="701" y="138" type="line" smooth="yes"/>
      <point x="701" y="80"/>
      <point x="683" y="33"/>
      <point x="663" y="15" type="curve"/>
    </contour>
  </outline>
</glyph>
<glyph name="Jiim-adlam.isol" format="2">
  <advance width="942"/>
  <anchor x="448" y="0" name="bottom"/>
  <anchor x="494" y="665" name="gemconsonanttop"/>
  <anchor x="503" y="665" name="top"/>
  <outline>
    <contour>
      <point x="791" y="-52" type="line"/>
      <point x="843" y="-6"/>
      <point x="852" y="51"/>
      <point x="852" y="138" type="curve" smooth="yes"/>
      <point x="852" y="477" type="line" smooth="yes"/>
      <point x="852" y="615"/>
      <point x="795" y="688"/>
      <point x="664" y="688" type="curve" smooth="yes"/>
      <point x="572" y="688"/>
      <point x="526" y="649"/>
      <point x="517" y="637" type="curve"/>
      <point x="512" y="637" type="line"/>
      <point x="502" y="658"/>
      <point x="450" y="724"/>
      <point x="315" y="724" type="curve" smooth="yes"/>
      <point x="129" y="724"/>
      <point x="75" y="630"/>
      <point x="75" y="494" type="curve" smooth="yes"/>
      <point x="75" y="270" type="line"/>
      <point x="226" y="270" type="line"/>
      <point x="226" y="484" type="line" smooth="yes"/>
      <point x="226" y="578"/>
      <point x="258" y="599"/>
      <point x="305" y="599" type="curve" smooth="yes"/>
      <point x="352" y="599"/>
      <point x="383" y="578"/>
      <point x="383" y="484" type="curve" smooth="yes"/>
      <point x="383" y="193" type="line" smooth="yes"/>
      <point x="383" y="146"/>
      <point x="362" y="125"/>
      <point x="297" y="125" type="curve" smooth="yes"/>
      <point x="75" y="125" type="line"/>
      <point x="75" y="0" type="line"/>
      <point x="358" y="0" type="line" smooth="yes"/>
      <point x="498" y="0"/>
      <point x="534" y="42"/>
      <point x="534" y="146" type="curve" smooth="yes"/>
      <point x="534" y="445" type="line" smooth="yes"/>
      <point x="534" y="532"/>
      <point x="565" y="563"/>
      <point x="618" y="563" type="curve" smooth="yes"/>
      <point x="671" y="563"/>
      <point x="701" y="532"/>
      <point x="701" y="445" type="curve" smooth="yes"/>
      <point x="701" y="138" type="line" smooth="yes"/>
      <point x="701" y="80"/>
      <point x="683" y="33"/>
      <point x="663" y="15" type="curve"/>
    </contour>
  </outline>
</glyph>
<glyph name="Kaf-adlam.fina" format="2">
  <advance width="804"/>
  <anchor x="363" y="663" name="top"/>
  <outline>
    <contour>
      <point x="30" y="0" type="line"/>
      <point x="312" y="0" type="line" smooth="yes"/>
      <point x="406" y="0"/>
      <point x="424" y="32"/>
      <point x="424" y="118" type="curve" smooth="yes"/>
      <point x="424" y="286" type="line"/>
      <point x="563" y="286" type="line"/>
      <point x="563" y="118" type="line" smooth="yes"/>
      <point x="563" y="32"/>
      <point x="582" y="0"/>
      <point x="677" y="0" type="curve" smooth="yes"/>
      <point x="804" y="0" type="line" smooth="yes"/>
      <point x="829" y="0"/>
      <point x="844" y="7"/>
      <point x="844" y="38" type="curve" smooth="yes"/>
      <point x="844" y="120" type="line"/>
      <point x="764" y="120" type="line" smooth="yes"/>
      <point x="723" y="120"/>
      <point x="714" y="136"/>
      <point x="714" y="178" type="curve" smooth="yes"/>
      <point x="714" y="597" type="line" smooth="yes"/>
      <point x="714" y="683"/>
      <point x="696" y="714"/>
      <point x="602" y="714" type="curve" smooth="yes"/>
      <point x="30" y="714" type="line"/>
      <point x="30" y="594" type="line"/>
      <point x="513" y="594" type="line" smooth="yes"/>
      <point x="554" y="594"/>
      <point x="563" y="578"/>
      <point x="563" y="535" type="curve" smooth="yes"/>
      <point x="563" y="406" type="line"/>
      <point x="424" y="406" type="line"/>
      <point x="424" y="522" type="line"/>
      <point x="273" y="522" type="line"/>
      <point x="273" y="406" type="line"/>
      <point x="122" y="406" type="line"/>
      <point x="122" y="286" type="line"/>
      <point x="273" y="286" type="line"/>
      <point x="273" y="178" type="line" smooth="yes"/>
      <point x="273" y="136"/>
      <point x="264" y="120"/>
      <point x="223" y="120" type="curve" smooth="yes"/>
      <point x="30" y="120" type="line"/>
    </contour>
  </outline>
</glyph>
<glyph name="Kaf-adlam.isol" format="2">
  <advance width="804"/>
  <anchor x="363" y="663" name="top"/>
  <outline>
    <contour>
      <point x="30" y="0" type="line"/>
      <point x="312" y="0" type="line" smooth="yes"/>
      <point x="406" y="0"/>
      <point x="424" y="32"/>
      <point x="424" y="118" type="curve" smooth="yes"/>
      <point x="424" y="286" type="line"/>
      <point x="563" y="286" type="line"/>
      <point x="563" y="0" type="line"/>
      <point x="714" y="0" type="line"/>
      <point x="714" y="597" type="line" smooth="yes"/>
      <point x="714" y="683"/>
      <point x="696" y="714"/>
      <point x="602" y="714" type="curve" smooth="yes"/>
      <point x="30" y="714" type="line"/>
      <point x="30" y="589" type="line"/>
      <point x="513" y="589" type="line" smooth="yes"/>
      <point x="554" y="589"/>
      <point x="563" y="573"/>
      <point x="563" y="530" type="curve" smooth="yes"/>
      <point x="563" y="411" type="line"/>
      <point x="424" y="411" type="line"/>
      <point x="424" y="522" type="line"/>
      <point x="273" y="522" type="line"/>
      <point x="273" y="411" type="line"/>
      <point x="122" y="411" type="line"/>
      <point x="122" y="286" type="line"/>
      <point x="273" y="286" type="line"/>
      <point x="273" y="183" type="line" smooth="yes"/>
      <point x="273" y="141"/>
      <point x="264" y="125"/>
      <point x="223" y="125" type="curve" smooth="yes"/>
      <point x="30" y="125" type="line"/>
    </contour>
  </outline>
</glyph>
<glyph name="Kha-adlam.init" format="2">
  <advance width="773"/>
  <anchor x="431" y="663" name="top"/>
  <outline>
    <contour>
      <point x="0" y="0" type="curve" smooth="yes"/>
      <point x="127" y="0" type="line" smooth="yes"/>
      <point x="222" y="0"/>
      <point x="241" y="32"/>
      <point x="241" y="118" type="curve" smooth="yes"/>
      <point x="241" y="288" type="line"/>
      <point x="366" y="288" type="line"/>
      <point x="366" y="118" type="line" smooth="yes"/>
      <point x="366" y="32"/>
      <point x="384" y="0"/>
      <point x="478" y="0" type="curve" smooth="yes"/>
      <point x="743" y="0" type="line"/>
      <point x="743" y="120" type="line"/>
      <point x="567" y="120" type="line" smooth="yes"/>
      <point x="526" y="120"/>
      <point x="517" y="136"/>
      <point x="517" y="178" type="curve" smooth="yes"/>
      <point x="517" y="288" type="line"/>
      <point x="668" y="288" type="line"/>
      <point x="668" y="413" type="line"/>
      <point x="517" y="413" type="line"/>
      <point x="517" y="522" type="line"/>
      <point x="366" y="522" type="line"/>
      <point x="366" y="413" type="line"/>
      <point x="241" y="413" type="line"/>
      <point x="241" y="530" type="line" smooth="yes"/>
      <point x="241" y="573"/>
      <point x="250" y="589"/>
      <point x="291" y="589" type="curve" smooth="yes"/>
      <point x="743" y="589" type="line"/>
      <point x="743" y="714" type="line"/>
      <point x="202" y="714" type="line" smooth="yes"/>
      <point x="108" y="714"/>
      <point x="90" y="683"/>
      <point x="90" y="597" type="curve" smooth="yes"/>
      <point x="90" y="178" type="line" smooth="yes"/>
      <point x="90" y="136"/>
      <point x="81" y="120"/>
      <point x="40" y="120" type="curve" smooth="yes"/>
      <point x="-40" y="120" type="line"/>
      <point x="-40" y="38" type="line" smooth="yes"/>
      <point x="-40" y="7"/>
      <point x="-25" y="0"/>
    </contour>
  </outline>
</glyph>
<glyph name="Kpo-adlam.fina" format="2">
  <advance width="701"/>
  <anchor x="369" y="663" name="top"/>
  <outline>
    <contour>
      <point x="202" y="0" type="curve" smooth="yes"/>
      <point x="701" y="0" type="line" smooth="yes"/>
      <point x="726" y="0"/>
      <point x="741" y="7"/>
      <point x="741" y="38" type="curve" smooth="yes"/>
      <point x="741" y="120" type="line"/>
      <point x="290" y="120" type="line" smooth="yes"/>
      <point x="250" y="120"/>
      <point x="241" y="136"/>
      <point x="241" y="178" type="curve" smooth="yes"/>
      <point x="241" y="563" type="line"/>
      <point x="263" y="587"/>
      <point x="306" y="604"/>
      <point x="364" y="604" type="curve" smooth="yes"/>
      <point x="447" y="604"/>
      <point x="500" y="565"/>
      <point x="500" y="477" type="curve" smooth="yes"/>
      <point x="500" y="391"/>
      <point x="453" y="361"/>
      <point x="392" y="361" type="curve" smooth="yes"/>
      <point x="363" y="361"/>
      <point x="342" y="367"/>
      <point x="329" y="378" type="curve"/>
      <point x="284" y="263" type="line"/>
      <point x="297" y="252"/>
      <point x="338" y="236"/>
      <point x="394" y="236" type="curve" smooth="yes"/>
      <point x="522" y="236"/>
      <point x="656" y="291"/>
      <point x="656" y="482" type="curve" smooth="yes"/>
      <point x="656" y="670"/>
      <point x="531" y="729"/>
      <point x="369" y="729" type="curve" smooth="yes"/>
      <point x="205" y="729"/>
      <point x="120" y="669"/>
      <point x="90" y="634" type="curve"/>
      <point x="90" y="118" type="line" smooth="yes"/>
      <point x="90" y="32"/>
      <point x="108" y="0"/>
    </contour>
  </outline>
</glyph>
<glyph name="Left_connector" format="2">
  <advance width="613"/>
  <outline>
    <contour>
      <point x="100" y="0" type="line"/>
      <point x="399" y="0" type="line" smooth="yes"/>
      <point x="494" y="0"/>
      <point x="513" y="32"/>
      <point x="513" y="118" type="curve" smooth="yes"/>
      <point x="513" y="714" type="line"/>
      <point x="362" y="714" type="line"/>
      <point x="362" y="178" type="line" smooth="yes"/>
      <point x="362" y="136"/>
      <point x="353" y="120"/>
      <point x="312" y="120" type="curve" smooth="yes"/>
      <point x="100" y="120" type="line"/>
    </contour>
  </outline>
</glyph>
<glyph name="Miim-adlam.isol" format="2">
  <advance width="669"/>
  <anchor x="327" y="663" name="top"/>
  <outline>
    <contour>
      <point x="40" y="0" type="line"/>
      <point x="372" y="0" type="line" smooth="yes"/>
      <point x="535" y="0"/>
      <point x="604" y="49"/>
      <point x="604" y="178" type="curve" smooth="yes"/>
      <point x="604" y="310"/>
      <point x="535" y="372"/>
      <point x="368" y="422" type="curve" smooth="yes"/>
      <point x="215" y="468"/>
      <point x="191" y="488"/>
      <point x="191" y="538" type="curve" smooth="yes"/>
      <point x="191" y="579"/>
      <point x="231" y="599"/>
      <point x="322" y="599" type="curve" smooth="yes"/>
      <point x="407" y="599"/>
      <point x="448" y="576"/>
      <point x="448" y="520" type="curve" smooth="yes"/>
      <point x="448" y="490"/>
      <point x="434" y="472"/>
      <point x="423" y="459" type="curve"/>
      <point x="545" y="396" type="line"/>
      <point x="565" y="414"/>
      <point x="604" y="456"/>
      <point x="604" y="538" type="curve" smooth="yes"/>
      <point x="604" y="651"/>
      <point x="539" y="724"/>
      <point x="331" y="724" type="curve" smooth="yes"/>
      <point x="128" y="724"/>
      <point x="35" y="662"/>
      <point x="35" y="535" type="curve" smooth="yes"/>
      <point x="35" y="401"/>
      <point x="107" y="363"/>
      <point x="244" y="320" type="curve" smooth="yes"/>
      <point x="407" y="269"/>
      <point x="450" y="238"/>
      <point x="450" y="178" type="curve" smooth="yes"/>
      <point x="450" y="141"/>
      <point x="429" y="125"/>
      <point x="372" y="125" type="curve" smooth="yes"/>
      <point x="40" y="125" type="line"/>
    </contour>
  </outline>
</glyph>
<glyph name="Nha-adlam.fina" format="2">
  <advance width="768"/>
  <anchor x="419" y="663" name="top"/>
  <outline>
    <contour>
      <point x="255" y="-32" type="curve"/>
      <point x="287" y="103" type="line"/>
      <point x="230" y="116"/>
      <point x="196" y="131"/>
      <point x="196" y="178" type="curve" smooth="yes"/>
      <point x="196" y="223"/>
      <point x="221" y="253"/>
      <point x="343" y="282" type="curve"/>
      <point x="343" y="118" type="line" smooth="yes"/>
      <point x="343" y="32"/>
      <point x="361" y="0"/>
      <point x="459" y="0" type="curve" smooth="yes"/>
      <point x="768" y="0" type="line" smooth="yes"/>
      <point x="793" y="0"/>
      <point x="808" y="7"/>
      <point x="808" y="38" type="curve" smooth="yes"/>
      <point x="808" y="120" type="line"/>
      <point x="534" y="120" type="line" smooth="yes"/>
      <point x="493" y="120"/>
      <point x="484" y="136"/>
      <point x="484" y="178" type="curve" smooth="yes"/>
      <point x="484" y="310" type="line"/>
      <point x="616" y="343"/>
      <point x="728" y="388"/>
      <point x="728" y="532" type="curve" smooth="yes"/>
      <point x="728" y="674"/>
      <point x="644" y="714"/>
      <point x="465" y="714" type="curve" smooth="yes"/>
      <point x="375" y="714" type="line" smooth="yes"/>
      <point x="204" y="714"/>
      <point x="113" y="646"/>
      <point x="91" y="606" type="curve"/>
      <point x="187" y="514" type="line"/>
      <point x="202" y="539"/>
      <point x="250" y="589"/>
      <point x="343" y="589" type="curve"/>
      <point x="343" y="406" type="line"/>
      <point x="173" y="368"/>
      <point x="40" y="316"/>
      <point x="40" y="173" type="curve" smooth="yes"/>
      <point x="40" y="39"/>
      <point x="136" y="-18"/>
    </contour>
    <contour>
      <point x="484" y="435" type="curve"/>
      <point x="484" y="589" type="line"/>
      <point x="530" y="589"/>
      <point x="572" y="577"/>
      <point x="572" y="519" type="curve" smooth="yes"/>
      <point x="572" y="467"/>
      <point x="543" y="449"/>
    </contour>
  </outline>
</glyph>
<glyph name="Nun-adlam.isol" format="2">
  <advance width="712"/>
  <anchor x="369" y="663" name="top"/>
  <outline>
    <contour>
      <point x="304" y="0" type="curve" smooth="yes"/>
      <point x="384" y="0" type="line"/>
      <point x="384" y="125" type="line"/>
      <point x="336" y="125" type="line" smooth="yes"/>
      <point x="264" y="125"/>
      <point x="211" y="144"/>
      <point x="211" y="208" type="curve" smooth="yes"/>
      <point x="211" y="268"/>
      <point x="269" y="290"/>
      <point x="400" y="332" type="curve" smooth="yes"/>
      <point x="542" y="377"/>
      <point x="627" y="405"/>
      <point x="627" y="538" type="curve" smooth="yes"/>
      <point x="627" y="662"/>
      <point x="557" y="714"/>
      <point x="403" y="714" type="curve" smooth="yes"/>
      <point x="340" y="714" type="line" smooth="yes"/>
      <point x="163" y="714"/>
      <point x="110" y="645"/>
      <point x="94" y="617" type="curve"/>
      <point x="211" y="531" type="line"/>
      <point x="226" y="558"/>
      <point x="264" y="589"/>
      <point x="340" y="589" type="curve" smooth="yes"/>
      <point x="401" y="589" type="line" smooth="yes"/>
      <point x="444" y="589"/>
      <point x="471" y="578"/>
      <point x="471" y="538" type="curve" smooth="yes"/>
      <point x="471" y="495"/>
      <point x="447" y="484"/>
      <point x="296" y="436" type="curve" smooth="yes"/>
      <point x="144" y="388"/>
      <point x="55" y="347"/>
      <point x="55" y="201" type="curve" smooth="yes"/>
      <point x="55" y="41"/>
      <point x="157" y="0"/>
    </contour>
    <contour>
      <point x="500" y="-15" type="curve"/>
      <point x="632" y="58" type="line"/>
      <point x="618" y="72"/>
      <point x="604" y="92"/>
      <point x="604" y="149" type="curve" smooth="yes"/>
      <point x="604" y="308" type="line"/>
      <point x="453" y="308" type="line"/>
      <point x="453" y="111" type="line" smooth="yes"/>
      <point x="453" y="35"/>
      <point x="484" y="-4"/>
    </contour>
  </outline>
</glyph>
<glyph name="Nya-adlam.isol" format="2">
  <advance width="733"/>
  <anchor x="384" y="663" name="top"/>
  <outline>
    <contour>
      <point x="527" y="-52" type="line"/>
      <point x="678" y="-52" type="line"/>
      <point x="678" y="209" type="line" smooth="yes"/>
      <point x="678" y="373"/>
      <point x="586" y="405"/>
      <point x="405" y="448" type="curve" smooth="yes"/>
      <point x="259" y="483"/>
      <point x="239" y="490"/>
      <point x="239" y="534" type="curve" smooth="yes"/>
      <point x="239" y="570"/>
      <point x="265" y="589"/>
      <point x="343" y="589" type="curve" smooth="yes"/>
      <point x="439" y="589" type="line" smooth="yes"/>
      <point x="527" y="589"/>
      <point x="554" y="563"/>
      <point x="568" y="543" type="curve"/>
      <point x="662" y="639" type="line"/>
      <point x="634" y="679"/>
      <point x="593" y="714"/>
      <point x="439" y="714" type="curve" smooth="yes"/>
      <point x="343" y="714" type="line" smooth="yes"/>
      <point x="175" y="714"/>
      <point x="83" y="656"/>
      <point x="83" y="525" type="curve" smooth="yes"/>
      <point x="83" y="432"/>
      <point x="139" y="388"/>
      <point x="189" y="365" type="curve"/>
      <point x="189" y="359" type="line"/>
      <point x="129" y="337"/>
      <point x="55" y="283"/>
      <point x="55" y="181" type="curve" smooth="yes"/>
      <point x="55" y="43"/>
      <point x="150" y="0"/>
      <point x="306" y="0" type="curve" smooth="yes"/>
      <point x="463" y="0" type="line"/>
      <point x="463" y="125" type="line"/>
      <point x="314" y="125" type="line" smooth="yes"/>
      <point x="235" y="125"/>
      <point x="211" y="150"/>
      <point x="211" y="199" type="curve" smooth="yes"/>
      <point x="211" y="260"/>
      <point x="262" y="307"/>
      <point x="330" y="325" type="curve"/>
      <point x="492" y="289"/>
      <point x="527" y="271"/>
      <point x="527" y="163" type="curve" smooth="yes"/>
    </contour>
  </outline>
</glyph>
<glyph name="O-adlam.fina" format="2">
  <advance width="835"/>
  <anchor x="374" y="0" name="bottom"/>
  <anchor x="389" y="663" name="top"/>
  <anchor x="424" y="587" name="vowellengthencomb-adlam.case"/>
  <outline>
    <contour>
      <point x="81" y="0" type="line"/>
      <point x="507" y="0" type="line"/>
      <point x="507" y="120" type="line"/>
      <point x="472" y="120" type="line" smooth="yes"/>
      <point x="339" y="120"/>
      <point x="226" y="189"/>
      <point x="226" y="388" type="curve" smooth="yes"/>
      <point x="226" y="541"/>
      <point x="307" y="604"/>
      <point x="413" y="604" type="curve" smooth="yes"/>
      <point x="517" y="604"/>
      <point x="580" y="546"/>
      <point x="580" y="402" type="curve" smooth="yes"/>
      <point x="580" y="118" type="line" smooth="yes"/>
      <point x="580" y="32"/>
      <point x="599" y="0"/>
      <point x="694" y="0" type="curve" smooth="yes"/>
      <point x="835" y="0" type="line" smooth="yes"/>
      <point x="860" y="0"/>
      <point x="875" y="7"/>
      <point x="875" y="38" type="curve" smooth="yes"/>
      <point x="875" y="120" type="line"/>
      <point x="781" y="120" type="line" smooth="yes"/>
      <point x="740" y="120"/>
      <point x="731" y="136"/>
      <point x="731" y="178" type="curve" smooth="yes"/>
      <point x="731" y="402" type="line" smooth="yes"/>
      <point x="731" y="635"/>
      <point x="621" y="729"/>
      <point x="415" y="729" type="curve" smooth="yes"/>
      <point x="204" y="729"/>
      <point x="70" y="614"/>
      <point x="70" y="388" type="curve" smooth="yes"/>
      <point x="70" y="222"/>
      <point x="140" y="153"/>
      <point x="176" y="125" type="curve"/>
      <point x="175" y="120" type="line"/>
      <point x="81" y="120" type="line"/>
    </contour>
  </outline>
</glyph>
<glyph name="Pe-adlam.init" format="2">
  <advance width="645"/>
  <anchor x="338" y="663" name="top"/>
  <outline>
    <contour>
      <point x="0" y="0" type="curve" smooth="yes"/>
      <point x="40" y="0" type="line" smooth="yes"/>
      <point x="63" y="0"/>
      <point x="86" y="12"/>
      <point x="95" y="40" type="curve"/>
      <point x="101" y="40" type="line"/>
      <point x="115" y="12"/>
      <point x="145" y="0"/>
      <point x="203" y="0" type="curve" smooth="yes"/>
      <point x="555" y="0" type="line"/>
      <point x="555" y="120" type="line"/>
      <point x="276" y="120" type="line" smooth="yes"/>
      <point x="249" y="120"/>
      <point x="241" y="131"/>
      <point x="241" y="155" type="curve" smooth="yes"/>
      <point x="241" y="589" type="line"/>
      <point x="249" y="593"/>
      <point x="268" y="599"/>
      <point x="298" y="599" type="curve" smooth="yes"/>
      <point x="367" y="599"/>
      <point x="429" y="550"/>
      <point x="429" y="435" type="curve" smooth="yes"/>
      <point x="429" y="340"/>
      <point x="379" y="293"/>
      <point x="344" y="260" type="curve"/>
      <point x="444" y="153" type="line"/>
      <point x="487" y="190"/>
      <point x="585" y="275"/>
      <point x="585" y="439" type="curve" smooth="yes"/>
      <point x="585" y="623"/>
      <point x="483" y="724"/>
      <point x="298" y="724" type="curve" smooth="yes"/>
      <point x="192" y="724"/>
      <point x="118" y="694"/>
      <point x="90" y="676" type="curve"/>
      <point x="90" y="178" type="line" smooth="yes"/>
      <point x="90" y="136"/>
      <point x="81" y="120"/>
      <point x="40" y="120" type="curve" smooth="yes"/>
      <point x="-40" y="120" type="line"/>
      <point x="-40" y="38" type="line" smooth="yes"/>
      <point x="-40" y="7"/>
      <point x="-25" y="0"/>
    </contour>
  </outline>
</glyph>
<glyph name="Qaaf-adlam.medi" format="2">
  <advance width="837"/>
  <anchor x="443" y="666" name="top"/>
  <outline>
    <contour>
      <point x="0" y="0" type="curve" smooth="yes"/>
      <point x="373" y="0" type="line" smooth="yes"/>
      <point x="467" y="0"/>
      <point x="485" y="32"/>
      <point x="485" y="118" type="curve" smooth="yes"/>
      <point x="485" y="257" type="line"/>
      <point x="516" y="258"/>
      <point x="578" y="269"/>
      <point x="596" y="276" type="curve"/>
      <point x="596" y="118" type="line" smooth="yes"/>
      <point x="596" y="32"/>
      <point x="615" y="0"/>
      <point x="710" y="0" type="curve" smooth="yes"/>
      <point x="837" y="0" type="line" smooth="yes"/>
      <point x="862" y="0"/>
      <point x="877" y="7"/>
      <point x="877" y="38" type="curve" smooth="yes"/>
      <point x="877" y="120" type="line"/>
      <point x="797" y="120" type="line" smooth="yes"/>
      <point x="756" y="120"/>
      <point x="747" y="136"/>
      <point x="747" y="178" type="curve" smooth="yes"/>
      <point x="747" y="714" type="line"/>
      <point x="596" y="714" type="line"/>
      <point x="596" y="403" type="line"/>
      <point x="575" y="393"/>
      <point x="515" y="383"/>
      <point x="485" y="382" type="curve"/>
      <point x="485" y="535" type="line" smooth="yes"/>
      <point x="485" y="658"/>
      <point x="432" y="724"/>
      <point x="292" y="724" type="curve" smooth="yes"/>
      <point x="154" y="724"/>
      <point x="45" y="649"/>
      <point x="45" y="501" type="curve" smooth="yes"/>
      <point x="45" y="348"/>
      <point x="131" y="262"/>
      <point x="334" y="252" type="curve"/>
      <point x="334" y="178" type="line" smooth="yes"/>
      <point x="334" y="136"/>
      <point x="325" y="120"/>
      <point x="285" y="120" type="curve" smooth="yes"/>
      <point x="-40" y="120" type="line"/>
      <point x="-40" y="38" type="line" smooth="yes"/>
      <point x="-40" y="7"/>
      <point x="-25" y="0"/>
    </contour>
    <contour>
      <point x="334" y="377" type="line"/>
      <point x="267" y="382"/>
      <point x="201" y="419"/>
      <point x="201" y="500" type="curve" smooth="yes"/>
      <point x="201" y="566"/>
      <point x="243" y="599"/>
      <point x="285" y="599" type="curve" smooth="yes"/>
      <point x="320" y="599"/>
      <point x="334" y="582"/>
      <point x="334" y="530" type="curve" smooth="yes"/>
    </contour>
  </outline>
</glyph>
<glyph name="Ra-adlam.fina" format="2">
  <advance width="731"/>
  <anchor x="380" y="663" name="top"/>
  <outline>
    <contour>
      <point x="203" y="0" type="curve" smooth="yes"/>
      <point x="402" y="0" type="line"/>
      <point x="402" y="120" type="line"/>
      <point x="291" y="120" type="line" smooth="yes"/>
      <point x="250" y="120"/>
      <point x="241" y="136"/>
      <point x="241" y="178" type="curve" smooth="yes"/>
      <point x="241" y="253" type="line"/>
      <point x="246" y="256" type="line"/>
      <point x="260" y="243"/>
      <point x="301" y="213"/>
      <point x="386" y="213" type="curve" smooth="yes"/>
      <point x="452" y="213"/>
      <point x="484" y="228"/>
      <point x="499" y="239" type="curve"/>
      <point x="505" y="235" type="line"/>
      <point x="505" y="118" type="line" smooth="yes"/>
      <point x="505" y="32"/>
      <point x="524" y="0"/>
      <point x="619" y="0" type="curve" smooth="yes"/>
      <point x="731" y="0" type="line" smooth="yes"/>
      <point x="756" y="0"/>
      <point x="771" y="7"/>
      <point x="771" y="38" type="curve" smooth="yes"/>
      <point x="771" y="120" type="line"/>
      <point x="706" y="120" type="line" smooth="yes"/>
      <point x="665" y="120"/>
      <point x="656" y="136"/>
      <point x="656" y="178" type="curve" smooth="yes"/>
      <point x="656" y="714" type="line"/>
      <point x="505" y="714" type="line"/>
      <point x="505" y="442" type="line" smooth="yes"/>
      <point x="505" y="360"/>
      <point x="452" y="338"/>
      <point x="386" y="338" type="curve" smooth="yes"/>
      <point x="296" y="338"/>
      <point x="258" y="377"/>
      <point x="241" y="403" type="curve"/>
      <point x="241" y="714" type="line"/>
      <point x="90" y="714" type="line"/>
      <point x="90" y="118" type="line" smooth="yes"/>
      <point x="90" y="32"/>
      <point x="108" y="0"/>
    </contour>
  </outline>
</glyph>
<glyph name="Ra-adlam.init" format="2">
  <advance width="731"/>
  <anchor x="380" y="663" name="top"/>
  <outline>
    <contour>
      <point x="0" y="0" type="curve" smooth="yes"/>
      <point x="40" y="0" type="line" smooth="yes"/>
      <point x="63" y="0"/>
      <point x="86" y="12"/>
      <point x="95" y="40" type="curve"/>
      <point x="101" y="40" type="line"/>
      <point x="115" y="12"/>
      <point x="145" y="0"/>
      <point x="203" y="0" type="curve" smooth="yes"/>
      <point x="656" y="0" type="line"/>
      <point x="656" y="120" type="line"/>
      <point x="290" y="120" type="line" smooth="yes"/>
      <point x="250" y="120"/>
      <point x="241" y="136"/>
      <point x="241" y="178" type="curve" smooth="yes"/>
      <point x="241" y="263" type="line"/>
      <point x="246" y="266" type="line"/>
      <point x="260" y="253"/>
      <point x="303" y="223"/>
      <point x="405" y="223" type="curve" smooth="yes"/>
      <point x="547" y="223"/>
      <point x="656" y="276"/>
      <point x="656" y="458" type="curve" smooth="yes"/>
      <point x="656" y="714" type="line"/>
      <point x="505" y="714" type="line"/>
      <point x="505" y="458" type="line" smooth="yes"/>
      <point x="505" y="381"/>
      <point x="471" y="348"/>
      <point x="382" y="348" type="curve" smooth="yes"/>
      <point x="296" y="348"/>
      <point x="257" y="390"/>
      <point x="241" y="413" type="curve"/>
      <point x="241" y="714" type="line"/>
      <point x="90" y="714" type="line"/>
      <point x="90" y="178" type="line" smooth="yes"/>
      <point x="90" y="136"/>
      <point x="81" y="120"/>
      <point x="40" y="120" type="curve" smooth="yes"/>
      <point x="-40" y="120" type="line"/>
      <point x="-40" y="38" type="line" smooth="yes"/>
      <point x="-40" y="7"/>
      <point x="-25" y="0"/>
    </contour>
  </outline>
</glyph>
<glyph name="Ra-adlam.medi" format="2">
  <advance width="731"/>
  <anchor x="380" y="663" name="top"/>
  <outline>
    <contour>
      <point x="0" y="0" type="curve" smooth="yes"/>
      <point x="40" y="0" type="line" smooth="yes"/>
      <point x="63" y="0"/>
      <point x="86" y="12"/>
      <point x="95" y="40" type="curve"/>
      <point x="101" y="40" type="line"/>
      <point x="115" y="12"/>
      <point x="145" y="0"/>
      <point x="203" y="0" type="curve" smooth="yes"/>
      <point x="402" y="0" type="line"/>
      <point x="402" y="120" type="line"/>
      <point x="291" y="120" type="line" smooth="yes"/>
      <point x="250" y="120"/>
      <point x="241" y="136"/>
      <point x="241" y="178" type="curve" smooth="yes"/>
      <point x="241" y="253" type="line"/>
      <point x="246" y="256" type="line"/>
      <point x="260" y="243"/>
      <point x="301" y="213"/>
      <point x="386" y="213" type="curve" smooth="yes"/>
      <point x="452" y="213"/>
      <point x="484" y="228"/>
      <point x="499" y="239" type="curve"/>
      <point x="505" y="235" type="line"/>
      <point x="505" y="118" type="line" smooth="yes"/>
      <point x="505" y="32"/>
      <point x="524" y="0"/>
      <point x="619" y="0" type="curve" smooth="yes"/>
      <point x="731" y="0" type="line" smooth="yes"/>
      <point x="756" y="0"/>
      <point x="771" y="7"/>
      <point x="771" y="38" type="curve" smooth="yes"/>
      <point x="771" y="120" type="line"/>
      <point x="706" y="120" type="line" smooth="yes"/>
      <point x="665" y="120"/>
      <point x="656" y="136"/>
      <point x="656" y="178" type="curve" smooth="yes"/>
      <point x="656" y="714" type="line"/>
      <point x="505" y="714" type="line"/>
      <point x="505" y="442" type="line" smooth="yes"/>
      <point x="505" y="360"/>
      <point x="452" y="338"/>
      <point x="386" y="338" type="curve" smooth="yes"/>
      <point x="296" y="338"/>
      <point x="258" y="377"/>
      <point x="241" y="403" type="curve"/>
      <point x="241" y="714" type="line"/>
      <point x="90" y="714" type="line"/>
      <point x="90" y="178" type="line" smooth="yes"/>
      <point x="90" y="136"/>
      <point x="81" y="120"/>
      <point x="40" y="120" type="curve" smooth="yes"/>
      <point x="-40" y="120" type="line"/>
      <point x="-40" y="38" type="line" smooth="yes"/>
      <point x="-40" y="7"/>
      <point x="-25" y="0"/>
    </contour>
  </outline>
</glyph>
<glyph name="Sha-adlam.fina" format="2">
  <advance width="894"/>
  <anchor x="460" y="663" name="top"/>
  <outline>
    <contour>
      <point x="302" y="-10" type="curve" smooth="yes"/>
      <point x="448" y="-10"/>
      <point x="518" y="42"/>
      <point x="518" y="183" type="curve" smooth="yes"/>
      <point x="518" y="264" type="line"/>
      <point x="653" y="264" type="line"/>
      <point x="653" y="118" type="line" smooth="yes"/>
      <point x="653" y="32"/>
      <point x="672" y="0"/>
      <point x="767" y="0" type="curve" smooth="yes"/>
      <point x="894" y="0" type="line" smooth="yes"/>
      <point x="919" y="0"/>
      <point x="934" y="7"/>
      <point x="934" y="38" type="curve" smooth="yes"/>
      <point x="934" y="120" type="line"/>
      <point x="854" y="120" type="line" smooth="yes"/>
      <point x="813" y="120"/>
      <point x="804" y="136"/>
      <point x="804" y="178" type="curve" smooth="yes"/>
      <point x="804" y="596" type="line" smooth="yes"/>
      <point x="804" y="682"/>
      <point x="787" y="714"/>
      <point x="693" y="714" type="curve" smooth="yes"/>
      <point x="367" y="714" type="line"/>
      <point x="367" y="589" type="line"/>
      <point x="604" y="589" type="line" smooth="yes"/>
      <point x="644" y="589"/>
      <point x="653" y="573"/>
      <point x="653" y="531" type="curve" smooth="yes"/>
      <point x="653" y="389" type="line"/>
      <point x="518" y="389" type="line"/>
      <point x="518" y="508" type="line"/>
      <point x="367" y="508" type="line"/>
      <point x="367" y="213" type="line" smooth="yes"/>
      <point x="367" y="138"/>
      <point x="344" y="115"/>
      <point x="302" y="115" type="curve" smooth="yes"/>
      <point x="260" y="115"/>
      <point x="248" y="128"/>
      <point x="241" y="138" type="curve"/>
      <point x="241" y="714" type="line"/>
      <point x="90" y="714" type="line"/>
      <point x="90" y="86" type="line"/>
      <point x="103" y="61"/>
      <point x="150" y="-10"/>
    </contour>
  </outline>
</glyph>
<glyph name="Sha-adlam.isol" format="2">
  <advance width="894"/>
  <anchor x="460" y="663" name="top"/>
  <outline>
    <contour>
      <point x="302" y="-10" type="curve" smooth="yes"/>
      <point x="448" y="-10"/>
      <point x="518" y="42"/>
      <point x="518" y="183" type="curve" smooth="yes"/>
      <point x="518" y="264" type="line"/>
      <point x="653" y="264" type="line"/>
      <point x="653" y="0" type="line"/>
      <point x="804" y="0" type="line"/>
      <point x="804" y="596" type="line" smooth="yes"/>
      <point x="804" y="682"/>
      <point x="787" y="714"/>
      <point x="693" y="714" type="curve" smooth="yes"/>
      <point x="367" y="714" type="line"/>
      <point x="367" y="589" type="line"/>
      <point x="604" y="589" type="line" smooth="yes"/>
      <point x="644" y="589"/>
      <point x="653" y="573"/>
      <point x="653" y="531" type="curve" smooth="yes"/>
      <point x="653" y="389" type="line"/>
      <point x="518" y="389" type="line"/>
      <point x="518" y="508" type="line"/>
      <point x="367" y="508" type="line"/>
      <point x="367" y="213" type="line" smooth="yes"/>
      <point x="367" y="138"/>
      <point x="344" y="115"/>
      <point x="302" y="115" type="curve" smooth="yes"/>
      <point x="260" y="115"/>
      <point x="248" y="128"/>
      <point x="241" y="138" type="curve"/>
      <point x="241" y="714" type="line"/>
      <point x="90" y="714" type="line"/>
      <point x="90" y="86" type="line"/>
      <point x="103" y="61"/>
      <point x="150" y="-10"/>
    </contour>
  </outline>
</glyph>
<glyph name="Sha-adlam.medi" format="2">
  <advance width="894"/>
  <anchor x="460" y="663" name="top"/>
  <outline>
    <contour>
      <point x="302" y="-10" type="curve" smooth="yes"/>
      <point x="448" y="-10"/>
      <point x="518" y="42"/>
      <point x="518" y="183" type="curve" smooth="yes"/>
      <point x="518" y="264" type="line"/>
      <point x="653" y="264" type="line"/>
      <point x="653" y="118" type="line" smooth="yes"/>
      <point x="653" y="32"/>
      <point x="672" y="0"/>
      <point x="767" y="0" type="curve" smooth="yes"/>
      <point x="894" y="0" type="line" smooth="yes"/>
      <point x="919" y="0"/>
      <point x="934" y="7"/>
      <point x="934" y="38" type="curve" smooth="yes"/>
      <point x="934" y="120" type="line"/>
      <point x="854" y="120" type="line" smooth="yes"/>
      <point x="813" y="120"/>
      <point x="804" y="136"/>
      <point x="804" y="178" type="curve" smooth="yes"/>
      <point x="804" y="596" type="line" smooth="yes"/>
      <point x="804" y="682"/>
      <point x="787" y="714"/>
      <point x="693" y="714" type="curve" smooth="yes"/>
      <point x="367" y="714" type="line"/>
      <point x="367" y="589" type="line"/>
      <point x="604" y="589" type="line" smooth="yes"/>
      <point x="644" y="589"/>
      <point x="653" y="573"/>
      <point x="653" y="531" type="curve" smooth="yes"/>
      <point x="653" y="389" type="line"/>
      <point x="518" y="389" type="line"/>
      <point x="518" y="508" type="line"/>
      <point x="367" y="508" type="line"/>
      <point x="367" y="213" type="line" smooth="yes"/>
      <point x="367" y="138"/>
      <point x="346" y="115"/>
      <point x="304" y="115" type="curve" smooth="yes"/>
      <point x="262" y="115"/>
      <point x="241" y="138"/>
      <point x="241" y="213" type="curve" smooth="yes"/>
      <point x="241" y="714" type="line"/>
      <point x="90" y="714" type="line"/>
      <point x="90" y="178" type="line" smooth="yes"/>
      <point x="90" y="136"/>
      <point x="81" y="120"/>
      <point x="40" y="120" type="curve" smooth="yes"/>
      <point x="-40" y="120" type="line"/>
      <point x="-40" y="38" type="line" smooth="yes"/>
      <point x="-40" y="7"/>
      <point x="-25" y="0"/>
      <point x="0" y="0" type="curve" smooth="yes"/>
      <point x="62" y="0" type="line" smooth="yes"/>
      <point x="116" y="0"/>
      <point x="129" y="22"/>
      <point x="133" y="40" type="curve"/>
      <point x="138" y="40" type="line"/>
      <point x="146" y="28"/>
      <point x="190" y="-10"/>
    </contour>
  </outline>
</glyph>
<glyph name="Sinnyiiyhe-adlam.isol" format="2">
  <advance width="953"/>
  <anchor x="464" y="0" name="bottom"/>
  <anchor x="474" y="663" name="gemconsonanttop"/>
  <anchor x="464" y="663" name="top"/>
  <outline>
    <contour>
      <point x="301" y="-10" type="curve" smooth="yes"/>
      <point x="393" y="-10"/>
      <point x="454" y="28"/>
      <point x="474" y="65" type="curve"/>
      <point x="479" y="65" type="line"/>
      <point x="499" y="28"/>
      <point x="551" y="-10"/>
      <point x="637" y="-10" type="curve" smooth="yes"/>
      <point x="754" y="-10"/>
      <point x="863" y="45"/>
      <point x="863" y="212" type="curve" smooth="yes"/>
      <point x="863" y="596" type="line" smooth="yes"/>
      <point x="863" y="682"/>
      <point x="845" y="714"/>
      <point x="751" y="714" type="curve" smooth="yes"/>
      <point x="401" y="714" type="line"/>
      <point x="401" y="589" type="line"/>
      <point x="663" y="589" type="line" smooth="yes"/>
      <point x="703" y="589"/>
      <point x="712" y="573"/>
      <point x="712" y="531" type="curve" smooth="yes"/>
      <point x="712" y="212" type="line" smooth="yes"/>
      <point x="712" y="144"/>
      <point x="683" y="116"/>
      <point x="632" y="116" type="curve" smooth="yes"/>
      <point x="578" y="116"/>
      <point x="552" y="144"/>
      <point x="552" y="212" type="curve" smooth="yes"/>
      <point x="552" y="496" type="line"/>
      <point x="401" y="496" type="line"/>
      <point x="401" y="212" type="line" smooth="yes"/>
      <point x="401" y="144"/>
      <point x="368" y="116"/>
      <point x="315" y="116" type="curve" smooth="yes"/>
      <point x="265" y="116"/>
      <point x="241" y="144"/>
      <point x="241" y="212" type="curve" smooth="yes"/>
      <point x="241" y="714" type="line"/>
      <point x="90" y="714" type="line"/>
      <point x="90" y="212" type="line" smooth="yes"/>
      <point x="90" y="45"/>
      <point x="174" y="-10"/>
    </contour>
  </outline>
</glyph>
<glyph name="Waw-adlam.isol" format="2">
  <advance width="709"/>
  <anchor x="366" y="663" name="top"/>
  <outline>
    <contour>
      <point x="90" y="0" type="line"/>
      <point x="241" y="0" type="line"/>
      <point x="241" y="275" type="line"/>
      <point x="270" y="275" type="line" smooth="yes"/>
      <point x="327" y="275"/>
      <point x="344" y="261"/>
      <point x="355" y="250" type="curve"/>
      <point x="422" y="361" type="line"/>
      <point x="411" y="374"/>
      <point x="388" y="400"/>
      <point x="315" y="400" type="curve" smooth="yes"/>
      <point x="241" y="400" type="line"/>
      <point x="241" y="531" type="line" smooth="yes"/>
      <point x="241" y="573"/>
      <point x="250" y="589"/>
      <point x="290" y="589" type="curve" smooth="yes"/>
      <point x="468" y="589" type="line"/>
      <point x="468" y="0" type="line"/>
      <point x="619" y="0" type="line"/>
      <point x="619" y="714" type="line"/>
      <point x="208" y="714" type="line" smooth="yes"/>
      <point x="108" y="714"/>
      <point x="90" y="682"/>
      <point x="90" y="596" type="curve" smooth="yes"/>
    </contour>
  </outline>
</glyph>
<glyph name="Waw-adlam.medi" format="2">
  <advance width="709"/>
  <anchor x="366" y="663" name="top"/>
  <outline>
    <contour>
      <point x="0" y="0" type="curve" smooth="yes"/>
      <point x="127" y="0" type="line" smooth="yes"/>
      <point x="222" y="0"/>
      <point x="241" y="32"/>
      <point x="241" y="118" type="curve" smooth="yes"/>
      <point x="241" y="275" type="line"/>
      <point x="270" y="275" type="line" smooth="yes"/>
      <point x="327" y="275"/>
      <point x="344" y="261"/>
      <point x="355" y="250" type="curve"/>
      <point x="422" y="361" type="line"/>
      <point x="411" y="374"/>
      <point x="388" y="400"/>
      <point x="315" y="400" type="curve" smooth="yes"/>
      <point x="241" y="400" type="line"/>
      <point x="241" y="531" type="line" smooth="yes"/>
      <point x="241" y="573"/>
      <point x="250" y="589"/>
      <point x="290" y="589" type="curve" smooth="yes"/>
      <point x="468" y="589" type="line"/>
      <point x="468" y="118" type="line" smooth="yes"/>
      <point x="468" y="32"/>
      <point x="487" y="0"/>
      <point x="582" y="0" type="curve" smooth="yes"/>
      <point x="709" y="0" type="line" smooth="yes"/>
      <point x="734" y="0"/>
      <point x="749" y="7"/>
      <point x="749" y="38" type="curve" smooth="yes"/>
      <point x="749" y="120" type="line"/>
      <point x="669" y="120" type="line" smooth="yes"/>
      <point x="628" y="120"/>
      <point x="619" y="136"/>
      <point x="619" y="178" type="curve" smooth="yes"/>
      <point x="619" y="714" type="line"/>
      <point x="208" y="714" type="line" smooth="yes"/>
      <point x="108" y="714"/>
      <point x="90" y="682"/>
      <point x="90" y="596" type="curve" smooth="yes"/>
      <point x="90" y="178" type="line" smooth="yes"/>
      <point x="90" y="136"/>
      <point x="81" y="120"/>
      <point x="40" y="120" type="curve" smooth="yes"/>
      <point x="-40" y="120" type="line"/>
      <point x="-40" y="38" type="line" smooth="yes"/>
      <point x="-40" y="7"/>
      <point x="-25" y="0"/>
    </contour>
  </outline>
</glyph>
<glyph name="Ya-adlam.medi" format="2">
  <advance width="858"/>
  <anchor x="261" y="663" name="top"/>
  <outline>
    <contour>
      <point x="0" y="0" type="curve" smooth="yes"/>
      <point x="253" y="0" type="line" smooth="yes"/>
      <point x="428" y="0"/>
      <point x="522" y="42"/>
      <point x="522" y="199" type="curve" smooth="yes"/>
      <point x="522" y="207"/>
      <point x="522" y="210"/>
      <point x="521" y="219" type="curve"/>
      <point x="521" y="246"/>
      <point x="531" y="261"/>
      <point x="570" y="305" type="curve" smooth="yes"/>
      <point x="584" y="321"/>
      <point x="598" y="336"/>
      <point x="612" y="352" type="curve"/>
      <point x="617" y="350" type="line"/>
      <point x="617" y="118" type="line" smooth="yes"/>
      <point x="617" y="32"/>
      <point x="636" y="0"/>
      <point x="731" y="0" type="curve" smooth="yes"/>
      <point x="858" y="0" type="line" smooth="yes"/>
      <point x="883" y="0"/>
      <point x="898" y="7"/>
      <point x="898" y="38" type="curve" smooth="yes"/>
      <point x="898" y="120" type="line"/>
      <point x="818" y="120" type="line" smooth="yes"/>
      <point x="777" y="120"/>
      <point x="768" y="136"/>
      <point x="768" y="178" type="curve" smooth="yes"/>
      <point x="768" y="714" type="line"/>
      <point x="617" y="714" type="line"/>
      <point x="617" y="532" type="line" smooth="yes"/>
      <point x="617" y="483"/>
      <point x="613" y="473"/>
      <point x="551" y="410" type="curve" smooth="yes"/>
      <point x="508" y="367"/>
      <point x="491" y="349"/>
      <point x="485" y="337" type="curve"/>
      <point x="481" y="337" type="line"/>
      <point x="467" y="355"/>
      <point x="441" y="378"/>
      <point x="400" y="388" type="curve"/>
      <point x="400" y="394" type="line"/>
      <point x="441" y="412"/>
      <point x="505" y="456"/>
      <point x="505" y="553" type="curve" smooth="yes"/>
      <point x="505" y="671"/>
      <point x="427" y="714"/>
      <point x="300" y="714" type="curve" smooth="yes"/>
      <point x="222" y="714" type="line" smooth="yes"/>
      <point x="82" y="714"/>
      <point x="34" y="649"/>
      <point x="20" y="622" type="curve"/>
      <point x="111" y="546" type="line"/>
      <point x="123" y="568"/>
      <point x="143" y="589"/>
      <point x="217" y="589" type="curve" smooth="yes"/>
      <point x="261" y="589" type="line" smooth="yes"/>
      <point x="328" y="589"/>
      <point x="349" y="569"/>
      <point x="349" y="533" type="curve" smooth="yes"/>
      <point x="349" y="492"/>
      <point x="308" y="478"/>
      <point x="185" y="442" type="curve" smooth="yes"/>
      <point x="89" y="414" type="line"/>
      <point x="123" y="298" type="line"/>
      <point x="162" y="311"/>
      <point x="249" y="337"/>
      <point x="267" y="337" type="curve" smooth="yes"/>
      <point x="328" y="337"/>
      <point x="366" y="271"/>
      <point x="366" y="207" type="curve" smooth="yes"/>
      <point x="366" y="140"/>
      <point x="327" y="120"/>
      <point x="236" y="120" type="curve" smooth="yes"/>
      <point x="-40" y="120" type="line"/>
      <point x="-40" y="38" type="line" smooth="yes"/>
      <point x="-40" y="7"/>
      <point x="-25" y="0"/>
    </contour>
  </outline>
</glyph>
<glyph name="Zal-adlam.init" format="2">
  <advance width="874"/>
  <anchor x="460" y="663" name="top"/>
  <outline>
    <contour>
      <point x="0" y="0" type="curve" smooth="yes"/>
      <point x="127" y="0" type="line" smooth="yes"/>
      <point x="222" y="0"/>
      <point x="241" y="32"/>
      <point x="241" y="118" type="curve" smooth="yes"/>
      <point x="241" y="504" type="line" smooth="yes"/>
      <point x="241" y="576"/>
      <point x="262" y="599"/>
      <point x="305" y="599" type="curve" smooth="yes"/>
      <point x="341" y="599"/>
      <point x="357" y="580"/>
      <point x="362" y="570" type="curve"/>
      <point x="362" y="200" type="line"/>
      <point x="513" y="200" type="line"/>
      <point x="513" y="325" type="line"/>
      <point x="633" y="325" type="line"/>
      <point x="633" y="183" type="line" smooth="yes"/>
      <point x="633" y="141"/>
      <point x="624" y="125"/>
      <point x="584" y="125" type="curve" smooth="yes"/>
      <point x="365" y="125" type="line"/>
      <point x="365" y="0" type="line"/>
      <point x="673" y="0" type="line" smooth="yes"/>
      <point x="767" y="0"/>
      <point x="784" y="32"/>
      <point x="784" y="118" type="curve" smooth="yes"/>
      <point x="784" y="714" type="line"/>
      <point x="633" y="714" type="line"/>
      <point x="633" y="450" type="line"/>
      <point x="513" y="450" type="line"/>
      <point x="513" y="615" type="line"/>
      <point x="501" y="637"/>
      <point x="453" y="724"/>
      <point x="302" y="724" type="curve" smooth="yes"/>
      <point x="162" y="724"/>
      <point x="90" y="672"/>
      <point x="90" y="531" type="curve" smooth="yes"/>
      <point x="90" y="178" type="line" smooth="yes"/>
      <point x="90" y="136"/>
      <point x="81" y="120"/>
      <point x="40" y="120" type="curve" smooth="yes"/>
      <point x="-40" y="120" type="line"/>
      <point x="-40" y="38" type="line" smooth="yes"/>
      <point x="-40" y="7"/>
      <point x="-25" y="0"/>
    </contour>
  </outline>
</glyph>
<glyph name="Zal-adlam.medi" format="2">
  <advance width="874"/>
  <anchor x="460" y="663" name="top"/>
  <outline>
    <contour>
      <point x="0" y="0" type="curve" smooth="yes"/>
      <point x="127" y="0" type="line" smooth="yes"/>
      <point x="222" y="0"/>
      <point x="241" y="32"/>
      <point x="241" y="118" type="curve" smooth="yes"/>
      <point x="241" y="504" type="line" smooth="yes"/>
      <point x="241" y="576"/>
      <point x="262" y="599"/>
      <point x="305" y="599" type="curve" smooth="yes"/>
      <point x="341" y="599"/>
      <point x="357" y="580"/>
      <point x="362" y="570" type="curve"/>
      <point x="362" y="200" type="line"/>
      <point x="513" y="200" type="line"/>
      <point x="513" y="325" type="line"/>
      <point x="633" y="325" type="line"/>
      <point x="633" y="178" type="line" smooth="yes"/>
      <point x="633" y="136"/>
      <point x="624" y="120"/>
      <point x="583" y="120" type="curve" smooth="yes"/>
      <point x="365" y="120" type="line"/>
      <point x="365" y="0" type="line"/>
      <point x="671" y="0" type="line" smooth="yes"/>
      <point x="729" y="0"/>
      <point x="759" y="12"/>
      <point x="773" y="40" type="curve"/>
      <point x="779" y="40" type="line"/>
      <point x="788" y="12"/>
      <point x="811" y="0"/>
      <point x="834" y="0" type="curve" smooth="yes"/>
      <point x="874" y="0" type="line" smooth="yes"/>
      <point x="899" y="0"/>
      <point x="914" y="7"/>
      <point x="914" y="38" type="curve" smooth="yes"/>
      <point x="914" y="120" type="line"/>
      <point x="834" y="120" type="line" smooth="yes"/>
      <point x="793" y="120"/>
      <point x="784" y="136"/>
      <point x="784" y="178" type="curve" smooth="yes"/>
      <point x="784" y="714" type="line"/>
      <point x="633" y="714" type="line"/>
      <point x="633" y="450" type="line"/>
      <point x="513" y="450" type="line"/>
      <point x="513" y="615" type="line"/>
      <point x="501" y="637"/>
      <point x="453" y="724"/>
      <point x="302" y="724" type="curve" smooth="yes"/>
      <point x="162" y="724"/>
      <point x="90" y="672"/>
      <point x="90" y="531" type="curve" smooth="yes"/>
      <point x="90" y="178" type="line" smooth="yes"/>
      <point x="90" y="136"/>
      <point x="81" y="120"/>
      <point x="40" y="120" type="curve" smooth="yes"/>
      <point x="-40" y="120" type="line"/>
      <point x="-40" y="38" type="line" smooth="yes"/>
      <point x="-40" y="7"/>
      <point x="-25" y="0"/>
    </contour>
  </outline>
</glyph>
<glyph name="alif-adlam.init" format="2">
  <advance width="701"/>
  <anchor x="353" y="585" name="gemconsonanttop"/>
  <anchor x="367" y="585" name="top"/>
  <anchor x="119" y="638" name="topAlif"/>
  <outline>
    <contour>
      <point x="349" y="-10" type="curve" smooth="yes"/>
      <point x="542" y="-10"/>
      <point x="630" y="79"/>
      <point x="630" y="209" type="curve" smooth="yes"/>
      <point x="630" y="306"/>
      <point x="590" y="350"/>
      <point x="554" y="372" type="curve"/>
      <point x="554" y="379" type="line"/>
      <point x="591" y="383"/>
      <point x="627" y="396"/>
      <point x="646" y="409" type="curve"/>
      <point x="606" y="518" type="line"/>
      <point x="586" y="504"/>
      <point x="545" y="486"/>
      <point x="489" y="486" type="curve" smooth="yes"/>
      <point x="420" y="486"/>
      <point x="368" y="516"/>
      <point x="346" y="536" type="curve"/>
      <point x="291" y="428" type="line"/>
      <point x="309" y="411"/>
      <point x="342" y="389"/>
      <point x="386" y="373" type="curve" smooth="yes"/>
      <point x="442" y="353"/>
      <point x="478" y="323"/>
      <point x="478" y="234" type="curve" smooth="yes"/>
      <point x="478" y="138"/>
      <point x="429" y="110"/>
      <point x="349" y="110" type="curve" smooth="yes"/>
      <point x="287" y="110"/>
      <point x="239" y="138"/>
      <point x="239" y="249" type="curve" smooth="yes"/>
      <point x="239" y="649" type="line"/>
      <point x="90" y="649" type="line"/>
      <point x="90" y="178" type="line" smooth="yes"/>
      <point x="90" y="136"/>
      <point x="81" y="120"/>
      <point x="40" y="120" type="curve" smooth="yes"/>
      <point x="-40" y="120" type="line"/>
      <point x="-40" y="38" type="line" smooth="yes"/>
      <point x="-40" y="7"/>
      <point x="-25" y="0"/>
      <point x="0" y="0" type="curve" smooth="yes"/>
      <point x="65" y="0" type="line" smooth="yes"/>
      <point x="119" y="0"/>
      <point x="142" y="20"/>
      <point x="150" y="40" type="curve"/>
      <point x="155" y="40" type="line"/>
      <point x="172" y="24"/>
      <point x="220" y="-10"/>
    </contour>
  </outline>
</glyph>
<glyph name="alif-adlam.isol" format="2">
  <advance width="701"/>
  <anchor x="353" y="585" name="gemconsonanttop"/>
  <anchor x="367" y="585" name="top"/>
  <anchor x="119" y="638" name="topAlif"/>
  <outline>
    <contour>
      <point x="349" y="-10" type="curve" smooth="yes"/>
      <point x="542" y="-10"/>
      <point x="630" y="79"/>
      <point x="630" y="209" type="curve" smooth="yes"/>
      <point x="630" y="306"/>
      <point x="590" y="350"/>
      <point x="554" y="372" type="curve"/>
      <point x="554" y="379" type="line"/>
      <point x="591" y="383"/>
      <point x="627" y="396"/>
      <point x="646" y="409" type="curve"/>
      <point x="606" y="518" type="line"/>
      <point x="586" y="504"/>
      <point x="545" y="486"/>
      <point x="489" y="486" type="curve" smooth="yes"/>
      <point x="420" y="486"/>
      <point x="368" y="516"/>
      <point x="346" y="536" type="curve"/>
      <point x="291" y="428" type="line"/>
      <point x="309" y="411"/>
      <point x="342" y="389"/>
      <point x="386" y="373" type="curve" smooth="yes"/>
      <point x="442" y="353"/>
      <point x="478" y="323"/>
      <point x="478" y="234" type="curve" smooth="yes"/>
      <point x="478" y="138"/>
      <point x="429" y="110"/>
      <point x="349" y="110" type="curve" smooth="yes"/>
      <point x="287" y="110"/>
      <point x="239" y="138"/>
      <point x="239" y="249" type="curve" smooth="yes"/>
      <point x="239" y="649" type="line"/>
      <point x="90" y="649" type="line"/>
      <point x="90" y="249" type="line" smooth="yes"/>
      <point x="90" y="50"/>
      <point x="165" y="-10"/>
    </contour>
  </outline>
</glyph>
<glyph name="aliflengthencomb-adlam.case" format="2">
  <note>
uni1E944
</note>
  <anchor x="260" y="744" name="_topAlif"/>
  <outline>
    <contour>
      <point x="412" y="772" type="curve"/>
      <point x="452" y="862" type="line"/>
      <point x="405" y="879"/>
      <point x="213" y="989"/>
      <point x="149" y="1069" type="curve"/>
      <point x="50" y="952" type="line"/>
      <point x="135" y="854"/>
      <point x="335" y="787"/>
    </contour>
  </outline>
</glyph>
<glyph name="apostrophe-adlam.fina" format="2">
  <advance width="192"/>
  <outline>
    <contour>
      <point x="30" y="431" type="line"/>
      <point x="162" y="431" type="line"/>
      <point x="172" y="714" type="line"/>
      <point x="20" y="714" type="line"/>
    </contour>
    <contour>
      <point x="25" y="0" type="line"/>
      <point x="192" y="0" type="line" smooth="yes"/>
      <point x="217" y="0"/>
      <point x="232" y="7"/>
      <point x="232" y="38" type="curve" smooth="yes"/>
      <point x="232" y="120" type="line"/>
      <point x="25" y="120" type="line"/>
    </contour>
  </outline>
</glyph>
<glyph name="apostrophe-adlam.init" format="2">
  <advance width="192"/>
  <outline>
    <contour>
      <point x="30" y="431" type="line"/>
      <point x="162" y="431" type="line"/>
      <point x="172" y="714" type="line"/>
      <point x="20" y="714" type="line"/>
    </contour>
    <contour>
      <point x="0" y="0" type="curve" smooth="yes"/>
      <point x="172" y="0" type="line"/>
      <point x="172" y="120" type="line"/>
      <point x="-40" y="120" type="line"/>
      <point x="-40" y="38" type="line" smooth="yes"/>
      <point x="-40" y="7"/>
      <point x="-25" y="0"/>
    </contour>
  </outline>
</glyph>
<glyph name="apostrophe-adlam.isol" format="2">
  <advance width="192"/>
  <outline>
    <contour>
      <point x="30" y="431" type="line"/>
      <point x="162" y="431" type="line"/>
      <point x="172" y="714" type="line"/>
      <point x="20" y="714" type="line"/>
    </contour>
  </outline>
</glyph>
<glyph name="ba-adlam.fina" format="2">
  <advance width="815"/>
  <anchor x="449" y="633" name="top"/>
  <outline>
    <contour>
      <point x="90" y="0" type="line"/>
      <point x="239" y="0" type="line"/>
      <point x="239" y="226" type="line"/>
      <point x="262" y="217"/>
      <point x="316" y="208"/>
      <point x="337" y="207" type="curve"/>
      <point x="337" y="119" type="line" smooth="yes"/>
      <point x="337" y="27"/>
      <point x="349" y="0"/>
      <point x="453" y="0" type="curve" smooth="yes"/>
      <point x="815" y="0" type="line" smooth="yes"/>
      <point x="840" y="0"/>
      <point x="855" y="7"/>
      <point x="855" y="38" type="curve" smooth="yes"/>
      <point x="855" y="120" type="line"/>
      <point x="549" y="120" type="line" smooth="yes"/>
      <point x="494" y="120"/>
      <point x="486" y="132"/>
      <point x="486" y="185" type="curve" smooth="yes"/>
      <point x="486" y="203" type="line"/>
      <point x="660" y="203"/>
      <point x="760" y="273"/>
      <point x="760" y="413" type="curve" smooth="yes"/>
      <point x="760" y="532"/>
      <point x="681" y="595"/>
      <point x="523" y="595" type="curve" smooth="yes"/>
      <point x="417" y="595"/>
      <point x="356" y="566"/>
      <point x="337" y="550" type="curve"/>
      <point x="337" y="327" type="line"/>
      <point x="316" y="328"/>
      <point x="259" y="339"/>
      <point x="239" y="346" type="curve"/>
      <point x="239" y="714" type="line"/>
      <point x="90" y="714" type="line"/>
    </contour>
    <contour>
      <point x="486" y="323" type="curve"/>
      <point x="486" y="469" type="line"/>
      <point x="491" y="472"/>
      <point x="506" y="475"/>
      <point x="523" y="475" type="curve" smooth="yes"/>
      <point x="564" y="475"/>
      <point x="608" y="459"/>
      <point x="608" y="408" type="curve" smooth="yes"/>
      <point x="608" y="357"/>
      <point x="580" y="323"/>
    </contour>
  </outline>
</glyph>
<glyph name="ba-adlam.init" format="2">
  <advance width="780"/>
  <anchor x="449" y="633" name="top"/>
  <outline>
    <contour>
      <point x="0" y="0" type="curve" smooth="yes"/>
      <point x="40" y="0" type="line" smooth="yes"/>
      <point x="63" y="0"/>
      <point x="86" y="12"/>
      <point x="95" y="40" type="curve"/>
      <point x="101" y="40" type="line"/>
      <point x="115" y="12"/>
      <point x="145" y="0"/>
      <point x="203" y="0" type="curve" smooth="yes"/>
      <point x="714" y="0" type="line"/>
      <point x="714" y="120" type="line"/>
      <point x="302" y="120" type="line" smooth="yes"/>
      <point x="247" y="120"/>
      <point x="239" y="132"/>
      <point x="239" y="185" type="curve" smooth="yes"/>
      <point x="239" y="218" type="line"/>
      <point x="246" y="223" type="line"/>
      <point x="277" y="205"/>
      <point x="318" y="180"/>
      <point x="434" y="180" type="curve" smooth="yes"/>
      <point x="600" y="180"/>
      <point x="725" y="250"/>
      <point x="725" y="403" type="curve" smooth="yes"/>
      <point x="725" y="532"/>
      <point x="646" y="595"/>
      <point x="518" y="595" type="curve" smooth="yes"/>
      <point x="412" y="595"/>
      <point x="351" y="564"/>
      <point x="332" y="548" type="curve"/>
      <point x="332" y="345" type="line"/>
      <point x="466" y="345" type="line"/>
      <point x="466" y="470" type="line"/>
      <point x="474" y="473"/>
      <point x="486" y="475"/>
      <point x="501" y="475" type="curve" smooth="yes"/>
      <point x="536" y="475"/>
      <point x="573" y="462"/>
      <point x="573" y="398" type="curve" smooth="yes"/>
      <point x="573" y="328"/>
      <point x="536" y="300"/>
      <point x="434" y="300" type="curve" smooth="yes"/>
      <point x="318" y="300"/>
      <point x="259" y="336"/>
      <point x="239" y="352" type="curve"/>
      <point x="239" y="714" type="line"/>
      <point x="90" y="714" type="line"/>
      <point x="90" y="178" type="line" smooth="yes"/>
      <point x="90" y="136"/>
      <point x="81" y="120"/>
      <point x="40" y="120" type="curve" smooth="yes"/>
      <point x="-40" y="120" type="line"/>
      <point x="-40" y="38" type="line" smooth="yes"/>
      <point x="-40" y="7"/>
      <point x="-25" y="0"/>
    </contour>
  </outline>
</glyph>
<glyph name="ba-adlam.isol" format="2">
  <advance width="780"/>
  <anchor x="449" y="633" name="top"/>
  <outline>
    <contour>
      <point x="206" y="0" type="curve" smooth="yes"/>
      <point x="714" y="0" type="line"/>
      <point x="714" y="120" type="line"/>
      <point x="302" y="120" type="line" smooth="yes"/>
      <point x="247" y="120"/>
      <point x="239" y="132"/>
      <point x="239" y="185" type="curve" smooth="yes"/>
      <point x="239" y="218" type="line"/>
      <point x="246" y="223" type="line"/>
      <point x="277" y="205"/>
      <point x="318" y="180"/>
      <point x="434" y="180" type="curve" smooth="yes"/>
      <point x="600" y="180"/>
      <point x="725" y="250"/>
      <point x="725" y="403" type="curve" smooth="yes"/>
      <point x="725" y="532"/>
      <point x="646" y="595"/>
      <point x="518" y="595" type="curve" smooth="yes"/>
      <point x="412" y="595"/>
      <point x="351" y="564"/>
      <point x="332" y="548" type="curve"/>
      <point x="332" y="345" type="line"/>
      <point x="466" y="345" type="line"/>
      <point x="466" y="470" type="line"/>
      <point x="474" y="473"/>
      <point x="486" y="475"/>
      <point x="501" y="475" type="curve" smooth="yes"/>
      <point x="536" y="475"/>
      <point x="573" y="462"/>
      <point x="573" y="398" type="curve" smooth="yes"/>
      <point x="573" y="328"/>
      <point x="536" y="300"/>
      <point x="434" y="300" type="curve" smooth="yes"/>
      <point x="318" y="300"/>
      <point x="259" y="336"/>
      <point x="239" y="352" type="curve"/>
      <point x="239" y="714" type="line"/>
      <point x="90" y="714" type="line"/>
      <point x="90" y="119" type="line" smooth="yes"/>
      <point x="90" y="27"/>
      <point x="102" y="0"/>
    </contour>
  </outline>
</glyph>
<glyph name="chi-adlam.fina" format="2">
  <advance width="769"/>
  <anchor x="393" y="575" name="top"/>
  <outline>
    <contour>
      <point x="554" y="-121" type="line"/>
      <point x="577" y="-102"/>
      <point x="622" y="-61"/>
      <point x="657" y="0" type="curve"/>
      <point x="769" y="0" type="line" smooth="yes"/>
      <point x="794" y="0"/>
      <point x="809" y="7"/>
      <point x="809" y="38" type="curve" smooth="yes"/>
      <point x="809" y="120" type="line"/>
      <point x="700" y="120" type="line"/>
      <point x="702" y="137"/>
      <point x="704" y="156"/>
      <point x="704" y="175" type="curve" smooth="yes"/>
      <point x="704" y="362"/>
      <point x="589" y="444"/>
      <point x="525" y="483" type="curve"/>
      <point x="525" y="488" type="line"/>
      <point x="554" y="503"/>
      <point x="670" y="565"/>
      <point x="695" y="585" type="curve"/>
      <point x="631" y="681" type="line"/>
      <point x="594" y="654"/>
      <point x="449" y="572"/>
      <point x="398" y="549" type="curve"/>
      <point x="355" y="569"/>
      <point x="231" y="597"/>
      <point x="175" y="598" type="curve"/>
      <point x="156" y="496" type="line"/>
      <point x="179" y="494"/>
      <point x="226" y="483"/>
      <point x="245" y="475" type="curve"/>
      <point x="245" y="470" type="line"/>
      <point x="153" y="414"/>
      <point x="55" y="318"/>
      <point x="55" y="202" type="curve" smooth="yes"/>
      <point x="55" y="72"/>
      <point x="137" y="0"/>
      <point x="332" y="0" type="curve" smooth="yes"/>
      <point x="448" y="0" type="line"/>
      <point x="448" y="120" type="line"/>
      <point x="362" y="120" type="line" smooth="yes"/>
      <point x="274" y="120"/>
      <point x="207" y="132"/>
      <point x="207" y="210" type="curve" smooth="yes"/>
      <point x="207" y="289"/>
      <point x="293" y="365"/>
      <point x="398" y="422" type="curve"/>
      <point x="473" y="371"/>
      <point x="552" y="297"/>
      <point x="552" y="172" type="curve" smooth="yes"/>
      <point x="552" y="51"/>
      <point x="493" y="-20"/>
      <point x="464" y="-49" type="curve"/>
    </contour>
  </outline>
</glyph>
<glyph name="chi-adlam.init" format="2">
  <advance width="769"/>
  <anchor x="393" y="575" name="top"/>
  <outline>
    <contour>
      <point x="554" y="-121" type="line"/>
      <point x="595" y="-87"/>
      <point x="704" y="14"/>
      <point x="704" y="175" type="curve" smooth="yes"/>
      <point x="704" y="362"/>
      <point x="589" y="444"/>
      <point x="525" y="483" type="curve"/>
      <point x="525" y="488" type="line"/>
      <point x="554" y="503"/>
      <point x="670" y="565"/>
      <point x="695" y="585" type="curve"/>
      <point x="631" y="681" type="line"/>
      <point x="594" y="654"/>
      <point x="449" y="572"/>
      <point x="398" y="549" type="curve"/>
      <point x="355" y="569"/>
      <point x="231" y="597"/>
      <point x="175" y="598" type="curve"/>
      <point x="156" y="496" type="line"/>
      <point x="179" y="494"/>
      <point x="226" y="483"/>
      <point x="245" y="475" type="curve"/>
      <point x="245" y="470" type="line"/>
      <point x="153" y="414"/>
      <point x="55" y="318"/>
      <point x="55" y="202" type="curve" smooth="yes"/>
      <point x="55" y="171"/>
      <point x="60" y="144"/>
      <point x="69" y="120" type="curve"/>
      <point x="-40" y="120" type="line"/>
      <point x="-40" y="38" type="line" smooth="yes"/>
      <point x="-40" y="7"/>
      <point x="-25" y="0"/>
      <point x="0" y="0" type="curve" smooth="yes"/>
      <point x="448" y="0" type="line"/>
      <point x="448" y="120" type="line"/>
      <point x="362" y="120" type="line" smooth="yes"/>
      <point x="274" y="120"/>
      <point x="207" y="132"/>
      <point x="207" y="210" type="curve" smooth="yes"/>
      <point x="207" y="289"/>
      <point x="293" y="365"/>
      <point x="398" y="422" type="curve"/>
      <point x="473" y="371"/>
      <point x="552" y="297"/>
      <point x="552" y="172" type="curve" smooth="yes"/>
      <point x="552" y="51"/>
      <point x="493" y="-20"/>
      <point x="464" y="-49" type="curve"/>
    </contour>
  </outline>
</glyph>
<glyph name="connector-stub-left" format="2">
  <advance width="77"/>
  <outline>
    <contour>
      <point x="0" y="0" type="curve" smooth="yes"/>
      <point x="77" y="0" type="line"/>
      <point x="77" y="120" type="line"/>
      <point x="-40" y="120" type="line"/>
      <point x="-40" y="38" type="line" smooth="yes"/>
      <point x="-40" y="7"/>
      <point x="-25" y="0"/>
    </contour>
  </outline>
</glyph>
<glyph name="connector-stub-right" format="2">
  <advance width="77"/>
  <outline>
    <contour>
      <point x="0" y="0" type="line"/>
      <point x="77" y="0" type="line" smooth="yes"/>
      <point x="102" y="0"/>
      <point x="117" y="7"/>
      <point x="117" y="38" type="curve" smooth="yes"/>
      <point x="117" y="120" type="line"/>
      <point x="0" y="120" type="line"/>
    </contour>
  </outline>
</glyph>
<glyph name="daali-adlam.init" format="2">
  <advance width="640"/>
  <anchor x="279" y="631" name="gemconsonanttop"/>
  <anchor x="294" y="631" name="top"/>
  <outline>
    <contour>
      <point x="0" y="0" type="curve" smooth="yes"/>
      <point x="434" y="0" type="line" smooth="yes"/>
      <point x="538" y="0"/>
      <point x="550" y="27"/>
      <point x="550" y="119" type="curve" smooth="yes"/>
      <point x="550" y="714" type="line"/>
      <point x="401" y="714" type="line"/>
      <point x="401" y="307" type="line"/>
      <point x="395" y="304" type="line"/>
      <point x="384" y="315"/>
      <point x="362" y="328"/>
      <point x="295" y="346" type="curve" smooth="yes"/>
      <point x="221" y="366"/>
      <point x="209" y="374"/>
      <point x="209" y="466" type="curve" smooth="yes"/>
      <point x="209" y="585" type="line"/>
      <point x="60" y="585" type="line"/>
      <point x="60" y="430" type="line" smooth="yes"/>
      <point x="60" y="279"/>
      <point x="112" y="263"/>
      <point x="256" y="233" type="curve" smooth="yes"/>
      <point x="379" y="207"/>
      <point x="401" y="193"/>
      <point x="401" y="156" type="curve" smooth="yes"/>
      <point x="401" y="128"/>
      <point x="385" y="120"/>
      <point x="351" y="120" type="curve" smooth="yes"/>
      <point x="-40" y="120" type="line"/>
      <point x="-40" y="38" type="line" smooth="yes"/>
      <point x="-40" y="7"/>
      <point x="-25" y="0"/>
    </contour>
  </outline>
</glyph>
<glyph name="daali-adlam.medisol" format="2">
  <advance width="640"/>
  <anchor x="301" y="585" name="gemconsonanttop"/>
  <anchor x="294" y="585" name="top"/>
  <outline>
    <contour>
      <point x="60" y="0" type="line"/>
      <point x="434" y="0" type="line" smooth="yes"/>
      <point x="538" y="0"/>
      <point x="550" y="27"/>
      <point x="550" y="119" type="curve" smooth="yes"/>
      <point x="550" y="585" type="line"/>
      <point x="401" y="585" type="line"/>
      <point x="401" y="307" type="line"/>
      <point x="395" y="304" type="line"/>
      <point x="384" y="315"/>
      <point x="362" y="328"/>
      <point x="295" y="346" type="curve" smooth="yes"/>
      <point x="221" y="366"/>
      <point x="209" y="374"/>
      <point x="209" y="466" type="curve" smooth="yes"/>
      <point x="209" y="585" type="line"/>
      <point x="60" y="585" type="line"/>
      <point x="60" y="430" type="line" smooth="yes"/>
      <point x="60" y="279"/>
      <point x="112" y="263"/>
      <point x="256" y="233" type="curve" smooth="yes"/>
      <point x="379" y="207"/>
      <point x="401" y="193"/>
      <point x="401" y="156" type="curve" smooth="yes"/>
      <point x="401" y="128"/>
      <point x="385" y="120"/>
      <point x="351" y="120" type="curve" smooth="yes"/>
      <point x="60" y="120" type="line"/>
    </contour>
  </outline>
</glyph>
<glyph name="dha-adlam.init" format="2">
  <advance width="749"/>
  <anchor x="364" y="635" name="top"/>
  <outline>
    <contour>
      <point x="375" y="-10" type="curve" smooth="yes"/>
      <point x="580" y="-10"/>
      <point x="659" y="54"/>
      <point x="659" y="231" type="curve" smooth="yes"/>
      <point x="659" y="714" type="line"/>
      <point x="510" y="714" type="line"/>
      <point x="510" y="522" type="line"/>
      <point x="502" y="520" type="line"/>
      <point x="491" y="536"/>
      <point x="463" y="575"/>
      <point x="376" y="575" type="curve" smooth="yes"/>
      <point x="289" y="575"/>
      <point x="259" y="536"/>
      <point x="247" y="513" type="curve"/>
      <point x="239" y="515" type="line"/>
      <point x="239" y="585" type="line"/>
      <point x="90" y="585" type="line"/>
      <point x="90" y="178" type="line" smooth="yes"/>
      <point x="90" y="136"/>
      <point x="81" y="120"/>
      <point x="40" y="120" type="curve" smooth="yes"/>
      <point x="-40" y="120" type="line"/>
      <point x="-40" y="38" type="line" smooth="yes"/>
      <point x="-40" y="7"/>
      <point x="-25" y="0"/>
      <point x="0" y="0" type="curve" smooth="yes"/>
      <point x="66" y="0" type="line" smooth="yes"/>
      <point x="123" y="0"/>
      <point x="153" y="23"/>
      <point x="163" y="40" type="curve"/>
      <point x="168" y="40" type="line"/>
      <point x="183" y="28"/>
      <point x="236" y="-10"/>
    </contour>
    <contour>
      <point x="375" y="110" type="curve" smooth="yes"/>
      <point x="278" y="110"/>
      <point x="239" y="147"/>
      <point x="239" y="231" type="curve" smooth="yes"/>
      <point x="239" y="314" type="line" smooth="yes"/>
      <point x="239" y="393"/>
      <point x="275" y="455"/>
      <point x="378" y="455" type="curve" smooth="yes"/>
      <point x="473" y="455"/>
      <point x="510" y="393"/>
      <point x="510" y="314" type="curve" smooth="yes"/>
      <point x="510" y="231" type="line" smooth="yes"/>
      <point x="510" y="147"/>
      <point x="475" y="110"/>
    </contour>
  </outline>
</glyph>
<glyph name="e-adlam.init" format="2">
  <advance width="722"/>
  <anchor x="295" y="0" name="bottom"/>
  <anchor x="343" y="565" name="top"/>
  <outline>
    <contour>
      <point x="540" y="-84" type="line"/>
      <point x="572" y="-64"/>
      <point x="672" y="12"/>
      <point x="672" y="136" type="curve" smooth="yes"/>
      <point x="672" y="235"/>
      <point x="604" y="280"/>
      <point x="550" y="285" type="curve"/>
      <point x="550" y="291" type="line"/>
      <point x="581" y="311"/>
      <point x="631" y="341"/>
      <point x="631" y="425" type="curve" smooth="yes"/>
      <point x="631" y="528"/>
      <point x="566" y="595"/>
      <point x="363" y="595" type="curve" smooth="yes"/>
      <point x="105" y="595"/>
      <point x="80" y="492"/>
      <point x="80" y="353" type="curve" smooth="yes"/>
      <point x="80" y="178" type="line" smooth="yes"/>
      <point x="80" y="136"/>
      <point x="71" y="120"/>
      <point x="30" y="120" type="curve" smooth="yes"/>
      <point x="-40" y="120" type="line"/>
      <point x="-40" y="38" type="line" smooth="yes"/>
      <point x="-40" y="7"/>
      <point x="-25" y="0"/>
      <point x="0" y="0" type="curve" smooth="yes"/>
      <point x="115" y="0" type="line" smooth="yes"/>
      <point x="210" y="0"/>
      <point x="229" y="32"/>
      <point x="229" y="118" type="curve" smooth="yes"/>
      <point x="229" y="353" type="line" smooth="yes"/>
      <point x="229" y="434"/>
      <point x="261" y="475"/>
      <point x="363" y="475" type="curve" smooth="yes"/>
      <point x="455" y="475"/>
      <point x="479" y="448"/>
      <point x="479" y="413" type="curve" smooth="yes"/>
      <point x="479" y="375"/>
      <point x="455" y="359"/>
      <point x="383" y="310" type="curve" smooth="yes"/>
      <point x="312" y="262"/>
      <point x="266" y="226"/>
      <point x="266" y="128" type="curve" smooth="yes"/>
      <point x="266" y="23"/>
      <point x="331" y="0"/>
      <point x="425" y="0" type="curve" smooth="yes"/>
      <point x="470" y="0" type="line"/>
      <point x="470" y="110" type="line"/>
      <point x="425" y="110" type="line" smooth="yes"/>
      <point x="395" y="110"/>
      <point x="379" y="117"/>
      <point x="379" y="140" type="curve" smooth="yes"/>
      <point x="379" y="178"/>
      <point x="419" y="212"/>
      <point x="451" y="230" type="curve"/>
      <point x="496" y="224"/>
      <point x="531" y="178"/>
      <point x="531" y="107" type="curve" smooth="yes"/>
      <point x="531" y="43"/>
      <point x="507" y="-7"/>
      <point x="480" y="-36" type="curve"/>
    </contour>
  </outline>
</glyph>
<glyph name="fa-adlam.isol" format="2">
  <advance width="676"/>
  <anchor x="346" y="575" name="top"/>
  <outline>
    <contour>
      <point x="90" y="-130" type="line"/>
      <point x="239" y="-130" type="line"/>
      <point x="239" y="201" type="line"/>
      <point x="255" y="233"/>
      <point x="293" y="271"/>
      <point x="363" y="271" type="curve" smooth="yes"/>
      <point x="433" y="271"/>
      <point x="459" y="225"/>
      <point x="459" y="175" type="curve" smooth="yes"/>
      <point x="459" y="129"/>
      <point x="438" y="120"/>
      <point x="387" y="120" type="curve" smooth="yes"/>
      <point x="307" y="120" type="line"/>
      <point x="307" y="0" type="line"/>
      <point x="387" y="0" type="line" smooth="yes"/>
      <point x="567" y="0"/>
      <point x="611" y="37"/>
      <point x="611" y="176" type="curve" smooth="yes"/>
      <point x="611" y="311"/>
      <point x="542" y="391"/>
      <point x="411" y="391" type="curve" smooth="yes"/>
      <point x="306" y="391"/>
      <point x="263" y="348"/>
      <point x="245" y="328" type="curve"/>
      <point x="239" y="330" type="line"/>
      <point x="239" y="400" type="line" smooth="yes"/>
      <point x="239" y="453"/>
      <point x="246" y="465"/>
      <point x="302" y="465" type="curve" smooth="yes"/>
      <point x="580" y="465" type="line"/>
      <point x="580" y="585" type="line"/>
      <point x="206" y="585" type="line" smooth="yes"/>
      <point x="102" y="585"/>
      <point x="90" y="557"/>
      <point x="90" y="466" type="curve" smooth="yes"/>
    </contour>
  </outline>
</glyph>
<glyph name="fa-adlam.medi" format="2">
  <advance width="676"/>
  <anchor x="346" y="575" name="top"/>
  <outline>
    <contour>
      <point x="0" y="0" type="curve" smooth="yes"/>
      <point x="125" y="0" type="line" smooth="yes"/>
      <point x="220" y="0"/>
      <point x="239" y="32"/>
      <point x="239" y="118" type="curve" smooth="yes"/>
      <point x="239" y="201" type="line"/>
      <point x="255" y="233"/>
      <point x="293" y="271"/>
      <point x="363" y="271" type="curve" smooth="yes"/>
      <point x="433" y="271"/>
      <point x="459" y="225"/>
      <point x="459" y="175" type="curve" smooth="yes"/>
      <point x="459" y="129"/>
      <point x="438" y="120"/>
      <point x="387" y="120" type="curve" smooth="yes"/>
      <point x="307" y="120" type="line"/>
      <point x="307" y="0" type="line"/>
      <point x="676" y="0" type="line" smooth="yes"/>
      <point x="701" y="0"/>
      <point x="716" y="7"/>
      <point x="716" y="38" type="curve" smooth="yes"/>
      <point x="716" y="120" type="line"/>
      <point x="608" y="120" type="line"/>
      <point x="610" y="137"/>
      <point x="611" y="155"/>
      <point x="611" y="176" type="curve" smooth="yes"/>
      <point x="611" y="311"/>
      <point x="542" y="391"/>
      <point x="411" y="391" type="curve" smooth="yes"/>
      <point x="306" y="391"/>
      <point x="263" y="348"/>
      <point x="245" y="328" type="curve"/>
      <point x="239" y="330" type="line"/>
      <point x="239" y="400" type="line" smooth="yes"/>
      <point x="239" y="453"/>
      <point x="246" y="465"/>
      <point x="302" y="465" type="curve" smooth="yes"/>
      <point x="580" y="465" type="line"/>
      <point x="580" y="585" type="line"/>
      <point x="206" y="585" type="line" smooth="yes"/>
      <point x="102" y="585"/>
      <point x="90" y="557"/>
      <point x="90" y="466" type="curve" smooth="yes"/>
      <point x="90" y="178" type="line" smooth="yes"/>
      <point x="90" y="136"/>
      <point x="81" y="120"/>
      <point x="40" y="120" type="curve" smooth="yes"/>
      <point x="-40" y="120" type="line"/>
      <point x="-40" y="38" type="line" smooth="yes"/>
      <point x="-40" y="7"/>
      <point x="-25" y="0"/>
    </contour>
  </outline>
</glyph>
<glyph name="ga-adlam.fina" format="2">
  <advance width="625"/>
  <anchor x="306" y="625" name="gemconsonanttop"/>
  <anchor x="303" y="640" name="top"/>
  <outline>
    <contour>
      <point x="55" y="0" type="line"/>
      <point x="329" y="0" type="line" smooth="yes"/>
      <point x="454" y="0"/>
      <point x="493" y="30"/>
      <point x="504" y="40" type="curve"/>
      <point x="509" y="40" type="line"/>
      <point x="513" y="24"/>
      <point x="522" y="0"/>
      <point x="574" y="0" type="curve" smooth="yes"/>
      <point x="625" y="0" type="line" smooth="yes"/>
      <point x="650" y="0"/>
      <point x="665" y="7"/>
      <point x="665" y="38" type="curve" smooth="yes"/>
      <point x="665" y="120" type="line"/>
      <point x="600" y="120" type="line" smooth="yes"/>
      <point x="555" y="120"/>
      <point x="550" y="128"/>
      <point x="550" y="171" type="curve" smooth="yes"/>
      <point x="550" y="281"/>
      <point x="486" y="309"/>
      <point x="438" y="326" type="curve"/>
      <point x="438" y="332" type="line"/>
      <point x="486" y="346"/>
      <point x="542" y="373"/>
      <point x="542" y="465" type="curve" smooth="yes"/>
      <point x="542" y="558"/>
      <point x="478" y="585"/>
      <point x="371" y="585" type="curve" smooth="yes"/>
      <point x="288" y="585" type="line"/>
      <point x="288" y="465" type="line"/>
      <point x="337" y="465" type="line" smooth="yes"/>
      <point x="374" y="465"/>
      <point x="390" y="455"/>
      <point x="390" y="419" type="curve" smooth="yes"/>
      <point x="390" y="370"/>
      <point x="353" y="363"/>
      <point x="288" y="363" type="curve" smooth="yes"/>
      <point x="212" y="363"/>
      <point x="204" y="387"/>
      <point x="204" y="439" type="curve" smooth="yes"/>
      <point x="204" y="714" type="line"/>
      <point x="55" y="714" type="line"/>
      <point x="55" y="410" type="line" smooth="yes"/>
      <point x="55" y="258"/>
      <point x="73" y="243"/>
      <point x="245" y="243" type="curve" smooth="yes"/>
      <point x="374" y="243"/>
      <point x="398" y="225"/>
      <point x="398" y="178" type="curve" smooth="yes"/>
      <point x="398" y="131"/>
      <point x="370" y="120"/>
      <point x="307" y="120" type="curve" smooth="yes"/>
      <point x="55" y="120" type="line"/>
    </contour>
  </outline>
</glyph>
<glyph name="gbe-adlam.medi" format="2">
  <advance width="602"/>
  <anchor x="292" y="591" name="top"/>
  <outline>
    <contour>
      <point x="0" y="0" type="curve" smooth="yes"/>
      <point x="40" y="0" type="line" smooth="yes"/>
      <point x="63" y="0"/>
      <point x="86" y="12"/>
      <point x="95" y="40" type="curve"/>
      <point x="101" y="40" type="line"/>
      <point x="115" y="12"/>
      <point x="145" y="0"/>
      <point x="203" y="0" type="curve" smooth="yes"/>
      <point x="602" y="0" type="line" smooth="yes"/>
      <point x="627" y="0"/>
      <point x="642" y="7"/>
      <point x="642" y="38" type="curve" smooth="yes"/>
      <point x="642" y="120" type="line"/>
      <point x="289" y="120" type="line" smooth="yes"/>
      <point x="248" y="120"/>
      <point x="239" y="136"/>
      <point x="239" y="178" type="curve" smooth="yes"/>
      <point x="239" y="221" type="line"/>
      <point x="245" y="224" type="line"/>
      <point x="259" y="212"/>
      <point x="294" y="185"/>
      <point x="365" y="185" type="curve" smooth="yes"/>
      <point x="480" y="185"/>
      <point x="547" y="241"/>
      <point x="547" y="355" type="curve" smooth="yes"/>
      <point x="547" y="473"/>
      <point x="460" y="504"/>
      <point x="354" y="556" type="curve" smooth="yes"/>
      <point x="252" y="606"/>
      <point x="205" y="635"/>
      <point x="172" y="671" type="curve"/>
      <point x="92" y="569" type="line"/>
      <point x="130" y="527"/>
      <point x="185" y="498"/>
      <point x="278" y="454" type="curve" smooth="yes"/>
      <point x="363" y="414"/>
      <point x="395" y="396"/>
      <point x="395" y="355" type="curve" smooth="yes"/>
      <point x="395" y="318"/>
      <point x="363" y="305"/>
      <point x="324" y="305" type="curve" smooth="yes"/>
      <point x="285" y="305"/>
      <point x="256" y="318"/>
      <point x="239" y="332" type="curve"/>
      <point x="239" y="428" type="line"/>
      <point x="90" y="428" type="line"/>
      <point x="90" y="178" type="line" smooth="yes"/>
      <point x="90" y="136"/>
      <point x="81" y="120"/>
      <point x="40" y="120" type="curve" smooth="yes"/>
      <point x="-40" y="120" type="line"/>
      <point x="-40" y="38" type="line" smooth="yes"/>
      <point x="-40" y="7"/>
      <point x="-25" y="0"/>
    </contour>
  </outline>
</glyph>
<glyph name="ha-adlam.fina" format="2">
  <advance width="578"/>
  <anchor x="271" y="575" name="gemconsonanttop"/>
  <anchor x="254" y="575" name="top"/>
  <outline>
    <contour>
      <point x="35" y="0" type="line"/>
      <point x="252" y="0" type="line" smooth="yes"/>
      <point x="346" y="0"/>
      <point x="394" y="28"/>
      <point x="409" y="40" type="curve"/>
      <point x="414" y="40" type="line"/>
      <point x="420" y="28"/>
      <point x="440" y="0"/>
      <point x="501" y="0" type="curve" smooth="yes"/>
      <point x="578" y="0" type="line" smooth="yes"/>
      <point x="603" y="0"/>
      <point x="618" y="7"/>
      <point x="618" y="38" type="curve" smooth="yes"/>
      <point x="618" y="120" type="line"/>
      <point x="534" y="120" type="line" smooth="yes"/>
      <point x="507" y="120"/>
      <point x="498" y="128"/>
      <point x="498" y="155" type="curve" smooth="yes"/>
      <point x="498" y="186"/>
      <point x="503" y="219"/>
      <point x="503" y="272" type="curve" smooth="yes"/>
      <point x="503" y="478"/>
      <point x="388" y="540"/>
      <point x="234" y="540" type="curve" smooth="yes"/>
      <point x="219" y="540" type="line" smooth="yes"/>
      <point x="193" y="540"/>
      <point x="190" y="548"/>
      <point x="190" y="569" type="curve" smooth="yes"/>
      <point x="190" y="624" type="line"/>
      <point x="41" y="624" type="line"/>
      <point x="41" y="517" type="line" smooth="yes"/>
      <point x="41" y="443"/>
      <point x="52" y="420"/>
      <point x="120" y="420" type="curve" smooth="yes"/>
      <point x="201" y="420" type="line" smooth="yes"/>
      <point x="301" y="420"/>
      <point x="351" y="378"/>
      <point x="351" y="270" type="curve" smooth="yes"/>
      <point x="351" y="158"/>
      <point x="301" y="120"/>
      <point x="201" y="120" type="curve" smooth="yes"/>
      <point x="35" y="120" type="line"/>
    </contour>
  </outline>
</glyph>
<glyph name="i-adlam.init" format="2">
  <advance width="742"/>
  <anchor x="371" y="585" name="top"/>
  <outline>
    <contour>
      <point x="369" y="-10" type="curve" smooth="yes"/>
      <point x="566" y="-10"/>
      <point x="652" y="43"/>
      <point x="652" y="205" type="curve" smooth="yes"/>
      <point x="652" y="585" type="line"/>
      <point x="503" y="585" type="line"/>
      <point x="503" y="222" type="line" smooth="yes"/>
      <point x="503" y="130"/>
      <point x="458" y="110"/>
      <point x="371" y="110" type="curve" smooth="yes"/>
      <point x="285" y="110"/>
      <point x="239" y="130"/>
      <point x="239" y="222" type="curve" smooth="yes"/>
      <point x="239" y="585" type="line"/>
      <point x="90" y="585" type="line"/>
      <point x="90" y="178" type="line" smooth="yes"/>
      <point x="90" y="136"/>
      <point x="81" y="120"/>
      <point x="40" y="120" type="curve" smooth="yes"/>
      <point x="-40" y="120" type="line"/>
      <point x="-40" y="38" type="line" smooth="yes"/>
      <point x="-40" y="7"/>
      <point x="-25" y="0"/>
      <point x="0" y="0" type="curve" smooth="yes"/>
      <point x="49" y="0" type="line" smooth="yes"/>
      <point x="110" y="0"/>
      <point x="134" y="17"/>
      <point x="147" y="40" type="curve"/>
      <point x="152" y="40" type="line"/>
      <point x="163" y="29"/>
      <point x="208" y="-10"/>
    </contour>
  </outline>
</glyph>
<glyph name="i-adlam.isol" format="2">
  <advance width="742"/>
  <anchor x="371" y="585" name="top"/>
  <outline>
    <contour>
      <point x="369" y="-10" type="curve" smooth="yes"/>
      <point x="566" y="-10"/>
      <point x="652" y="43"/>
      <point x="652" y="205" type="curve" smooth="yes"/>
      <point x="652" y="585" type="line"/>
      <point x="503" y="585" type="line"/>
      <point x="503" y="222" type="line" smooth="yes"/>
      <point x="503" y="130"/>
      <point x="458" y="110"/>
      <point x="371" y="110" type="curve" smooth="yes"/>
      <point x="285" y="110"/>
      <point x="239" y="130"/>
      <point x="239" y="222" type="curve" smooth="yes"/>
      <point x="239" y="585" type="line"/>
      <point x="90" y="585" type="line"/>
      <point x="90" y="205" type="line" smooth="yes"/>
      <point x="90" y="43"/>
      <point x="172" y="-10"/>
    </contour>
  </outline>
</glyph>
<glyph name="kaf-adlam.isol" format="2">
  <advance width="694"/>
  <anchor x="327" y="575" name="top"/>
  <outline>
    <contour>
      <point x="55" y="0" type="line"/>
      <point x="217" y="0" type="line" smooth="yes"/>
      <point x="320" y="0"/>
      <point x="332" y="27"/>
      <point x="332" y="119" type="curve" smooth="yes"/>
      <point x="332" y="229" type="line"/>
      <point x="455" y="229" type="line"/>
      <point x="455" y="0" type="line"/>
      <point x="604" y="0" type="line"/>
      <point x="604" y="466" type="line" smooth="yes"/>
      <point x="604" y="558"/>
      <point x="589" y="585"/>
      <point x="496" y="585" type="curve" smooth="yes"/>
      <point x="60" y="585" type="line"/>
      <point x="60" y="465" type="line"/>
      <point x="391" y="465" type="line" smooth="yes"/>
      <point x="447" y="465"/>
      <point x="455" y="453"/>
      <point x="455" y="399" type="curve" smooth="yes"/>
      <point x="455" y="349" type="line"/>
      <point x="332" y="349" type="line"/>
      <point x="332" y="409" type="line"/>
      <point x="183" y="409" type="line"/>
      <point x="183" y="349" type="line"/>
      <point x="95" y="349" type="line"/>
      <point x="95" y="229" type="line"/>
      <point x="183" y="229" type="line"/>
      <point x="183" y="176" type="line" smooth="yes"/>
      <point x="183" y="132"/>
      <point x="176" y="120"/>
      <point x="132" y="120" type="curve" smooth="yes"/>
      <point x="55" y="120" type="line"/>
    </contour>
  </outline>
</glyph>
<glyph name="kha-adlam.init" format="2">
  <advance width="694"/>
  <anchor x="376" y="575" name="top"/>
  <outline>
    <contour>
      <point x="0" y="0" type="curve" smooth="yes"/>
      <point x="125" y="0" type="line" smooth="yes"/>
      <point x="220" y="0"/>
      <point x="239" y="32"/>
      <point x="239" y="118" type="curve" smooth="yes"/>
      <point x="239" y="229" type="line"/>
      <point x="362" y="229" type="line"/>
      <point x="362" y="119" type="line" smooth="yes"/>
      <point x="362" y="27"/>
      <point x="374" y="0"/>
      <point x="477" y="0" type="curve" smooth="yes"/>
      <point x="639" y="0" type="line"/>
      <point x="639" y="120" type="line"/>
      <point x="574" y="120" type="line" smooth="yes"/>
      <point x="518" y="120"/>
      <point x="511" y="132"/>
      <point x="511" y="186" type="curve" smooth="yes"/>
      <point x="511" y="229" type="line"/>
      <point x="599" y="229" type="line"/>
      <point x="599" y="349" type="line"/>
      <point x="511" y="349" type="line"/>
      <point x="511" y="409" type="line"/>
      <point x="362" y="409" type="line"/>
      <point x="362" y="349" type="line"/>
      <point x="239" y="349" type="line"/>
      <point x="239" y="399" type="line" smooth="yes"/>
      <point x="239" y="453"/>
      <point x="247" y="465"/>
      <point x="303" y="465" type="curve" smooth="yes"/>
      <point x="633" y="465" type="line"/>
      <point x="633" y="585" type="line"/>
      <point x="198" y="585" type="line" smooth="yes"/>
      <point x="105" y="585"/>
      <point x="90" y="558"/>
      <point x="90" y="466" type="curve" smooth="yes"/>
      <point x="90" y="178" type="line" smooth="yes"/>
      <point x="90" y="136"/>
      <point x="81" y="120"/>
      <point x="40" y="120" type="curve" smooth="yes"/>
      <point x="-40" y="120" type="line"/>
      <point x="-40" y="38" type="line" smooth="yes"/>
      <point x="-40" y="7"/>
      <point x="-25" y="0"/>
    </contour>
  </outline>
</glyph>
<glyph name="laam-adlam.isol" format="2">
  <advance width="641"/>
  <anchor x="306" y="575" name="top"/>
  <outline>
    <contour>
      <point x="66" y="0" type="line"/>
      <point x="435" y="0" type="line" smooth="yes"/>
      <point x="539" y="0"/>
      <point x="551" y="27"/>
      <point x="551" y="119" type="curve" smooth="yes"/>
      <point x="551" y="409" type="line" smooth="yes"/>
      <point x="551" y="543"/>
      <point x="489" y="595"/>
      <point x="356" y="595" type="curve" smooth="yes"/>
      <point x="167" y="595"/>
      <point x="81" y="482"/>
      <point x="65" y="442" type="curve"/>
      <point x="65" y="261" type="line"/>
      <point x="214" y="261" type="line"/>
      <point x="214" y="409" type="line"/>
      <point x="223" y="427"/>
      <point x="260" y="475"/>
      <point x="330" y="475" type="curve" smooth="yes"/>
      <point x="379" y="475"/>
      <point x="402" y="452"/>
      <point x="402" y="399" type="curve" smooth="yes"/>
      <point x="402" y="186" type="line" smooth="yes"/>
      <point x="402" y="132"/>
      <point x="395" y="120"/>
      <point x="339" y="120" type="curve" smooth="yes"/>
      <point x="66" y="120" type="line"/>
    </contour>
  </outline>
</glyph>
<glyph name="left_connector" format="2">
  <advance width="611"/>
  <outline>
    <contour>
      <point x="100" y="0" type="line"/>
      <point x="397" y="0" type="line" smooth="yes"/>
      <point x="492" y="0"/>
      <point x="511" y="32"/>
      <point x="511" y="118" type="curve" smooth="yes"/>
      <point x="511" y="585" type="line"/>
      <point x="362" y="585" type="line"/>
      <point x="362" y="178" type="line" smooth="yes"/>
      <point x="362" y="136"/>
      <point x="353" y="120"/>
      <point x="312" y="120" type="curve" smooth="yes"/>
      <point x="100" y="120" type="line"/>
    </contour>
  </outline>
</glyph>
<glyph name="miim-adlam.fina" format="2">
  <advance width="633"/>
  <anchor x="307" y="572" name="top"/>
  <outline>
    <contour>
      <point x="48" y="0" type="line"/>
      <point x="430" y="0" type="line" smooth="yes"/>
      <point x="488" y="0"/>
      <point x="518" y="12"/>
      <point x="532" y="40" type="curve"/>
      <point x="538" y="40" type="line"/>
      <point x="547" y="12"/>
      <point x="570" y="0"/>
      <point x="593" y="0" type="curve" smooth="yes"/>
      <point x="633" y="0" type="line" smooth="yes"/>
      <point x="658" y="0"/>
      <point x="673" y="7"/>
      <point x="673" y="38" type="curve" smooth="yes"/>
      <point x="673" y="120" type="line"/>
      <point x="593" y="120" type="line" smooth="yes"/>
      <point x="552" y="120"/>
      <point x="543" y="136"/>
      <point x="543" y="178" type="curve" smooth="yes"/>
      <point x="543" y="408" type="line" smooth="yes"/>
      <point x="543" y="550"/>
      <point x="473" y="595"/>
      <point x="304" y="595" type="curve" smooth="yes"/>
      <point x="128" y="595"/>
      <point x="45" y="536"/>
      <point x="45" y="399" type="curve" smooth="yes"/>
      <point x="45" y="262"/>
      <point x="120" y="237"/>
      <point x="249" y="218" type="curve" smooth="yes"/>
      <point x="363" y="201"/>
      <point x="394" y="188"/>
      <point x="394" y="156" type="curve" smooth="yes"/>
      <point x="394" y="132"/>
      <point x="387" y="120"/>
      <point x="340" y="120" type="curve" smooth="yes"/>
      <point x="48" y="120" type="line"/>
    </contour>
    <contour>
      <point x="388" y="290" type="line"/>
      <point x="370" y="306"/>
      <point x="340" y="316"/>
      <point x="286" y="326" type="curve" smooth="yes"/>
      <point x="228" y="337"/>
      <point x="197" y="354"/>
      <point x="197" y="402" type="curve" smooth="yes"/>
      <point x="197" y="452"/>
      <point x="227" y="475"/>
      <point x="298" y="475" type="curve" smooth="yes"/>
      <point x="373" y="475"/>
      <point x="394" y="447"/>
      <point x="394" y="362" type="curve" smooth="yes"/>
      <point x="394" y="293" type="line"/>
    </contour>
  </outline>
</glyph>
<glyph name="nha-adlam.init" format="2">
  <advance width="682"/>
  <anchor x="364" y="573" name="top"/>
  <outline>
    <contour>
      <point x="193" y="-81" type="curve"/>
      <point x="247" y="32" type="line"/>
      <point x="218" y="43"/>
      <point x="187" y="66"/>
      <point x="187" y="114" type="curve" smooth="yes"/>
      <point x="187" y="171"/>
      <point x="227" y="195"/>
      <point x="288" y="212" type="curve"/>
      <point x="288" y="113" type="line" smooth="yes"/>
      <point x="288" y="26"/>
      <point x="316" y="0"/>
      <point x="401" y="0" type="curve" smooth="yes"/>
      <point x="631" y="0" type="line"/>
      <point x="631" y="120" type="line"/>
      <point x="454" y="120" type="line" smooth="yes"/>
      <point x="426" y="120"/>
      <point x="413" y="130"/>
      <point x="413" y="167" type="curve" smooth="yes"/>
      <point x="413" y="233" type="line"/>
      <point x="516" y="257"/>
      <point x="637" y="290"/>
      <point x="637" y="434" type="curve" smooth="yes"/>
      <point x="637" y="560"/>
      <point x="554" y="595"/>
      <point x="363" y="595" type="curve" smooth="yes"/>
      <point x="163" y="595"/>
      <point x="110" y="547"/>
      <point x="85" y="518" type="curve"/>
      <point x="166" y="437" type="line"/>
      <point x="187" y="460"/>
      <point x="216" y="483"/>
      <point x="288" y="483" type="curve"/>
      <point x="288" y="329" type="line"/>
      <point x="171" y="305"/>
      <point x="45" y="251"/>
      <point x="45" y="114" type="curve" smooth="yes"/>
      <point x="45" y="4"/>
      <point x="123" y="-59"/>
    </contour>
    <contour>
      <point x="0" y="0" type="curve" smooth="yes"/>
      <point x="158" y="0" type="line"/>
      <point x="158" y="120" type="line"/>
      <point x="-40" y="120" type="line"/>
      <point x="-40" y="38" type="line" smooth="yes"/>
      <point x="-40" y="7"/>
      <point x="-25" y="0"/>
    </contour>
    <contour>
      <point x="413" y="350" type="curve"/>
      <point x="413" y="483" type="line"/>
      <point x="474" y="483"/>
      <point x="498" y="468"/>
      <point x="498" y="423" type="curve" smooth="yes"/>
      <point x="498" y="379"/>
      <point x="471" y="362"/>
    </contour>
  </outline>
</glyph>
<glyph name="nun-adlam.isol" format="2">
  <advance width="580"/>
  <anchor x="299" y="575" name="top"/>
  <outline>
    <contour>
      <point x="263" y="0" type="curve" smooth="yes"/>
      <point x="505" y="0" type="line"/>
      <point x="505" y="120" type="line"/>
      <point x="285" y="120" type="line" smooth="yes"/>
      <point x="233" y="120"/>
      <point x="207" y="129"/>
      <point x="207" y="162" type="curve" smooth="yes"/>
      <point x="207" y="208"/>
      <point x="227" y="223"/>
      <point x="328" y="247" type="curve" smooth="yes"/>
      <point x="434" y="272"/>
      <point x="525" y="307"/>
      <point x="525" y="432" type="curve" smooth="yes"/>
      <point x="525" y="549"/>
      <point x="435" y="595"/>
      <point x="296" y="595" type="curve" smooth="yes"/>
      <point x="192" y="595"/>
      <point x="112" y="570"/>
      <point x="77" y="554" type="curve"/>
      <point x="119" y="441" type="line"/>
      <point x="154" y="457"/>
      <point x="226" y="475"/>
      <point x="296" y="475" type="curve" smooth="yes"/>
      <point x="357" y="475"/>
      <point x="373" y="449"/>
      <point x="373" y="423" type="curve" smooth="yes"/>
      <point x="373" y="391"/>
      <point x="350" y="381"/>
      <point x="248" y="358" type="curve" smooth="yes"/>
      <point x="131" y="332"/>
      <point x="55" y="292"/>
      <point x="55" y="162" type="curve" smooth="yes"/>
      <point x="55" y="30"/>
      <point x="148" y="0"/>
    </contour>
  </outline>
</glyph>
<glyph name="nya-adlam.isol" format="2">
  <advance width="648"/>
  <anchor x="344" y="575" name="top"/>
  <outline>
    <contour>
      <point x="444" y="-48" type="line"/>
      <point x="593" y="-48" type="line"/>
      <point x="593" y="154" type="line" smooth="yes"/>
      <point x="593" y="308"/>
      <point x="474" y="339"/>
      <point x="350" y="370" type="curve" smooth="yes"/>
      <point x="247" y="396"/>
      <point x="234" y="404"/>
      <point x="234" y="431" type="curve" smooth="yes"/>
      <point x="234" y="458"/>
      <point x="257" y="470"/>
      <point x="349" y="470" type="curve" smooth="yes"/>
      <point x="478" y="470"/>
      <point x="500" y="453"/>
      <point x="520" y="436" type="curve"/>
      <point x="586" y="533" type="line"/>
      <point x="571" y="551"/>
      <point x="536" y="590"/>
      <point x="350" y="590" type="curve" smooth="yes"/>
      <point x="153" y="590"/>
      <point x="82" y="533"/>
      <point x="82" y="426" type="curve" smooth="yes"/>
      <point x="82" y="331"/>
      <point x="119" y="304"/>
      <point x="163" y="286" type="curve"/>
      <point x="163" y="280" type="line"/>
      <point x="119" y="263"/>
      <point x="55" y="229"/>
      <point x="55" y="148" type="curve" smooth="yes"/>
      <point x="55" y="48"/>
      <point x="125" y="0"/>
      <point x="252" y="0" type="curve" smooth="yes"/>
      <point x="372" y="0" type="line"/>
      <point x="372" y="120" type="line"/>
      <point x="278" y="120" type="line" smooth="yes"/>
      <point x="226" y="120"/>
      <point x="207" y="135"/>
      <point x="207" y="172" type="curve" smooth="yes"/>
      <point x="207" y="214"/>
      <point x="242" y="245"/>
      <point x="273" y="262" type="curve"/>
      <point x="285" y="259"/>
      <point x="304" y="254"/>
      <point x="336" y="245" type="curve" smooth="yes"/>
      <point x="405" y="226"/>
      <point x="444" y="214"/>
      <point x="444" y="111" type="curve" smooth="yes"/>
    </contour>
  </outline>
</glyph>
<glyph name="o-adlam.fina" format="2">
  <advance width="688"/>
  <anchor x="346" y="0" name="bottom"/>
  <anchor x="347" y="572" name="top"/>
  <outline>
    <contour>
      <point x="544" y="-87" type="line"/>
      <point x="565" y="-51"/>
      <point x="587" y="0"/>
      <point x="598" y="40" type="curve"/>
      <point x="603" y="40" type="line"/>
      <point x="611" y="12"/>
      <point x="620" y="0"/>
      <point x="648" y="0" type="curve" smooth="yes"/>
      <point x="688" y="0" type="line" smooth="yes"/>
      <point x="713" y="0"/>
      <point x="728" y="7"/>
      <point x="728" y="38" type="curve" smooth="yes"/>
      <point x="728" y="120" type="line"/>
      <point x="684" y="120" type="line" smooth="yes"/>
      <point x="643" y="120"/>
      <point x="626" y="147"/>
      <point x="626" y="173" type="curve" smooth="yes"/>
      <point x="626" y="198"/>
      <point x="630" y="237"/>
      <point x="630" y="270" type="curve" smooth="yes"/>
      <point x="630" y="519"/>
      <point x="517" y="595"/>
      <point x="347" y="595" type="curve" smooth="yes"/>
      <point x="161" y="595"/>
      <point x="55" y="485"/>
      <point x="55" y="297" type="curve" smooth="yes"/>
      <point x="55" y="198"/>
      <point x="79" y="140"/>
      <point x="91" y="126" type="curve"/>
      <point x="90" y="120" type="line"/>
      <point x="55" y="120" type="line"/>
      <point x="55" y="0" type="line"/>
      <point x="368" y="0" type="line"/>
      <point x="368" y="120" type="line"/>
      <point x="331" y="120" type="line" smooth="yes"/>
      <point x="237" y="120"/>
      <point x="207" y="173"/>
      <point x="207" y="306" type="curve" smooth="yes"/>
      <point x="207" y="440"/>
      <point x="267" y="475"/>
      <point x="343" y="475" type="curve" smooth="yes"/>
      <point x="408" y="475"/>
      <point x="478" y="428"/>
      <point x="478" y="270" type="curve" smooth="yes"/>
      <point x="478" y="115"/>
      <point x="442" y="27"/>
      <point x="412" y="-29" type="curve"/>
    </contour>
  </outline>
</glyph>
<glyph name="o-adlam.isol" format="2">
  <advance width="640"/>
  <anchor x="346" y="0" name="bottom"/>
  <anchor x="347" y="575" name="top"/>
  <outline>
    <contour>
      <point x="366" y="0" type="curve" smooth="yes"/>
      <point x="590" y="0" type="line"/>
      <point x="590" y="120" type="line"/>
      <point x="366" y="120" type="line" smooth="yes"/>
      <point x="293" y="120"/>
      <point x="207" y="130"/>
      <point x="207" y="297" type="curve" smooth="yes"/>
      <point x="207" y="422"/>
      <point x="260" y="475"/>
      <point x="336" y="475" type="curve" smooth="yes"/>
      <point x="412" y="475"/>
      <point x="442" y="414"/>
      <point x="460" y="376" type="curve"/>
      <point x="595" y="446" type="line"/>
      <point x="565" y="508"/>
      <point x="509" y="595"/>
      <point x="341" y="595" type="curve" smooth="yes"/>
      <point x="161" y="595"/>
      <point x="55" y="477"/>
      <point x="55" y="288" type="curve" smooth="yes"/>
      <point x="55" y="60"/>
      <point x="179" y="0"/>
    </contour>
  </outline>
</glyph>
<glyph name="pe-adlam.init" format="2">
  <advance width="592"/>
  <anchor x="310" y="575" name="top"/>
  <outline>
    <contour>
      <point x="0" y="0" type="curve" smooth="yes"/>
      <point x="40" y="0" type="line" smooth="yes"/>
      <point x="63" y="0"/>
      <point x="86" y="12"/>
      <point x="95" y="40" type="curve"/>
      <point x="101" y="40" type="line"/>
      <point x="115" y="12"/>
      <point x="145" y="0"/>
      <point x="203" y="0" type="curve" smooth="yes"/>
      <point x="521" y="0" type="line"/>
      <point x="521" y="120" type="line"/>
      <point x="302" y="120" type="line" smooth="yes"/>
      <point x="246" y="120"/>
      <point x="239" y="132"/>
      <point x="239" y="185" type="curve" smooth="yes"/>
      <point x="239" y="467" type="line"/>
      <point x="248" y="472"/>
      <point x="265" y="475"/>
      <point x="279" y="475" type="curve" smooth="yes"/>
      <point x="333" y="475"/>
      <point x="385" y="441"/>
      <point x="385" y="346" type="curve" smooth="yes"/>
      <point x="385" y="289"/>
      <point x="359" y="251"/>
      <point x="342" y="231" type="curve"/>
      <point x="455" y="148" type="line"/>
      <point x="486" y="176"/>
      <point x="537" y="242"/>
      <point x="537" y="354" type="curve" smooth="yes"/>
      <point x="537" y="516"/>
      <point x="447" y="595"/>
      <point x="284" y="595" type="curve" smooth="yes"/>
      <point x="194" y="595"/>
      <point x="123" y="574"/>
      <point x="90" y="561" type="curve"/>
      <point x="90" y="178" type="line" smooth="yes"/>
      <point x="90" y="136"/>
      <point x="81" y="120"/>
      <point x="40" y="120" type="curve" smooth="yes"/>
      <point x="-40" y="120" type="line"/>
      <point x="-40" y="38" type="line" smooth="yes"/>
      <point x="-40" y="7"/>
      <point x="-25" y="0"/>
    </contour>
  </outline>
</glyph>
<glyph name="pe-adlam.isol" format="2">
  <advance width="592"/>
  <anchor x="310" y="575" name="top"/>
  <outline>
    <contour>
      <point x="206" y="0" type="curve" smooth="yes"/>
      <point x="521" y="0" type="line"/>
      <point x="521" y="120" type="line"/>
      <point x="302" y="120" type="line" smooth="yes"/>
      <point x="246" y="120"/>
      <point x="239" y="132"/>
      <point x="239" y="185" type="curve" smooth="yes"/>
      <point x="239" y="467" type="line"/>
      <point x="248" y="472"/>
      <point x="265" y="475"/>
      <point x="279" y="475" type="curve" smooth="yes"/>
      <point x="333" y="475"/>
      <point x="385" y="441"/>
      <point x="385" y="346" type="curve" smooth="yes"/>
      <point x="385" y="289"/>
      <point x="359" y="251"/>
      <point x="342" y="231" type="curve"/>
      <point x="455" y="148" type="line"/>
      <point x="486" y="176"/>
      <point x="537" y="242"/>
      <point x="537" y="354" type="curve" smooth="yes"/>
      <point x="537" y="516"/>
      <point x="447" y="595"/>
      <point x="284" y="595" type="curve" smooth="yes"/>
      <point x="194" y="595"/>
      <point x="123" y="574"/>
      <point x="90" y="561" type="curve"/>
      <point x="90" y="119" type="line" smooth="yes"/>
      <point x="90" y="27"/>
      <point x="102" y="0"/>
    </contour>
  </outline>
</glyph>
<glyph name="qaaf-adlam.init" format="2">
  <advance width="825"/>
  <anchor x="375" y="620" name="top"/>
  <outline>
    <contour>
      <point x="0" y="0" type="curve" smooth="yes"/>
      <point x="367" y="0" type="line" smooth="yes"/>
      <point x="471" y="0"/>
      <point x="483" y="27"/>
      <point x="483" y="119" type="curve" smooth="yes"/>
      <point x="483" y="207" type="line"/>
      <point x="506" y="208"/>
      <point x="566" y="218"/>
      <point x="581" y="224" type="curve"/>
      <point x="586" y="220" type="line"/>
      <point x="586" y="0" type="line"/>
      <point x="735" y="0" type="line"/>
      <point x="735" y="714" type="line"/>
      <point x="586" y="714" type="line"/>
      <point x="586" y="346" type="line"/>
      <point x="561" y="337"/>
      <point x="506" y="328"/>
      <point x="483" y="327" type="curve"/>
      <point x="483" y="408" type="line" smooth="yes"/>
      <point x="483" y="533"/>
      <point x="446" y="595"/>
      <point x="295" y="595" type="curve" smooth="yes"/>
      <point x="146" y="595"/>
      <point x="55" y="519"/>
      <point x="55" y="393" type="curve" smooth="yes"/>
      <point x="55" y="263"/>
      <point x="150" y="203"/>
      <point x="321" y="203" type="curve" smooth="yes"/>
      <point x="325" y="203"/>
      <point x="330" y="203"/>
      <point x="334" y="203" type="curve"/>
      <point x="334" y="185" type="line" smooth="yes"/>
      <point x="334" y="132"/>
      <point x="326" y="120"/>
      <point x="271" y="120" type="curve" smooth="yes"/>
      <point x="-40" y="120" type="line"/>
      <point x="-40" y="38" type="line" smooth="yes"/>
      <point x="-40" y="7"/>
      <point x="-25" y="0"/>
    </contour>
    <contour>
      <point x="321" y="323" type="curve" smooth="yes"/>
      <point x="233" y="323"/>
      <point x="207" y="352"/>
      <point x="207" y="401" type="curve" smooth="yes"/>
      <point x="207" y="452"/>
      <point x="242" y="475"/>
      <point x="281" y="475" type="curve" smooth="yes"/>
      <point x="321" y="475"/>
      <point x="334" y="453"/>
      <point x="334" y="408" type="curve" smooth="yes"/>
      <point x="334" y="323" type="line"/>
      <point x="330" y="323"/>
      <point x="325" y="323"/>
    </contour>
  </outline>
</glyph>
<glyph name="qaaf-adlam.isol" format="2">
  <advance width="825"/>
  <anchor x="375" y="620" name="top"/>
  <outline>
    <contour>
      <point x="66" y="0" type="line"/>
      <point x="367" y="0" type="line" smooth="yes"/>
      <point x="471" y="0"/>
      <point x="483" y="27"/>
      <point x="483" y="119" type="curve" smooth="yes"/>
      <point x="483" y="207" type="line"/>
      <point x="506" y="208"/>
      <point x="566" y="218"/>
      <point x="581" y="224" type="curve"/>
      <point x="586" y="220" type="line"/>
      <point x="586" y="0" type="line"/>
      <point x="735" y="0" type="line"/>
      <point x="735" y="714" type="line"/>
      <point x="586" y="714" type="line"/>
      <point x="586" y="346" type="line"/>
      <point x="561" y="337"/>
      <point x="506" y="328"/>
      <point x="483" y="327" type="curve"/>
      <point x="483" y="408" type="line" smooth="yes"/>
      <point x="483" y="533"/>
      <point x="446" y="595"/>
      <point x="295" y="595" type="curve" smooth="yes"/>
      <point x="146" y="595"/>
      <point x="55" y="519"/>
      <point x="55" y="393" type="curve" smooth="yes"/>
      <point x="55" y="262"/>
      <point x="152" y="203"/>
      <point x="326" y="203" type="curve" smooth="yes"/>
      <point x="328" y="203"/>
      <point x="331" y="203"/>
      <point x="334" y="203" type="curve"/>
      <point x="334" y="185" type="line" smooth="yes"/>
      <point x="334" y="132"/>
      <point x="326" y="120"/>
      <point x="271" y="120" type="curve" smooth="yes"/>
      <point x="66" y="120" type="line"/>
    </contour>
    <contour>
      <point x="334" y="323" type="line"/>
      <point x="331" y="323"/>
      <point x="329" y="323"/>
      <point x="326" y="323" type="curve" smooth="yes"/>
      <point x="233" y="323"/>
      <point x="207" y="351"/>
      <point x="207" y="401" type="curve" smooth="yes"/>
      <point x="207" y="452"/>
      <point x="242" y="475"/>
      <point x="281" y="475" type="curve" smooth="yes"/>
      <point x="321" y="475"/>
      <point x="334" y="453"/>
      <point x="334" y="408" type="curve" smooth="yes"/>
    </contour>
  </outline>
</glyph>
<glyph name="qaaf-adlam.medi" format="2">
  <advance width="825"/>
  <anchor x="375" y="620" name="top"/>
  <outline>
    <contour>
      <point x="0" y="0" type="curve" smooth="yes"/>
      <point x="367" y="0" type="line" smooth="yes"/>
      <point x="471" y="0"/>
      <point x="483" y="27"/>
      <point x="483" y="119" type="curve" smooth="yes"/>
      <point x="483" y="207" type="line"/>
      <point x="506" y="208"/>
      <point x="566" y="218"/>
      <point x="582" y="225" type="curve"/>
      <point x="586" y="221" type="line"/>
      <point x="586" y="118" type="line" smooth="yes"/>
      <point x="586" y="32"/>
      <point x="605" y="0"/>
      <point x="700" y="0" type="curve" smooth="yes"/>
      <point x="825" y="0" type="line" smooth="yes"/>
      <point x="850" y="0"/>
      <point x="865" y="7"/>
      <point x="865" y="38" type="curve" smooth="yes"/>
      <point x="865" y="120" type="line"/>
      <point x="785" y="120" type="line" smooth="yes"/>
      <point x="744" y="120"/>
      <point x="735" y="136"/>
      <point x="735" y="178" type="curve" smooth="yes"/>
      <point x="735" y="714" type="line"/>
      <point x="586" y="714" type="line"/>
      <point x="586" y="346" type="line"/>
      <point x="561" y="337"/>
      <point x="506" y="328"/>
      <point x="483" y="327" type="curve"/>
      <point x="483" y="408" type="line" smooth="yes"/>
      <point x="483" y="533"/>
      <point x="446" y="595"/>
      <point x="295" y="595" type="curve" smooth="yes"/>
      <point x="146" y="595"/>
      <point x="55" y="519"/>
      <point x="55" y="393" type="curve" smooth="yes"/>
      <point x="55" y="263"/>
      <point x="151" y="203"/>
      <point x="323" y="203" type="curve" smooth="yes"/>
      <point x="327" y="203"/>
      <point x="330" y="203"/>
      <point x="334" y="203" type="curve"/>
      <point x="334" y="185" type="line" smooth="yes"/>
      <point x="334" y="132"/>
      <point x="326" y="120"/>
      <point x="271" y="120" type="curve" smooth="yes"/>
      <point x="-40" y="120" type="line"/>
      <point x="-40" y="38" type="line" smooth="yes"/>
      <point x="-40" y="7"/>
      <point x="-25" y="0"/>
    </contour>
    <contour>
      <point x="322" y="323" type="curve" smooth="yes"/>
      <point x="233" y="323"/>
      <point x="207" y="352"/>
      <point x="207" y="401" type="curve" smooth="yes"/>
      <point x="207" y="452"/>
      <point x="242" y="475"/>
      <point x="281" y="475" type="curve" smooth="yes"/>
      <point x="321" y="475"/>
      <point x="334" y="453"/>
      <point x="334" y="408" type="curve" smooth="yes"/>
      <point x="334" y="323" type="line"/>
      <point x="330" y="323"/>
      <point x="326" y="323"/>
    </contour>
  </outline>
</glyph>
<glyph name="ra-adlam.fina" format="2">
  <advance width="674"/>
  <anchor x="367" y="615" name="top"/>
  <outline>
    <contour>
      <point x="206" y="0" type="curve" smooth="yes"/>
      <point x="674" y="0" type="line" smooth="yes"/>
      <point x="699" y="0"/>
      <point x="714" y="7"/>
      <point x="714" y="38" type="curve" smooth="yes"/>
      <point x="714" y="120" type="line"/>
      <point x="302" y="120" type="line" smooth="yes"/>
      <point x="246" y="120"/>
      <point x="239" y="132"/>
      <point x="239" y="186" type="curve" smooth="yes"/>
      <point x="239" y="265" type="line"/>
      <point x="244" y="267" type="line"/>
      <point x="262" y="236"/>
      <point x="312" y="213"/>
      <point x="390" y="213" type="curve" smooth="yes"/>
      <point x="531" y="213"/>
      <point x="614" y="271"/>
      <point x="614" y="424" type="curve" smooth="yes"/>
      <point x="614" y="585" type="line"/>
      <point x="465" y="585" type="line"/>
      <point x="465" y="424" type="line" smooth="yes"/>
      <point x="465" y="363"/>
      <point x="426" y="333"/>
      <point x="355" y="333" type="curve" smooth="yes"/>
      <point x="284" y="333"/>
      <point x="248" y="373"/>
      <point x="239" y="406" type="curve"/>
      <point x="239" y="585" type="line"/>
      <point x="90" y="585" type="line"/>
      <point x="90" y="119" type="line" smooth="yes"/>
      <point x="90" y="27"/>
      <point x="102" y="0"/>
    </contour>
  </outline>
</glyph>
<glyph name="right_connector" format="2">
  <advance width="611"/>
  <outline>
    <contour>
      <point x="214" y="0" type="curve" smooth="yes"/>
      <point x="511" y="0" type="line"/>
      <point x="511" y="120" type="line"/>
      <point x="299" y="120" type="line" smooth="yes"/>
      <point x="258" y="120"/>
      <point x="249" y="136"/>
      <point x="249" y="178" type="curve" smooth="yes"/>
      <point x="249" y="585" type="line"/>
      <point x="100" y="585" type="line"/>
      <point x="100" y="118" type="line" smooth="yes"/>
      <point x="100" y="32"/>
      <point x="119" y="0"/>
    </contour>
  </outline>
</glyph>
<glyph name="sha-adlam.fina" format="2">
  <advance width="839"/>
  <anchor x="427" y="0" name="bottom"/>
  <anchor x="427" y="600" name="top"/>
  <outline>
    <contour>
      <point x="290" y="-10" type="curve" smooth="yes"/>
      <point x="452" y="-10"/>
      <point x="499" y="48"/>
      <point x="499" y="187" type="curve" smooth="yes"/>
      <point x="499" y="237" type="line"/>
      <point x="600" y="237" type="line"/>
      <point x="600" y="118" type="line" smooth="yes"/>
      <point x="600" y="32"/>
      <point x="619" y="0"/>
      <point x="714" y="0" type="curve" smooth="yes"/>
      <point x="839" y="0" type="line" smooth="yes"/>
      <point x="864" y="0"/>
      <point x="879" y="7"/>
      <point x="879" y="38" type="curve" smooth="yes"/>
      <point x="879" y="120" type="line"/>
      <point x="799" y="120" type="line" smooth="yes"/>
      <point x="758" y="120"/>
      <point x="749" y="136"/>
      <point x="749" y="178" type="curve" smooth="yes"/>
      <point x="749" y="585" type="line"/>
      <point x="600" y="585" type="line"/>
      <point x="600" y="357" type="line"/>
      <point x="499" y="357" type="line"/>
      <point x="499" y="585" type="line"/>
      <point x="350" y="585" type="line"/>
      <point x="350" y="187" type="line" smooth="yes"/>
      <point x="350" y="133"/>
      <point x="331" y="110"/>
      <point x="294" y="110" type="curve" smooth="yes"/>
      <point x="257" y="110"/>
      <point x="239" y="131"/>
      <point x="239" y="187" type="curve" smooth="yes"/>
      <point x="239" y="676" type="line"/>
      <point x="90" y="676" type="line"/>
      <point x="90" y="187" type="line" smooth="yes"/>
      <point x="90" y="47"/>
      <point x="137" y="-10"/>
    </contour>
  </outline>
</glyph>
<glyph name="sha-adlam.init" format="2">
  <advance width="839"/>
  <anchor x="427" y="0" name="bottom"/>
  <anchor x="427" y="600" name="top"/>
  <outline>
    <contour>
      <point x="290" y="-10" type="curve" smooth="yes"/>
      <point x="452" y="-10"/>
      <point x="499" y="48"/>
      <point x="499" y="187" type="curve" smooth="yes"/>
      <point x="499" y="237" type="line"/>
      <point x="600" y="237" type="line"/>
      <point x="600" y="0" type="line"/>
      <point x="749" y="0" type="line"/>
      <point x="749" y="585" type="line"/>
      <point x="600" y="585" type="line"/>
      <point x="600" y="357" type="line"/>
      <point x="499" y="357" type="line"/>
      <point x="499" y="585" type="line"/>
      <point x="350" y="585" type="line"/>
      <point x="350" y="187" type="line" smooth="yes"/>
      <point x="350" y="133"/>
      <point x="331" y="110"/>
      <point x="294" y="110" type="curve" smooth="yes"/>
      <point x="257" y="110"/>
      <point x="239" y="131"/>
      <point x="239" y="187" type="curve" smooth="yes"/>
      <point x="239" y="676" type="line"/>
      <point x="90" y="676" type="line"/>
      <point x="90" y="178" type="line" smooth="yes"/>
      <point x="90" y="136"/>
      <point x="81" y="120"/>
      <point x="40" y="120" type="curve" smooth="yes"/>
      <point x="-40" y="120" type="line"/>
      <point x="-40" y="38" type="line" smooth="yes"/>
      <point x="-40" y="7"/>
      <point x="-25" y="0"/>
      <point x="0" y="0" type="curve" smooth="yes"/>
      <point x="44" y="0" type="line" smooth="yes"/>
      <point x="95" y="0"/>
      <point x="119" y="22"/>
      <point x="125" y="40" type="curve"/>
      <point x="130" y="40" type="line"/>
      <point x="138" y="29"/>
      <point x="171" y="-10"/>
    </contour>
  </outline>
</glyph>
<glyph name="sha-adlam.isol" format="2">
  <advance width="839"/>
  <anchor x="427" y="0" name="bottom"/>
  <anchor x="427" y="600" name="top"/>
  <outline>
    <contour>
      <point x="290" y="-10" type="curve" smooth="yes"/>
      <point x="452" y="-10"/>
      <point x="499" y="48"/>
      <point x="499" y="187" type="curve" smooth="yes"/>
      <point x="499" y="237" type="line"/>
      <point x="600" y="237" type="line"/>
      <point x="600" y="0" type="line"/>
      <point x="749" y="0" type="line"/>
      <point x="749" y="585" type="line"/>
      <point x="600" y="585" type="line"/>
      <point x="600" y="357" type="line"/>
      <point x="499" y="357" type="line"/>
      <point x="499" y="585" type="line"/>
      <point x="350" y="585" type="line"/>
      <point x="350" y="187" type="line" smooth="yes"/>
      <point x="350" y="133"/>
      <point x="331" y="110"/>
      <point x="294" y="110" type="curve" smooth="yes"/>
      <point x="257" y="110"/>
      <point x="239" y="131"/>
      <point x="239" y="187" type="curve" smooth="yes"/>
      <point x="239" y="676" type="line"/>
      <point x="90" y="676" type="line"/>
      <point x="90" y="187" type="line" smooth="yes"/>
      <point x="90" y="47"/>
      <point x="137" y="-10"/>
    </contour>
  </outline>
</glyph>
<glyph name="sinnyiiyhe-adlam.medi" format="2">
  <advance width="907"/>
  <anchor x="455" y="2" name="bottom"/>
  <anchor x="457" y="575" name="gemconsonanttop"/>
  <anchor x="453" y="575" name="top"/>
  <outline>
    <contour>
      <point x="285" y="-10" type="curve" smooth="yes"/>
      <point x="390" y="-10"/>
      <point x="431" y="27"/>
      <point x="450" y="73" type="curve"/>
      <point x="456" y="73" type="line"/>
      <point x="478" y="27"/>
      <point x="514" y="-10"/>
      <point x="613" y="-10" type="curve" smooth="yes"/>
      <point x="714" y="-10"/>
      <point x="756" y="28"/>
      <point x="766" y="40" type="curve"/>
      <point x="771" y="40" type="line"/>
      <point x="778" y="23"/>
      <point x="793" y="0"/>
      <point x="844" y="0" type="curve" smooth="yes"/>
      <point x="907" y="0" type="line" smooth="yes"/>
      <point x="932" y="0"/>
      <point x="947" y="7"/>
      <point x="947" y="38" type="curve" smooth="yes"/>
      <point x="947" y="120" type="line"/>
      <point x="867" y="120" type="line" smooth="yes"/>
      <point x="826" y="120"/>
      <point x="817" y="136"/>
      <point x="817" y="178" type="curve" smooth="yes"/>
      <point x="817" y="585" type="line"/>
      <point x="668" y="585" type="line"/>
      <point x="668" y="196" type="line" smooth="yes"/>
      <point x="668" y="141"/>
      <point x="645" y="110"/>
      <point x="598" y="110" type="curve" smooth="yes"/>
      <point x="551" y="110"/>
      <point x="528" y="141"/>
      <point x="528" y="196" type="curve" smooth="yes"/>
      <point x="528" y="585" type="line"/>
      <point x="379" y="585" type="line"/>
      <point x="379" y="196" type="line" smooth="yes"/>
      <point x="379" y="141"/>
      <point x="356" y="110"/>
      <point x="309" y="110" type="curve" smooth="yes"/>
      <point x="262" y="110"/>
      <point x="239" y="141"/>
      <point x="239" y="196" type="curve" smooth="yes"/>
      <point x="239" y="676" type="line"/>
      <point x="90" y="676" type="line"/>
      <point x="90" y="178" type="line" smooth="yes"/>
      <point x="90" y="136"/>
      <point x="81" y="120"/>
      <point x="40" y="120" type="curve" smooth="yes"/>
      <point x="-40" y="120" type="line"/>
      <point x="-40" y="38" type="line" smooth="yes"/>
      <point x="-40" y="7"/>
      <point x="-25" y="0"/>
      <point x="0" y="0" type="curve" smooth="yes"/>
      <point x="55" y="0" type="line" smooth="yes"/>
      <point x="93" y="0"/>
      <point x="125" y="22"/>
      <point x="131" y="40" type="curve"/>
      <point x="136" y="40" type="line"/>
      <point x="146" y="28"/>
      <point x="182" y="-10"/>
    </contour>
  </outline>
</glyph>
<glyph name="va-adlam.fina" format="2">
  <advance width="646"/>
  <anchor x="319" y="578" name="top"/>
  <outline>
    <contour>
      <point x="80" y="0" type="line"/>
      <point x="229" y="0" type="line"/>
      <point x="229" y="363" type="line" smooth="yes"/>
      <point x="229" y="462"/>
      <point x="269" y="475"/>
      <point x="304" y="475" type="curve" smooth="yes"/>
      <point x="348" y="475"/>
      <point x="391" y="450"/>
      <point x="404" y="367" type="curve"/>
      <point x="404" y="331" type="line"/>
      <point x="298" y="331" type="line"/>
      <point x="298" y="211" type="line"/>
      <point x="404" y="211" type="line"/>
      <point x="404" y="118" type="line" smooth="yes"/>
      <point x="404" y="32"/>
      <point x="423" y="0"/>
      <point x="518" y="0" type="curve" smooth="yes"/>
      <point x="646" y="0" type="line" smooth="yes"/>
      <point x="671" y="0"/>
      <point x="686" y="7"/>
      <point x="686" y="38" type="curve" smooth="yes"/>
      <point x="686" y="120" type="line"/>
      <point x="603" y="120" type="line" smooth="yes"/>
      <point x="562" y="120"/>
      <point x="553" y="136"/>
      <point x="553" y="178" type="curve" smooth="yes"/>
      <point x="553" y="585" type="line"/>
      <point x="404" y="585" type="line"/>
      <point x="404" y="522" type="line"/>
      <point x="399" y="521" type="line"/>
      <point x="383" y="549"/>
      <point x="353" y="595"/>
      <point x="259" y="595" type="curve" smooth="yes"/>
      <point x="165" y="595"/>
      <point x="80" y="547"/>
      <point x="80" y="401" type="curve" smooth="yes"/>
    </contour>
  </outline>
</glyph>
<glyph name="va-adlam.medi" format="2">
  <advance width="646"/>
  <anchor x="319" y="578" name="top"/>
  <outline>
    <contour>
      <point x="0" y="0" type="curve" smooth="yes"/>
      <point x="115" y="0" type="line" smooth="yes"/>
      <point x="210" y="0"/>
      <point x="229" y="32"/>
      <point x="229" y="118" type="curve" smooth="yes"/>
      <point x="229" y="363" type="line" smooth="yes"/>
      <point x="229" y="462"/>
      <point x="269" y="475"/>
      <point x="304" y="475" type="curve" smooth="yes"/>
      <point x="348" y="475"/>
      <point x="391" y="450"/>
      <point x="404" y="367" type="curve"/>
      <point x="404" y="331" type="line"/>
      <point x="298" y="331" type="line"/>
      <point x="298" y="211" type="line"/>
      <point x="404" y="211" type="line"/>
      <point x="404" y="118" type="line" smooth="yes"/>
      <point x="404" y="32"/>
      <point x="423" y="0"/>
      <point x="518" y="0" type="curve" smooth="yes"/>
      <point x="646" y="0" type="line" smooth="yes"/>
      <point x="671" y="0"/>
      <point x="686" y="7"/>
      <point x="686" y="38" type="curve" smooth="yes"/>
      <point x="686" y="120" type="line"/>
      <point x="603" y="120" type="line" smooth="yes"/>
      <point x="562" y="120"/>
      <point x="553" y="136"/>
      <point x="553" y="178" type="curve" smooth="yes"/>
      <point x="553" y="585" type="line"/>
      <point x="404" y="585" type="line"/>
      <point x="404" y="522" type="line"/>
      <point x="399" y="521" type="line"/>
      <point x="383" y="549"/>
      <point x="353" y="595"/>
      <point x="259" y="595" type="curve" smooth="yes"/>
      <point x="165" y="595"/>
      <point x="80" y="547"/>
      <point x="80" y="401" type="curve" smooth="yes"/>
      <point x="80" y="178" type="line" smooth="yes"/>
      <point x="80" y="136"/>
      <point x="71" y="120"/>
      <point x="30" y="120" type="curve" smooth="yes"/>
      <point x="-40" y="120" type="line"/>
      <point x="-40" y="38" type="line" smooth="yes"/>
      <point x="-40" y="7"/>
      <point x="-25" y="0"/>
    </contour>
  </outline>
</glyph>
